%TF.GenerationSoftware,KiCad,Pcbnew,(6.0.7)*%
%TF.CreationDate,2023-01-04T14:37:49+01:00*%
%TF.ProjectId,s0 interface,73302069-6e74-4657-9266-6163652e6b69,rev?*%
%TF.SameCoordinates,Original*%
%TF.FileFunction,Copper,L1,Top*%
%TF.FilePolarity,Positive*%
%FSLAX46Y46*%
G04 Gerber Fmt 4.6, Leading zero omitted, Abs format (unit mm)*
G04 Created by KiCad (PCBNEW (6.0.7)) date 2023-01-04 14:37:49*
%MOMM*%
%LPD*%
G01*
G04 APERTURE LIST*
%TA.AperFunction,ComponentPad*%
%ADD10R,2.600000X2.600000*%
%TD*%
%TA.AperFunction,ComponentPad*%
%ADD11C,2.600000*%
%TD*%
%TA.AperFunction,ComponentPad*%
%ADD12R,1.600000X1.600000*%
%TD*%
%TA.AperFunction,ComponentPad*%
%ADD13O,1.600000X1.600000*%
%TD*%
%TA.AperFunction,ComponentPad*%
%ADD14C,1.524000*%
%TD*%
%TA.AperFunction,ComponentPad*%
%ADD15C,1.600000*%
%TD*%
%TA.AperFunction,ComponentPad*%
%ADD16R,2.000000X2.000000*%
%TD*%
%TA.AperFunction,ComponentPad*%
%ADD17O,1.600000X2.000000*%
%TD*%
%TA.AperFunction,ViaPad*%
%ADD18C,0.800000*%
%TD*%
%TA.AperFunction,Conductor*%
%ADD19C,0.400000*%
%TD*%
G04 APERTURE END LIST*
D10*
%TO.P,P1-input1,1,Pin_1*%
%TO.N,+3.3V*%
X224790000Y-51308000D03*
D11*
%TO.P,P1-input1,2,Pin_2*%
%TO.N,GND*%
X219710000Y-51308000D03*
%TO.P,P1-input1,3,Pin_3*%
%TO.N,Net-(IC1-Pad15)*%
X214630000Y-51308000D03*
%TD*%
D12*
%TO.P,IC6,1*%
%TO.N,Net-(IC6-Pad1)*%
X162561000Y-59482000D03*
D13*
%TO.P,IC6,2*%
%TO.N,GND*%
X160021000Y-59482000D03*
%TO.P,IC6,3*%
%TO.N,Net-(IC1-Pad6)*%
X160021000Y-67102000D03*
%TO.P,IC6,4*%
%TO.N,+3.3V*%
X162561000Y-67102000D03*
%TD*%
D10*
%TO.P,S0-3,1,Pin_1*%
%TO.N,Net-(JP2-Pad2)*%
X207518000Y-51308000D03*
D11*
%TO.P,S0-3,2,Pin_2*%
%TO.N,Net-(R8-Pad2)*%
X202438000Y-51308000D03*
%TO.P,S0-3,3,Pin_3*%
%TO.N,GND*%
X197358000Y-51308000D03*
%TD*%
D10*
%TO.P,S0-2,1,Pin_1*%
%TO.N,Net-(JP3-Pad2)*%
X191008000Y-51308000D03*
D11*
%TO.P,S0-2,2,Pin_2*%
%TO.N,Net-(R9-Pad2)*%
X185928000Y-51308000D03*
%TO.P,S0-2,3,Pin_3*%
%TO.N,GND*%
X180848000Y-51308000D03*
%TD*%
D14*
%TO.P,IC2,1,Pin_1*%
%TO.N,+3.3V*%
X210439000Y-93091000D03*
%TO.P,IC2,2,Pin_2*%
%TO.N,GND*%
X207899000Y-93091000D03*
%TO.P,IC2,3,Pin_3*%
%TO.N,unconnected-(IC2-Pad3)*%
X205359000Y-93091000D03*
%TO.P,IC2,4,Pin_4*%
%TO.N,Net-(IC1-Pad14)*%
X202819000Y-93091000D03*
%TO.P,IC2,5,Pin_5*%
%TO.N,Net-(IC1-Pad13)*%
X200279000Y-93091000D03*
%TO.P,IC2,6,Pin_6*%
%TO.N,unconnected-(IC2-Pad6)*%
X197739000Y-93091000D03*
%TO.P,IC2,7,Pin_7*%
%TO.N,unconnected-(IC2-Pad7)*%
X195199000Y-93091000D03*
%TO.P,IC2,8,Pin_8*%
%TO.N,unconnected-(IC2-Pad8)*%
X192659000Y-93091000D03*
%TD*%
D15*
%TO.P,R10,1*%
%TO.N,Net-(IC6-Pad1)*%
X165811200Y-67056000D03*
D13*
%TO.P,R10,2*%
%TO.N,Net-(R10-Pad2)*%
X165811200Y-59436000D03*
%TD*%
D15*
%TO.P,R8,1*%
%TO.N,Net-(IC4-Pad1)*%
X199034400Y-67081400D03*
D13*
%TO.P,R8,2*%
%TO.N,Net-(R8-Pad2)*%
X199034400Y-59461400D03*
%TD*%
D12*
%TO.P,IC5,1*%
%TO.N,Net-(IC5-Pad1)*%
X179198000Y-59482000D03*
D13*
%TO.P,IC5,2*%
%TO.N,GND*%
X176658000Y-59482000D03*
%TO.P,IC5,3*%
%TO.N,Net-(IC1-Pad5)*%
X176658000Y-67102000D03*
%TO.P,IC5,4*%
%TO.N,+3.3V*%
X179198000Y-67102000D03*
%TD*%
D14*
%TO.P,DC1,1,Pin_1*%
%TO.N,GND*%
X224060000Y-72739000D03*
%TO.P,DC1,2,Pin_2*%
%TO.N,+5V*%
X217964000Y-72739000D03*
%TO.P,DC1,3,Pin_3*%
%TO.N,GND*%
X224568000Y-104235000D03*
%TO.P,DC1,4,Pin_4*%
%TO.N,VCC*%
X217456000Y-104235000D03*
%TD*%
D12*
%TO.P,IC4,1*%
%TO.N,Net-(IC4-Pad1)*%
X195713000Y-59492000D03*
D13*
%TO.P,IC4,2*%
%TO.N,GND*%
X193173000Y-59492000D03*
%TO.P,IC4,3*%
%TO.N,Net-(IC1-Pad4)*%
X193173000Y-67112000D03*
%TO.P,IC4,4*%
%TO.N,+3.3V*%
X195713000Y-67112000D03*
%TD*%
D15*
%TO.P,R9,1*%
%TO.N,Net-(IC5-Pad1)*%
X182524400Y-67056000D03*
D13*
%TO.P,R9,2*%
%TO.N,Net-(R9-Pad2)*%
X182524400Y-59436000D03*
%TD*%
D15*
%TO.P,R3,1*%
%TO.N,GND*%
X167767000Y-69723000D03*
D13*
%TO.P,R3,2*%
%TO.N,Net-(IC1-Pad6)*%
X160147000Y-69723000D03*
%TD*%
D15*
%TO.P,R5,1*%
%TO.N,GND*%
X200787000Y-69723000D03*
D13*
%TO.P,R5,2*%
%TO.N,Net-(IC1-Pad4)*%
X193167000Y-69723000D03*
%TD*%
D15*
%TO.P,R4,1*%
%TO.N,GND*%
X184150000Y-69723000D03*
D13*
%TO.P,R4,2*%
%TO.N,Net-(IC1-Pad5)*%
X176530000Y-69723000D03*
%TD*%
D16*
%TO.P,IC1,1,~{RST}*%
%TO.N,unconnected-(IC1-Pad1)*%
X157886400Y-96162000D03*
D17*
%TO.P,IC1,2,A0*%
%TO.N,unconnected-(IC1-Pad2)*%
X160426400Y-96162000D03*
%TO.P,IC1,3,D0*%
%TO.N,unconnected-(IC1-Pad3)*%
X162966400Y-96162000D03*
%TO.P,IC1,4,SCK/D5*%
%TO.N,Net-(IC1-Pad4)*%
X165506400Y-96162000D03*
%TO.P,IC1,5,MISO/D6*%
%TO.N,Net-(IC1-Pad5)*%
X168046400Y-96162000D03*
%TO.P,IC1,6,MOSI/D7*%
%TO.N,Net-(IC1-Pad6)*%
X170586400Y-96162000D03*
%TO.P,IC1,7,CS/D8*%
%TO.N,unconnected-(IC1-Pad7)*%
X173126400Y-96162000D03*
%TO.P,IC1,8,3V3*%
%TO.N,+3.3V*%
X175666400Y-96162000D03*
%TO.P,IC1,9,5V*%
%TO.N,+5V*%
X175666400Y-73302000D03*
%TO.P,IC1,10,GND*%
%TO.N,GND*%
X173126400Y-73302000D03*
%TO.P,IC1,11,D4*%
%TO.N,unconnected-(IC1-Pad11)*%
X170586400Y-73302000D03*
%TO.P,IC1,12,D3*%
%TO.N,unconnected-(IC1-Pad12)*%
X168046400Y-73302000D03*
%TO.P,IC1,13,SDA/D2*%
%TO.N,Net-(IC1-Pad13)*%
X165506400Y-73302000D03*
%TO.P,IC1,14,SCL/D1*%
%TO.N,Net-(IC1-Pad14)*%
X162966400Y-73302000D03*
%TO.P,IC1,15,RX*%
%TO.N,Net-(IC1-Pad15)*%
X160426400Y-73302000D03*
%TO.P,IC1,16,TX*%
%TO.N,unconnected-(IC1-Pad16)*%
X157886400Y-73302000D03*
%TD*%
D10*
%TO.P,S0-1,1,Pin_1*%
%TO.N,Net-(JP4-Pad2)*%
X174371000Y-51308000D03*
D11*
%TO.P,S0-1,2,Pin_2*%
%TO.N,Net-(R10-Pad2)*%
X169291000Y-51308000D03*
%TO.P,S0-1,3,Pin_3*%
%TO.N,GND*%
X164211000Y-51308000D03*
%TD*%
D18*
%TO.N,Net-(IC1-Pad15)*%
X213810668Y-67367332D03*
%TO.N,Net-(IC1-Pad4)*%
X165481000Y-81788000D03*
%TO.N,Net-(IC1-Pad5)*%
X168021000Y-80772000D03*
%TO.N,+5V*%
X172466000Y-62865000D03*
%TO.N,Net-(JP2-Pad2)*%
X201295000Y-64262000D03*
%TO.N,Net-(JP3-Pad2)*%
X184658000Y-64262000D03*
%TD*%
D19*
%TO.N,Net-(IC1-Pad15)*%
X214630000Y-66548000D02*
X213810668Y-67367332D01*
X214630000Y-51308000D02*
X214630000Y-66548000D01*
%TO.N,+3.3V*%
X224790000Y-64516000D02*
X224790000Y-51308000D01*
X220046000Y-69260000D02*
X224790000Y-64516000D01*
%TO.N,GND*%
X207899000Y-93091000D02*
X209804000Y-91186000D01*
X209804000Y-91186000D02*
X215138000Y-91186000D01*
X216408000Y-75946000D02*
X216408000Y-89916000D01*
X210185000Y-69723000D02*
X216408000Y-75946000D01*
X216408000Y-89916000D02*
X215138000Y-91186000D01*
X200787000Y-69723000D02*
X210185000Y-69723000D01*
%TO.N,+3.3V*%
X214503000Y-69260000D02*
X220046000Y-69260000D01*
%TO.N,Net-(IC1-Pad4)*%
X193173000Y-67112000D02*
X193173000Y-69717000D01*
X193173000Y-69717000D02*
X193167000Y-69723000D01*
X165481000Y-81788000D02*
X165481000Y-96670000D01*
%TO.N,Net-(IC1-Pad5)*%
X176658000Y-67102000D02*
X176658000Y-69595000D01*
X168021000Y-80772000D02*
X168046400Y-80797400D01*
X168046400Y-80797400D02*
X168046400Y-96162000D01*
X176658000Y-69595000D02*
X176530000Y-69723000D01*
%TO.N,Net-(IC1-Pad6)*%
X160147000Y-69723000D02*
X161671000Y-71247000D01*
X170586400Y-98399600D02*
X170586400Y-96162000D01*
X161671000Y-71247000D02*
X161671000Y-88519000D01*
X160147000Y-69723000D02*
X160147000Y-67228000D01*
X161671000Y-88519000D02*
X164306400Y-91154400D01*
X165735000Y-99822000D02*
X169164000Y-99822000D01*
X160147000Y-67228000D02*
X160021000Y-67102000D01*
X164306400Y-91154400D02*
X164306400Y-98393400D01*
X164306400Y-98393400D02*
X165735000Y-99822000D01*
X169164000Y-99822000D02*
X170586400Y-98399600D01*
%TO.N,GND*%
X173126400Y-70002400D02*
X172847000Y-69723000D01*
X172847000Y-69723000D02*
X167767000Y-69723000D01*
X173126400Y-73302000D02*
X173126400Y-70002400D01*
%TO.N,Net-(IC1-Pad13)*%
X185674000Y-83312000D02*
X180721000Y-78359000D01*
X167513000Y-78359000D02*
X180721000Y-78359000D01*
X165506400Y-76352400D02*
X165506400Y-73302000D01*
X185674000Y-86995000D02*
X185674000Y-83312000D01*
X167513000Y-78359000D02*
X165506400Y-76352400D01*
X188595000Y-89916000D02*
X185674000Y-86995000D01*
X200279000Y-93091000D02*
X197104000Y-89916000D01*
X188595000Y-89916000D02*
X197104000Y-89916000D01*
%TO.N,+5V*%
X175666400Y-70890400D02*
X172466500Y-67690500D01*
X175666400Y-73302000D02*
X175666400Y-70890400D01*
X172466500Y-67690500D02*
X172466500Y-62992500D01*
%TO.N,+3.3V*%
X162561000Y-67102000D02*
X162561000Y-66295000D01*
X210902000Y-65659000D02*
X202565000Y-65659000D01*
X210902000Y-65659000D02*
X214503000Y-69260000D01*
X214503000Y-72263000D02*
X214503000Y-69260000D01*
X162561000Y-68835000D02*
X166623000Y-68835000D01*
X217691000Y-90284000D02*
X217691000Y-75451000D01*
X210439000Y-93091000D02*
X214884000Y-93091000D01*
X162561000Y-66295000D02*
X160655000Y-64389000D01*
X164465000Y-101981000D02*
X173355000Y-101981000D01*
X159086400Y-90633400D02*
X161766400Y-93313400D01*
X179198000Y-65279000D02*
X179198000Y-67102000D01*
X159086400Y-71583400D02*
X159086400Y-90633400D01*
X214884000Y-93091000D02*
X217691000Y-90284000D01*
X181057000Y-68961000D02*
X179198000Y-67102000D01*
X160655000Y-64389000D02*
X159131000Y-64389000D01*
X186182000Y-65532000D02*
X182753000Y-68961000D01*
X199136000Y-69088000D02*
X197689000Y-69088000D01*
X175666400Y-99669600D02*
X175666400Y-96162000D01*
X217691000Y-75451000D02*
X214503000Y-72263000D01*
X159131000Y-64389000D02*
X158242000Y-65278000D01*
X161766400Y-93313400D02*
X161766400Y-99282400D01*
X170307000Y-60706000D02*
X170942000Y-60071000D01*
X182753000Y-68961000D02*
X181057000Y-68961000D01*
X173990000Y-60071000D02*
X179198000Y-65279000D01*
X170307000Y-65151000D02*
X170307000Y-60706000D01*
X166623000Y-68835000D02*
X170307000Y-65151000D01*
X158242000Y-65278000D02*
X158242000Y-70739000D01*
X202565000Y-65659000D02*
X199136000Y-69088000D01*
X197689000Y-69088000D02*
X195713000Y-67112000D01*
X161766400Y-99282400D02*
X164465000Y-101981000D01*
X195713000Y-67112000D02*
X194133000Y-65532000D01*
X158242000Y-70739000D02*
X159086400Y-71583400D01*
X194133000Y-65532000D02*
X186182000Y-65532000D01*
X173355000Y-101981000D02*
X175666400Y-99669600D01*
X162561000Y-67102000D02*
X162561000Y-68835000D01*
X170942000Y-60071000D02*
X173990000Y-60071000D01*
%TO.N,Net-(IC1-Pad14)*%
X162966400Y-73302000D02*
X162966400Y-77622400D01*
X164592000Y-79248000D02*
X179712683Y-79248000D01*
X202819000Y-93091000D02*
X200660000Y-95250000D01*
X184725342Y-84260658D02*
X184725342Y-88459342D01*
X184725342Y-88459342D02*
X191516000Y-95250000D01*
X162966400Y-77622400D02*
X164592000Y-79248000D01*
X179712683Y-79248000D02*
X184725342Y-84260658D01*
X191516000Y-95250000D02*
X200660000Y-95250000D01*
%TO.N,Net-(IC4-Pad1)*%
X195713000Y-60692000D02*
X199034400Y-64013400D01*
X195713000Y-59492000D02*
X195713000Y-60692000D01*
X199034400Y-64013400D02*
X199034400Y-67081400D01*
%TO.N,Net-(IC5-Pad1)*%
X182524400Y-67056000D02*
X182524400Y-62808400D01*
X182524400Y-62808400D02*
X179198000Y-59482000D01*
%TO.N,Net-(IC6-Pad1)*%
X162561000Y-63805800D02*
X165811200Y-67056000D01*
X162561000Y-59482000D02*
X162561000Y-63805800D01*
%TO.N,Net-(JP2-Pad2)*%
X206629000Y-51308000D02*
X207518000Y-51308000D01*
X201295000Y-64262000D02*
X201295000Y-56642000D01*
X201295000Y-56642000D02*
X206629000Y-51308000D01*
%TO.N,Net-(JP3-Pad2)*%
X184658000Y-56769000D02*
X190119000Y-51308000D01*
X190119000Y-51308000D02*
X191008000Y-51308000D01*
X184658000Y-64262000D02*
X184658000Y-56769000D01*
%TO.N,Net-(R8-Pad2)*%
X199034400Y-59461400D02*
X199034400Y-54711600D01*
X199034400Y-54711600D02*
X202438000Y-51308000D01*
%TO.N,Net-(R9-Pad2)*%
X182524400Y-54711600D02*
X185928000Y-51308000D01*
X182524400Y-59436000D02*
X182524400Y-54711600D01*
%TO.N,Net-(R10-Pad2)*%
X165811200Y-54787800D02*
X169291000Y-51308000D01*
X165811200Y-59436000D02*
X165811200Y-54787800D01*
%TD*%
M02*
