%TF.GenerationSoftware,KiCad,Pcbnew,(6.0.7)*%
%TF.CreationDate,2023-01-04T14:37:49+01:00*%
%TF.ProjectId,s0 interface,73302069-6e74-4657-9266-6163652e6b69,rev?*%
%TF.SameCoordinates,Original*%
%TF.FileFunction,Legend,Bot*%
%TF.FilePolarity,Positive*%
%FSLAX46Y46*%
G04 Gerber Fmt 4.6, Leading zero omitted, Abs format (unit mm)*
G04 Created by KiCad (PCBNEW (6.0.7)) date 2023-01-04 14:37:49*
%MOMM*%
%LPD*%
G01*
G04 APERTURE LIST*
%ADD10C,0.300000*%
%ADD11C,0.150000*%
%ADD12C,0.120000*%
G04 APERTURE END LIST*
D10*
X205985428Y-55947571D02*
X205985428Y-56304714D01*
X206342571Y-56161857D02*
X205985428Y-56304714D01*
X205628285Y-56161857D01*
X206199714Y-56590428D02*
X205985428Y-56304714D01*
X205771142Y-56590428D01*
X203271142Y-57447571D02*
X203271142Y-55947571D01*
X203271142Y-57376142D02*
X203414000Y-57447571D01*
X203699714Y-57447571D01*
X203842571Y-57376142D01*
X203914000Y-57304714D01*
X203985428Y-57161857D01*
X203985428Y-56733285D01*
X203914000Y-56590428D01*
X203842571Y-56519000D01*
X203699714Y-56447571D01*
X203414000Y-56447571D01*
X203271142Y-56519000D01*
X201985428Y-57376142D02*
X202128285Y-57447571D01*
X202414000Y-57447571D01*
X202556857Y-57376142D01*
X202628285Y-57233285D01*
X202628285Y-56661857D01*
X202556857Y-56519000D01*
X202414000Y-56447571D01*
X202128285Y-56447571D01*
X201985428Y-56519000D01*
X201914000Y-56661857D01*
X201914000Y-56804714D01*
X202628285Y-56947571D01*
X201485428Y-56447571D02*
X200914000Y-56447571D01*
X201271142Y-57447571D02*
X201271142Y-56161857D01*
X201199714Y-56019000D01*
X201056857Y-55947571D01*
X200914000Y-55947571D01*
X199771142Y-57447571D02*
X199771142Y-56661857D01*
X199842571Y-56519000D01*
X199985428Y-56447571D01*
X200271142Y-56447571D01*
X200414000Y-56519000D01*
X199771142Y-57376142D02*
X199914000Y-57447571D01*
X200271142Y-57447571D01*
X200414000Y-57376142D01*
X200485428Y-57233285D01*
X200485428Y-57090428D01*
X200414000Y-56947571D01*
X200271142Y-56876142D01*
X199914000Y-56876142D01*
X199771142Y-56804714D01*
X198414000Y-56447571D02*
X198414000Y-57447571D01*
X199056857Y-56447571D02*
X199056857Y-57233285D01*
X198985428Y-57376142D01*
X198842571Y-57447571D01*
X198628285Y-57447571D01*
X198485428Y-57376142D01*
X198414000Y-57304714D01*
X197485428Y-57447571D02*
X197628285Y-57376142D01*
X197699714Y-57233285D01*
X197699714Y-55947571D01*
X197128285Y-56447571D02*
X196556857Y-56447571D01*
X196914000Y-55947571D02*
X196914000Y-57233285D01*
X196842571Y-57376142D01*
X196699714Y-57447571D01*
X196556857Y-57447571D01*
D11*
X211200666Y-62571380D02*
X211200666Y-62809476D01*
X211438761Y-62714238D02*
X211200666Y-62809476D01*
X210962571Y-62714238D01*
X211343523Y-62999952D02*
X211200666Y-62809476D01*
X211057809Y-62999952D01*
X209343523Y-62571380D02*
X209819714Y-62571380D01*
X209867333Y-63047571D01*
X209819714Y-62999952D01*
X209724476Y-62952333D01*
X209486380Y-62952333D01*
X209391142Y-62999952D01*
X209343523Y-63047571D01*
X209295904Y-63142809D01*
X209295904Y-63380904D01*
X209343523Y-63476142D01*
X209391142Y-63523761D01*
X209486380Y-63571380D01*
X209724476Y-63571380D01*
X209819714Y-63523761D01*
X209867333Y-63476142D01*
X208248285Y-62571380D02*
X207914952Y-63571380D01*
X207581619Y-62571380D01*
X207105428Y-63571380D02*
X207200666Y-63523761D01*
X207248285Y-63476142D01*
X207295904Y-63380904D01*
X207295904Y-63095190D01*
X207248285Y-62999952D01*
X207200666Y-62952333D01*
X207105428Y-62904714D01*
X206962571Y-62904714D01*
X206867333Y-62952333D01*
X206819714Y-62999952D01*
X206772095Y-63095190D01*
X206772095Y-63380904D01*
X206819714Y-63476142D01*
X206867333Y-63523761D01*
X206962571Y-63571380D01*
X207105428Y-63571380D01*
X206200666Y-63571380D02*
X206295904Y-63523761D01*
X206343523Y-63428523D01*
X206343523Y-62571380D01*
X205962571Y-62904714D02*
X205581619Y-62904714D01*
X205819714Y-62571380D02*
X205819714Y-63428523D01*
X205772095Y-63523761D01*
X205676857Y-63571380D01*
X205581619Y-63571380D01*
X178561666Y-62571380D02*
X178561666Y-62809476D01*
X178799761Y-62714238D02*
X178561666Y-62809476D01*
X178323571Y-62714238D01*
X178704523Y-62999952D02*
X178561666Y-62809476D01*
X178418809Y-62999952D01*
X176704523Y-62571380D02*
X177180714Y-62571380D01*
X177228333Y-63047571D01*
X177180714Y-62999952D01*
X177085476Y-62952333D01*
X176847380Y-62952333D01*
X176752142Y-62999952D01*
X176704523Y-63047571D01*
X176656904Y-63142809D01*
X176656904Y-63380904D01*
X176704523Y-63476142D01*
X176752142Y-63523761D01*
X176847380Y-63571380D01*
X177085476Y-63571380D01*
X177180714Y-63523761D01*
X177228333Y-63476142D01*
X175609285Y-62571380D02*
X175275952Y-63571380D01*
X174942619Y-62571380D01*
X174466428Y-63571380D02*
X174561666Y-63523761D01*
X174609285Y-63476142D01*
X174656904Y-63380904D01*
X174656904Y-63095190D01*
X174609285Y-62999952D01*
X174561666Y-62952333D01*
X174466428Y-62904714D01*
X174323571Y-62904714D01*
X174228333Y-62952333D01*
X174180714Y-62999952D01*
X174133095Y-63095190D01*
X174133095Y-63380904D01*
X174180714Y-63476142D01*
X174228333Y-63523761D01*
X174323571Y-63571380D01*
X174466428Y-63571380D01*
X173561666Y-63571380D02*
X173656904Y-63523761D01*
X173704523Y-63428523D01*
X173704523Y-62571380D01*
X173323571Y-62904714D02*
X172942619Y-62904714D01*
X173180714Y-62571380D02*
X173180714Y-63428523D01*
X173133095Y-63523761D01*
X173037857Y-63571380D01*
X172942619Y-63571380D01*
X194563666Y-62571380D02*
X194563666Y-62809476D01*
X194801761Y-62714238D02*
X194563666Y-62809476D01*
X194325571Y-62714238D01*
X194706523Y-62999952D02*
X194563666Y-62809476D01*
X194420809Y-62999952D01*
X192706523Y-62571380D02*
X193182714Y-62571380D01*
X193230333Y-63047571D01*
X193182714Y-62999952D01*
X193087476Y-62952333D01*
X192849380Y-62952333D01*
X192754142Y-62999952D01*
X192706523Y-63047571D01*
X192658904Y-63142809D01*
X192658904Y-63380904D01*
X192706523Y-63476142D01*
X192754142Y-63523761D01*
X192849380Y-63571380D01*
X193087476Y-63571380D01*
X193182714Y-63523761D01*
X193230333Y-63476142D01*
X191611285Y-62571380D02*
X191277952Y-63571380D01*
X190944619Y-62571380D01*
X190468428Y-63571380D02*
X190563666Y-63523761D01*
X190611285Y-63476142D01*
X190658904Y-63380904D01*
X190658904Y-63095190D01*
X190611285Y-62999952D01*
X190563666Y-62952333D01*
X190468428Y-62904714D01*
X190325571Y-62904714D01*
X190230333Y-62952333D01*
X190182714Y-62999952D01*
X190135095Y-63095190D01*
X190135095Y-63380904D01*
X190182714Y-63476142D01*
X190230333Y-63523761D01*
X190325571Y-63571380D01*
X190468428Y-63571380D01*
X189563666Y-63571380D02*
X189658904Y-63523761D01*
X189706523Y-63428523D01*
X189706523Y-62571380D01*
X189325571Y-62904714D02*
X188944619Y-62904714D01*
X189182714Y-62571380D02*
X189182714Y-63428523D01*
X189135095Y-63523761D01*
X189039857Y-63571380D01*
X188944619Y-63571380D01*
X178188619Y-65809761D02*
X178283857Y-65857380D01*
X178474333Y-65857380D01*
X178569571Y-65809761D01*
X178617190Y-65714523D01*
X178617190Y-65333571D01*
X178569571Y-65238333D01*
X178474333Y-65190714D01*
X178283857Y-65190714D01*
X178188619Y-65238333D01*
X178141000Y-65333571D01*
X178141000Y-65428809D01*
X178617190Y-65524047D01*
X177807666Y-65857380D02*
X177283857Y-65190714D01*
X177807666Y-65190714D02*
X177283857Y-65857380D01*
X177045761Y-65190714D02*
X176664809Y-65190714D01*
X176902904Y-64857380D02*
X176902904Y-65714523D01*
X176855285Y-65809761D01*
X176760047Y-65857380D01*
X176664809Y-65857380D01*
X176331476Y-65762142D02*
X176283857Y-65809761D01*
X176331476Y-65857380D01*
X176379095Y-65809761D01*
X176331476Y-65762142D01*
X176331476Y-65857380D01*
X175236238Y-64857380D02*
X174902904Y-65857380D01*
X174569571Y-64857380D01*
X174093380Y-65857380D02*
X174188619Y-65809761D01*
X174236238Y-65762142D01*
X174283857Y-65666904D01*
X174283857Y-65381190D01*
X174236238Y-65285952D01*
X174188619Y-65238333D01*
X174093380Y-65190714D01*
X173950523Y-65190714D01*
X173855285Y-65238333D01*
X173807666Y-65285952D01*
X173760047Y-65381190D01*
X173760047Y-65666904D01*
X173807666Y-65762142D01*
X173855285Y-65809761D01*
X173950523Y-65857380D01*
X174093380Y-65857380D01*
X173188619Y-65857380D02*
X173283857Y-65809761D01*
X173331476Y-65714523D01*
X173331476Y-64857380D01*
X172950523Y-65190714D02*
X172569571Y-65190714D01*
X172807666Y-64857380D02*
X172807666Y-65714523D01*
X172760047Y-65809761D01*
X172664809Y-65857380D01*
X172569571Y-65857380D01*
X210827619Y-65809761D02*
X210922857Y-65857380D01*
X211113333Y-65857380D01*
X211208571Y-65809761D01*
X211256190Y-65714523D01*
X211256190Y-65333571D01*
X211208571Y-65238333D01*
X211113333Y-65190714D01*
X210922857Y-65190714D01*
X210827619Y-65238333D01*
X210780000Y-65333571D01*
X210780000Y-65428809D01*
X211256190Y-65524047D01*
X210446666Y-65857380D02*
X209922857Y-65190714D01*
X210446666Y-65190714D02*
X209922857Y-65857380D01*
X209684761Y-65190714D02*
X209303809Y-65190714D01*
X209541904Y-64857380D02*
X209541904Y-65714523D01*
X209494285Y-65809761D01*
X209399047Y-65857380D01*
X209303809Y-65857380D01*
X208970476Y-65762142D02*
X208922857Y-65809761D01*
X208970476Y-65857380D01*
X209018095Y-65809761D01*
X208970476Y-65762142D01*
X208970476Y-65857380D01*
X207875238Y-64857380D02*
X207541904Y-65857380D01*
X207208571Y-64857380D01*
X206732380Y-65857380D02*
X206827619Y-65809761D01*
X206875238Y-65762142D01*
X206922857Y-65666904D01*
X206922857Y-65381190D01*
X206875238Y-65285952D01*
X206827619Y-65238333D01*
X206732380Y-65190714D01*
X206589523Y-65190714D01*
X206494285Y-65238333D01*
X206446666Y-65285952D01*
X206399047Y-65381190D01*
X206399047Y-65666904D01*
X206446666Y-65762142D01*
X206494285Y-65809761D01*
X206589523Y-65857380D01*
X206732380Y-65857380D01*
X205827619Y-65857380D02*
X205922857Y-65809761D01*
X205970476Y-65714523D01*
X205970476Y-64857380D01*
X205589523Y-65190714D02*
X205208571Y-65190714D01*
X205446666Y-64857380D02*
X205446666Y-65714523D01*
X205399047Y-65809761D01*
X205303809Y-65857380D01*
X205208571Y-65857380D01*
X194190619Y-65809761D02*
X194285857Y-65857380D01*
X194476333Y-65857380D01*
X194571571Y-65809761D01*
X194619190Y-65714523D01*
X194619190Y-65333571D01*
X194571571Y-65238333D01*
X194476333Y-65190714D01*
X194285857Y-65190714D01*
X194190619Y-65238333D01*
X194143000Y-65333571D01*
X194143000Y-65428809D01*
X194619190Y-65524047D01*
X193809666Y-65857380D02*
X193285857Y-65190714D01*
X193809666Y-65190714D02*
X193285857Y-65857380D01*
X193047761Y-65190714D02*
X192666809Y-65190714D01*
X192904904Y-64857380D02*
X192904904Y-65714523D01*
X192857285Y-65809761D01*
X192762047Y-65857380D01*
X192666809Y-65857380D01*
X192333476Y-65762142D02*
X192285857Y-65809761D01*
X192333476Y-65857380D01*
X192381095Y-65809761D01*
X192333476Y-65762142D01*
X192333476Y-65857380D01*
X191238238Y-64857380D02*
X190904904Y-65857380D01*
X190571571Y-64857380D01*
X190095380Y-65857380D02*
X190190619Y-65809761D01*
X190238238Y-65762142D01*
X190285857Y-65666904D01*
X190285857Y-65381190D01*
X190238238Y-65285952D01*
X190190619Y-65238333D01*
X190095380Y-65190714D01*
X189952523Y-65190714D01*
X189857285Y-65238333D01*
X189809666Y-65285952D01*
X189762047Y-65381190D01*
X189762047Y-65666904D01*
X189809666Y-65762142D01*
X189857285Y-65809761D01*
X189952523Y-65857380D01*
X190095380Y-65857380D01*
X189190619Y-65857380D02*
X189285857Y-65809761D01*
X189333476Y-65714523D01*
X189333476Y-64857380D01*
X188952523Y-65190714D02*
X188571571Y-65190714D01*
X188809666Y-64857380D02*
X188809666Y-65714523D01*
X188762047Y-65809761D01*
X188666809Y-65857380D01*
X188571571Y-65857380D01*
%TO.C,JP2*%
X204160333Y-60666380D02*
X204160333Y-61380666D01*
X204207952Y-61523523D01*
X204303190Y-61618761D01*
X204446047Y-61666380D01*
X204541285Y-61666380D01*
X203684142Y-61666380D02*
X203684142Y-60666380D01*
X203303190Y-60666380D01*
X203207952Y-60714000D01*
X203160333Y-60761619D01*
X203112714Y-60856857D01*
X203112714Y-60999714D01*
X203160333Y-61094952D01*
X203207952Y-61142571D01*
X203303190Y-61190190D01*
X203684142Y-61190190D01*
X202731761Y-60761619D02*
X202684142Y-60714000D01*
X202588904Y-60666380D01*
X202350809Y-60666380D01*
X202255571Y-60714000D01*
X202207952Y-60761619D01*
X202160333Y-60856857D01*
X202160333Y-60952095D01*
X202207952Y-61094952D01*
X202779380Y-61666380D01*
X202160333Y-61666380D01*
%TO.C,JP4*%
X171140333Y-60666380D02*
X171140333Y-61380666D01*
X171187952Y-61523523D01*
X171283190Y-61618761D01*
X171426047Y-61666380D01*
X171521285Y-61666380D01*
X170664142Y-61666380D02*
X170664142Y-60666380D01*
X170283190Y-60666380D01*
X170187952Y-60714000D01*
X170140333Y-60761619D01*
X170092714Y-60856857D01*
X170092714Y-60999714D01*
X170140333Y-61094952D01*
X170187952Y-61142571D01*
X170283190Y-61190190D01*
X170664142Y-61190190D01*
X169235571Y-60999714D02*
X169235571Y-61666380D01*
X169473666Y-60618761D02*
X169711761Y-61333047D01*
X169092714Y-61333047D01*
%TO.C,JP3*%
X187650333Y-60666380D02*
X187650333Y-61380666D01*
X187697952Y-61523523D01*
X187793190Y-61618761D01*
X187936047Y-61666380D01*
X188031285Y-61666380D01*
X187174142Y-61666380D02*
X187174142Y-60666380D01*
X186793190Y-60666380D01*
X186697952Y-60714000D01*
X186650333Y-60761619D01*
X186602714Y-60856857D01*
X186602714Y-60999714D01*
X186650333Y-61094952D01*
X186697952Y-61142571D01*
X186793190Y-61190190D01*
X187174142Y-61190190D01*
X186269380Y-60666380D02*
X185650333Y-60666380D01*
X185983666Y-61047333D01*
X185840809Y-61047333D01*
X185745571Y-61094952D01*
X185697952Y-61142571D01*
X185650333Y-61237809D01*
X185650333Y-61475904D01*
X185697952Y-61571142D01*
X185745571Y-61618761D01*
X185840809Y-61666380D01*
X186126523Y-61666380D01*
X186221761Y-61618761D01*
X186269380Y-61571142D01*
D12*
%TO.C,JP2*%
X204327000Y-65662000D02*
X204327000Y-62862000D01*
X204527000Y-63062000D02*
X204827000Y-62762000D01*
X202327000Y-62862000D02*
X202327000Y-65662000D01*
X204827000Y-62762000D02*
X204827000Y-63362000D01*
X203627000Y-62212000D02*
X203027000Y-62212000D01*
X204527000Y-63062000D02*
X204827000Y-63362000D01*
X203027000Y-66312000D02*
X203627000Y-66312000D01*
X203627000Y-66312000D02*
G75*
G03*
X204327000Y-65612000I0J700000D01*
G01*
X202327000Y-65612000D02*
G75*
G03*
X203027000Y-66312000I700000J0D01*
G01*
X204327000Y-62912000D02*
G75*
G03*
X203627000Y-62212000I-699999J1D01*
G01*
X203027000Y-62212000D02*
G75*
G03*
X202327000Y-62912000I-1J-699999D01*
G01*
%TO.C,JP4*%
X170607000Y-62212000D02*
X170007000Y-62212000D01*
X171307000Y-65662000D02*
X171307000Y-62862000D01*
X169307000Y-62862000D02*
X169307000Y-65662000D01*
X171507000Y-63062000D02*
X171807000Y-62762000D01*
X171807000Y-62762000D02*
X171807000Y-63362000D01*
X171507000Y-63062000D02*
X171807000Y-63362000D01*
X170007000Y-66312000D02*
X170607000Y-66312000D01*
X170607000Y-66312000D02*
G75*
G03*
X171307000Y-65612000I0J700000D01*
G01*
X170007000Y-62212000D02*
G75*
G03*
X169307000Y-62912000I-1J-699999D01*
G01*
X171307000Y-62912000D02*
G75*
G03*
X170607000Y-62212000I-699999J1D01*
G01*
X169307000Y-65612000D02*
G75*
G03*
X170007000Y-66312000I700000J0D01*
G01*
%TO.C,JP3*%
X185817000Y-62862000D02*
X185817000Y-65662000D01*
X188017000Y-63062000D02*
X188317000Y-63362000D01*
X187817000Y-65662000D02*
X187817000Y-62862000D01*
X188317000Y-62762000D02*
X188317000Y-63362000D01*
X188017000Y-63062000D02*
X188317000Y-62762000D01*
X186517000Y-66312000D02*
X187117000Y-66312000D01*
X187117000Y-62212000D02*
X186517000Y-62212000D01*
X185817000Y-65612000D02*
G75*
G03*
X186517000Y-66312000I700000J0D01*
G01*
X186517000Y-62212000D02*
G75*
G03*
X185817000Y-62912000I-1J-699999D01*
G01*
X187117000Y-66312000D02*
G75*
G03*
X187817000Y-65612000I0J700000D01*
G01*
X187817000Y-62912000D02*
G75*
G03*
X187117000Y-62212000I-699999J1D01*
G01*
%TD*%
M02*
