%TF.GenerationSoftware,KiCad,Pcbnew,(6.0.7)*%
%TF.CreationDate,2023-01-04T14:37:49+01:00*%
%TF.ProjectId,s0 interface,73302069-6e74-4657-9266-6163652e6b69,rev?*%
%TF.SameCoordinates,Original*%
%TF.FileFunction,Soldermask,Bot*%
%TF.FilePolarity,Negative*%
%FSLAX46Y46*%
G04 Gerber Fmt 4.6, Leading zero omitted, Abs format (unit mm)*
G04 Created by KiCad (PCBNEW (6.0.7)) date 2023-01-04 14:37:49*
%MOMM*%
%LPD*%
G01*
G04 APERTURE LIST*
G04 Aperture macros list*
%AMFreePoly0*
4,1,22,0.550000,-0.750000,0.000000,-0.750000,0.000000,-0.745033,-0.079941,-0.743568,-0.215256,-0.701293,-0.333266,-0.622738,-0.424486,-0.514219,-0.481581,-0.384460,-0.499164,-0.250000,-0.500000,-0.250000,-0.500000,0.250000,-0.499164,0.250000,-0.499963,0.256109,-0.478152,0.396186,-0.417904,0.524511,-0.324060,0.630769,-0.204165,0.706417,-0.067858,0.745374,0.000000,0.744959,0.000000,0.750000,
0.550000,0.750000,0.550000,-0.750000,0.550000,-0.750000,$1*%
%AMFreePoly1*
4,1,20,0.000000,0.744959,0.073905,0.744508,0.209726,0.703889,0.328688,0.626782,0.421226,0.519385,0.479903,0.390333,0.500000,0.250000,0.500000,-0.250000,0.499851,-0.262216,0.476331,-0.402017,0.414519,-0.529596,0.319384,-0.634700,0.198574,-0.708877,0.061801,-0.746166,0.000000,-0.745033,0.000000,-0.750000,-0.550000,-0.750000,-0.550000,0.750000,0.000000,0.750000,0.000000,0.744959,
0.000000,0.744959,$1*%
G04 Aperture macros list end*
%ADD10R,2.600000X2.600000*%
%ADD11C,2.600000*%
%ADD12R,1.600000X1.600000*%
%ADD13O,1.600000X1.600000*%
%ADD14C,4.300000*%
%ADD15C,1.524000*%
%ADD16C,1.600000*%
%ADD17R,2.000000X2.000000*%
%ADD18O,1.600000X2.000000*%
%ADD19FreePoly0,270.000000*%
%ADD20R,1.500000X1.000000*%
%ADD21FreePoly1,270.000000*%
G04 APERTURE END LIST*
D10*
%TO.C,P1-input1*%
X224790000Y-51308000D03*
D11*
X219710000Y-51308000D03*
X214630000Y-51308000D03*
%TD*%
D12*
%TO.C,IC6*%
X162561000Y-59482000D03*
D13*
X160021000Y-59482000D03*
X160021000Y-67102000D03*
X162561000Y-67102000D03*
%TD*%
D14*
%TO.C,REF\u002A\u002A*%
X188137800Y-34925000D03*
%TD*%
D10*
%TO.C,S0-3*%
X207518000Y-51308000D03*
D11*
X202438000Y-51308000D03*
X197358000Y-51308000D03*
%TD*%
D10*
%TO.C,S0-2*%
X191008000Y-51308000D03*
D11*
X185928000Y-51308000D03*
X180848000Y-51308000D03*
%TD*%
D15*
%TO.C,IC2*%
X210439000Y-93091000D03*
X207899000Y-93091000D03*
X205359000Y-93091000D03*
X202819000Y-93091000D03*
X200279000Y-93091000D03*
X197739000Y-93091000D03*
X195199000Y-93091000D03*
X192659000Y-93091000D03*
%TD*%
D16*
%TO.C,R10*%
X165811200Y-67056000D03*
D13*
X165811200Y-59436000D03*
%TD*%
D16*
%TO.C,R8*%
X199034400Y-67081400D03*
D13*
X199034400Y-59461400D03*
%TD*%
D12*
%TO.C,IC5*%
X179198000Y-59482000D03*
D13*
X176658000Y-59482000D03*
X176658000Y-67102000D03*
X179198000Y-67102000D03*
%TD*%
D15*
%TO.C,DC1*%
X224060000Y-72739000D03*
X217964000Y-72739000D03*
X224568000Y-104235000D03*
X217456000Y-104235000D03*
%TD*%
D12*
%TO.C,IC4*%
X195713000Y-59492000D03*
D13*
X193173000Y-59492000D03*
X193173000Y-67112000D03*
X195713000Y-67112000D03*
%TD*%
D16*
%TO.C,R9*%
X182524400Y-67056000D03*
D13*
X182524400Y-59436000D03*
%TD*%
D16*
%TO.C,R3*%
X167767000Y-69723000D03*
D13*
X160147000Y-69723000D03*
%TD*%
D16*
%TO.C,R5*%
X200787000Y-69723000D03*
D13*
X193167000Y-69723000D03*
%TD*%
D16*
%TO.C,R4*%
X184150000Y-69723000D03*
D13*
X176530000Y-69723000D03*
%TD*%
D17*
%TO.C,IC1*%
X157886400Y-96162000D03*
D18*
X160426400Y-96162000D03*
X162966400Y-96162000D03*
X165506400Y-96162000D03*
X168046400Y-96162000D03*
X170586400Y-96162000D03*
X173126400Y-96162000D03*
X175666400Y-96162000D03*
X175666400Y-73302000D03*
X173126400Y-73302000D03*
X170586400Y-73302000D03*
X168046400Y-73302000D03*
X165506400Y-73302000D03*
X162966400Y-73302000D03*
X160426400Y-73302000D03*
X157886400Y-73302000D03*
%TD*%
D14*
%TO.C,REF\u002A\u002A*%
X188976000Y-102489000D03*
%TD*%
D10*
%TO.C,S0-1*%
X174371000Y-51308000D03*
D11*
X169291000Y-51308000D03*
X164211000Y-51308000D03*
%TD*%
D19*
%TO.C,JP2*%
X203327000Y-62962000D03*
D20*
X203327000Y-64262000D03*
D21*
X203327000Y-65562000D03*
%TD*%
D19*
%TO.C,JP4*%
X170307000Y-62962000D03*
D20*
X170307000Y-64262000D03*
D21*
X170307000Y-65562000D03*
%TD*%
D19*
%TO.C,JP3*%
X186817000Y-62962000D03*
D20*
X186817000Y-64262000D03*
D21*
X186817000Y-65562000D03*
%TD*%
M02*
