%TF.GenerationSoftware,KiCad,Pcbnew,(6.0.7)*%
%TF.CreationDate,2023-01-04T14:37:49+01:00*%
%TF.ProjectId,s0 interface,73302069-6e74-4657-9266-6163652e6b69,rev?*%
%TF.SameCoordinates,Original*%
%TF.FileFunction,Copper,L2,Bot*%
%TF.FilePolarity,Positive*%
%FSLAX46Y46*%
G04 Gerber Fmt 4.6, Leading zero omitted, Abs format (unit mm)*
G04 Created by KiCad (PCBNEW (6.0.7)) date 2023-01-04 14:37:49*
%MOMM*%
%LPD*%
G01*
G04 APERTURE LIST*
G04 Aperture macros list*
%AMFreePoly0*
4,1,22,0.550000,-0.750000,0.000000,-0.750000,0.000000,-0.745033,-0.079941,-0.743568,-0.215256,-0.701293,-0.333266,-0.622738,-0.424486,-0.514219,-0.481581,-0.384460,-0.499164,-0.250000,-0.500000,-0.250000,-0.500000,0.250000,-0.499164,0.250000,-0.499963,0.256109,-0.478152,0.396186,-0.417904,0.524511,-0.324060,0.630769,-0.204165,0.706417,-0.067858,0.745374,0.000000,0.744959,0.000000,0.750000,
0.550000,0.750000,0.550000,-0.750000,0.550000,-0.750000,$1*%
%AMFreePoly1*
4,1,20,0.000000,0.744959,0.073905,0.744508,0.209726,0.703889,0.328688,0.626782,0.421226,0.519385,0.479903,0.390333,0.500000,0.250000,0.500000,-0.250000,0.499851,-0.262216,0.476331,-0.402017,0.414519,-0.529596,0.319384,-0.634700,0.198574,-0.708877,0.061801,-0.746166,0.000000,-0.745033,0.000000,-0.750000,-0.550000,-0.750000,-0.550000,0.750000,0.000000,0.750000,0.000000,0.744959,
0.000000,0.744959,$1*%
G04 Aperture macros list end*
%TA.AperFunction,ComponentPad*%
%ADD10R,2.600000X2.600000*%
%TD*%
%TA.AperFunction,ComponentPad*%
%ADD11C,2.600000*%
%TD*%
%TA.AperFunction,ComponentPad*%
%ADD12R,1.600000X1.600000*%
%TD*%
%TA.AperFunction,ComponentPad*%
%ADD13O,1.600000X1.600000*%
%TD*%
%TA.AperFunction,ComponentPad*%
%ADD14C,1.524000*%
%TD*%
%TA.AperFunction,ComponentPad*%
%ADD15C,1.600000*%
%TD*%
%TA.AperFunction,ComponentPad*%
%ADD16R,2.000000X2.000000*%
%TD*%
%TA.AperFunction,ComponentPad*%
%ADD17O,1.600000X2.000000*%
%TD*%
%TA.AperFunction,SMDPad,CuDef*%
%ADD18FreePoly0,270.000000*%
%TD*%
%TA.AperFunction,SMDPad,CuDef*%
%ADD19R,1.500000X1.000000*%
%TD*%
%TA.AperFunction,SMDPad,CuDef*%
%ADD20FreePoly1,270.000000*%
%TD*%
%TA.AperFunction,ViaPad*%
%ADD21C,0.800000*%
%TD*%
%TA.AperFunction,Conductor*%
%ADD22C,0.400000*%
%TD*%
G04 APERTURE END LIST*
%TO.C,JP2*%
G36*
X203627000Y-63862000D02*
G01*
X203027000Y-63862000D01*
X203027000Y-63362000D01*
X203627000Y-63362000D01*
X203627000Y-63862000D01*
G37*
%TO.C,JP4*%
G36*
X170607000Y-63862000D02*
G01*
X170007000Y-63862000D01*
X170007000Y-63362000D01*
X170607000Y-63362000D01*
X170607000Y-63862000D01*
G37*
%TO.C,JP3*%
G36*
X187117000Y-63862000D02*
G01*
X186517000Y-63862000D01*
X186517000Y-63362000D01*
X187117000Y-63362000D01*
X187117000Y-63862000D01*
G37*
%TD*%
D10*
%TO.P,P1-input1,1,Pin_1*%
%TO.N,+3.3V*%
X224790000Y-51308000D03*
D11*
%TO.P,P1-input1,2,Pin_2*%
%TO.N,GND*%
X219710000Y-51308000D03*
%TO.P,P1-input1,3,Pin_3*%
%TO.N,Net-(IC1-Pad15)*%
X214630000Y-51308000D03*
%TD*%
D12*
%TO.P,IC6,1*%
%TO.N,Net-(IC6-Pad1)*%
X162561000Y-59482000D03*
D13*
%TO.P,IC6,2*%
%TO.N,GND*%
X160021000Y-59482000D03*
%TO.P,IC6,3*%
%TO.N,Net-(IC1-Pad6)*%
X160021000Y-67102000D03*
%TO.P,IC6,4*%
%TO.N,+3.3V*%
X162561000Y-67102000D03*
%TD*%
D10*
%TO.P,S0-3,1,Pin_1*%
%TO.N,Net-(JP2-Pad2)*%
X207518000Y-51308000D03*
D11*
%TO.P,S0-3,2,Pin_2*%
%TO.N,Net-(R8-Pad2)*%
X202438000Y-51308000D03*
%TO.P,S0-3,3,Pin_3*%
%TO.N,GND*%
X197358000Y-51308000D03*
%TD*%
D10*
%TO.P,S0-2,1,Pin_1*%
%TO.N,Net-(JP3-Pad2)*%
X191008000Y-51308000D03*
D11*
%TO.P,S0-2,2,Pin_2*%
%TO.N,Net-(R9-Pad2)*%
X185928000Y-51308000D03*
%TO.P,S0-2,3,Pin_3*%
%TO.N,GND*%
X180848000Y-51308000D03*
%TD*%
D14*
%TO.P,IC2,1,Pin_1*%
%TO.N,+3.3V*%
X210439000Y-93091000D03*
%TO.P,IC2,2,Pin_2*%
%TO.N,GND*%
X207899000Y-93091000D03*
%TO.P,IC2,3,Pin_3*%
%TO.N,unconnected-(IC2-Pad3)*%
X205359000Y-93091000D03*
%TO.P,IC2,4,Pin_4*%
%TO.N,Net-(IC1-Pad14)*%
X202819000Y-93091000D03*
%TO.P,IC2,5,Pin_5*%
%TO.N,Net-(IC1-Pad13)*%
X200279000Y-93091000D03*
%TO.P,IC2,6,Pin_6*%
%TO.N,unconnected-(IC2-Pad6)*%
X197739000Y-93091000D03*
%TO.P,IC2,7,Pin_7*%
%TO.N,unconnected-(IC2-Pad7)*%
X195199000Y-93091000D03*
%TO.P,IC2,8,Pin_8*%
%TO.N,unconnected-(IC2-Pad8)*%
X192659000Y-93091000D03*
%TD*%
D15*
%TO.P,R10,1*%
%TO.N,Net-(IC6-Pad1)*%
X165811200Y-67056000D03*
D13*
%TO.P,R10,2*%
%TO.N,Net-(R10-Pad2)*%
X165811200Y-59436000D03*
%TD*%
D15*
%TO.P,R8,1*%
%TO.N,Net-(IC4-Pad1)*%
X199034400Y-67081400D03*
D13*
%TO.P,R8,2*%
%TO.N,Net-(R8-Pad2)*%
X199034400Y-59461400D03*
%TD*%
D12*
%TO.P,IC5,1*%
%TO.N,Net-(IC5-Pad1)*%
X179198000Y-59482000D03*
D13*
%TO.P,IC5,2*%
%TO.N,GND*%
X176658000Y-59482000D03*
%TO.P,IC5,3*%
%TO.N,Net-(IC1-Pad5)*%
X176658000Y-67102000D03*
%TO.P,IC5,4*%
%TO.N,+3.3V*%
X179198000Y-67102000D03*
%TD*%
D14*
%TO.P,DC1,1,Pin_1*%
%TO.N,GND*%
X224060000Y-72739000D03*
%TO.P,DC1,2,Pin_2*%
%TO.N,+5V*%
X217964000Y-72739000D03*
%TO.P,DC1,3,Pin_3*%
%TO.N,GND*%
X224568000Y-104235000D03*
%TO.P,DC1,4,Pin_4*%
%TO.N,VCC*%
X217456000Y-104235000D03*
%TD*%
D12*
%TO.P,IC4,1*%
%TO.N,Net-(IC4-Pad1)*%
X195713000Y-59492000D03*
D13*
%TO.P,IC4,2*%
%TO.N,GND*%
X193173000Y-59492000D03*
%TO.P,IC4,3*%
%TO.N,Net-(IC1-Pad4)*%
X193173000Y-67112000D03*
%TO.P,IC4,4*%
%TO.N,+3.3V*%
X195713000Y-67112000D03*
%TD*%
D15*
%TO.P,R9,1*%
%TO.N,Net-(IC5-Pad1)*%
X182524400Y-67056000D03*
D13*
%TO.P,R9,2*%
%TO.N,Net-(R9-Pad2)*%
X182524400Y-59436000D03*
%TD*%
D15*
%TO.P,R3,1*%
%TO.N,GND*%
X167767000Y-69723000D03*
D13*
%TO.P,R3,2*%
%TO.N,Net-(IC1-Pad6)*%
X160147000Y-69723000D03*
%TD*%
D15*
%TO.P,R5,1*%
%TO.N,GND*%
X200787000Y-69723000D03*
D13*
%TO.P,R5,2*%
%TO.N,Net-(IC1-Pad4)*%
X193167000Y-69723000D03*
%TD*%
D15*
%TO.P,R4,1*%
%TO.N,GND*%
X184150000Y-69723000D03*
D13*
%TO.P,R4,2*%
%TO.N,Net-(IC1-Pad5)*%
X176530000Y-69723000D03*
%TD*%
D16*
%TO.P,IC1,1,~{RST}*%
%TO.N,unconnected-(IC1-Pad1)*%
X157886400Y-96162000D03*
D17*
%TO.P,IC1,2,A0*%
%TO.N,unconnected-(IC1-Pad2)*%
X160426400Y-96162000D03*
%TO.P,IC1,3,D0*%
%TO.N,unconnected-(IC1-Pad3)*%
X162966400Y-96162000D03*
%TO.P,IC1,4,SCK/D5*%
%TO.N,Net-(IC1-Pad4)*%
X165506400Y-96162000D03*
%TO.P,IC1,5,MISO/D6*%
%TO.N,Net-(IC1-Pad5)*%
X168046400Y-96162000D03*
%TO.P,IC1,6,MOSI/D7*%
%TO.N,Net-(IC1-Pad6)*%
X170586400Y-96162000D03*
%TO.P,IC1,7,CS/D8*%
%TO.N,unconnected-(IC1-Pad7)*%
X173126400Y-96162000D03*
%TO.P,IC1,8,3V3*%
%TO.N,+3.3V*%
X175666400Y-96162000D03*
%TO.P,IC1,9,5V*%
%TO.N,+5V*%
X175666400Y-73302000D03*
%TO.P,IC1,10,GND*%
%TO.N,GND*%
X173126400Y-73302000D03*
%TO.P,IC1,11,D4*%
%TO.N,unconnected-(IC1-Pad11)*%
X170586400Y-73302000D03*
%TO.P,IC1,12,D3*%
%TO.N,unconnected-(IC1-Pad12)*%
X168046400Y-73302000D03*
%TO.P,IC1,13,SDA/D2*%
%TO.N,Net-(IC1-Pad13)*%
X165506400Y-73302000D03*
%TO.P,IC1,14,SCL/D1*%
%TO.N,Net-(IC1-Pad14)*%
X162966400Y-73302000D03*
%TO.P,IC1,15,RX*%
%TO.N,Net-(IC1-Pad15)*%
X160426400Y-73302000D03*
%TO.P,IC1,16,TX*%
%TO.N,unconnected-(IC1-Pad16)*%
X157886400Y-73302000D03*
%TD*%
D10*
%TO.P,S0-1,1,Pin_1*%
%TO.N,Net-(JP4-Pad2)*%
X174371000Y-51308000D03*
D11*
%TO.P,S0-1,2,Pin_2*%
%TO.N,Net-(R10-Pad2)*%
X169291000Y-51308000D03*
%TO.P,S0-1,3,Pin_3*%
%TO.N,GND*%
X164211000Y-51308000D03*
%TD*%
D18*
%TO.P,JP2,1,A*%
%TO.N,+5V*%
X203327000Y-62962000D03*
D19*
%TO.P,JP2,2,C*%
%TO.N,Net-(JP2-Pad2)*%
X203327000Y-64262000D03*
D20*
%TO.P,JP2,3,B*%
%TO.N,VCC*%
X203327000Y-65562000D03*
%TD*%
D18*
%TO.P,JP4,1,A*%
%TO.N,+5V*%
X170307000Y-62962000D03*
D19*
%TO.P,JP4,2,C*%
%TO.N,Net-(JP4-Pad2)*%
X170307000Y-64262000D03*
D20*
%TO.P,JP4,3,B*%
%TO.N,VCC*%
X170307000Y-65562000D03*
%TD*%
D18*
%TO.P,JP3,1,A*%
%TO.N,+5V*%
X186817000Y-62962000D03*
D19*
%TO.P,JP3,2,C*%
%TO.N,Net-(JP3-Pad2)*%
X186817000Y-64262000D03*
D20*
%TO.P,JP3,3,B*%
%TO.N,VCC*%
X186817000Y-65562000D03*
%TD*%
D21*
%TO.N,Net-(IC1-Pad15)*%
X213810668Y-67367332D03*
%TO.N,Net-(IC1-Pad4)*%
X165481000Y-81788000D03*
%TO.N,Net-(IC1-Pad5)*%
X168021000Y-80772000D03*
%TO.N,+5V*%
X172466000Y-62865000D03*
%TO.N,Net-(JP2-Pad2)*%
X201295000Y-64262000D03*
%TO.N,Net-(JP3-Pad2)*%
X184658000Y-64262000D03*
%TD*%
D22*
%TO.N,Net-(IC1-Pad15)*%
X187706000Y-71628000D02*
X209550000Y-71628000D01*
X209550000Y-71628000D02*
X213810668Y-67367332D01*
X176022000Y-83312000D02*
X187706000Y-71628000D01*
X160426400Y-82702400D02*
X161036000Y-83312000D01*
X160426400Y-73302000D02*
X160426400Y-82702400D01*
X161036000Y-83312000D02*
X176022000Y-83312000D01*
%TO.N,+5V*%
X217964000Y-68866000D02*
X217964000Y-72739000D01*
X212060000Y-62962000D02*
X217964000Y-68866000D01*
X203327000Y-62962000D02*
X212060000Y-62962000D01*
%TO.N,VCC*%
X213106000Y-65532000D02*
X203357000Y-65532000D01*
X215138000Y-67564000D02*
X213106000Y-65532000D01*
X215138000Y-73660000D02*
X215138000Y-67564000D01*
X217456000Y-75978000D02*
X215138000Y-73660000D01*
X203357000Y-65532000D02*
X203327000Y-65562000D01*
X217456000Y-104235000D02*
X217456000Y-75978000D01*
%TO.N,Net-(IC1-Pad4)*%
X175260000Y-81788000D02*
X165481000Y-81788000D01*
X189936000Y-67112000D02*
X175387000Y-81661000D01*
X193173000Y-67112000D02*
X189936000Y-67112000D01*
X175387000Y-81661000D02*
X175260000Y-81788000D01*
%TO.N,Net-(IC1-Pad5)*%
X169976800Y-70942200D02*
X170345000Y-70574000D01*
X175679000Y-70574000D02*
X176530000Y-69723000D01*
X168021000Y-80772000D02*
X166821000Y-79572000D01*
X170345000Y-70574000D02*
X175679000Y-70574000D01*
X166821000Y-79572000D02*
X166821000Y-71913600D01*
X166821000Y-71913600D02*
X167792400Y-70942200D01*
X167792400Y-70942200D02*
X169976800Y-70942200D01*
%TO.N,+5V*%
X186817000Y-62962000D02*
X203327000Y-62962000D01*
X172436000Y-62962000D02*
X186817000Y-62962000D01*
X172436000Y-62962000D02*
X170307000Y-62962000D01*
%TO.N,VCC*%
X170307000Y-65562000D02*
X186817000Y-65562000D01*
X203327000Y-65562000D02*
X186817000Y-65562000D01*
%TO.N,Net-(JP2-Pad2)*%
X203327000Y-64262000D02*
X201295000Y-64262000D01*
%TO.N,Net-(JP3-Pad2)*%
X184658000Y-64262000D02*
X186817000Y-64262000D01*
%TO.N,Net-(JP4-Pad2)*%
X168148000Y-63246000D02*
X169164000Y-64262000D01*
X168148000Y-58796257D02*
X174371000Y-52573257D01*
X168148000Y-58796257D02*
X168148000Y-63246000D01*
X174371000Y-52573257D02*
X174371000Y-51308000D01*
X169164000Y-64262000D02*
X170307000Y-64262000D01*
%TD*%
%TA.AperFunction,Conductor*%
%TO.N,GND*%
G36*
X228414909Y-31008002D02*
G01*
X228461402Y-31061658D01*
X228472788Y-31114211D01*
X228346211Y-106554211D01*
X228326094Y-106622298D01*
X228272361Y-106668701D01*
X228220211Y-106680000D01*
X149224000Y-106680000D01*
X149155879Y-106659998D01*
X149109386Y-106606342D01*
X149098000Y-106554000D01*
X149098000Y-102535485D01*
X186312854Y-102535485D01*
X186313156Y-102539320D01*
X186331108Y-102767417D01*
X186338370Y-102859695D01*
X186403206Y-103178378D01*
X186506398Y-103486784D01*
X186646405Y-103780316D01*
X186821141Y-104054597D01*
X186823584Y-104057560D01*
X186823585Y-104057562D01*
X186973308Y-104239190D01*
X187028001Y-104305538D01*
X187263902Y-104529399D01*
X187525326Y-104722843D01*
X187666851Y-104802914D01*
X187805019Y-104881086D01*
X187805023Y-104881088D01*
X187808376Y-104882985D01*
X188108832Y-105007438D01*
X188212288Y-105036129D01*
X188418500Y-105093317D01*
X188418508Y-105093319D01*
X188422216Y-105094347D01*
X188743856Y-105142416D01*
X188747154Y-105142560D01*
X188858918Y-105147440D01*
X188858922Y-105147440D01*
X188860294Y-105147500D01*
X189058598Y-105147500D01*
X189300605Y-105132698D01*
X189304388Y-105131997D01*
X189304395Y-105131996D01*
X189504459Y-105094916D01*
X189620372Y-105073433D01*
X189829682Y-105007438D01*
X189926860Y-104976798D01*
X189926863Y-104976797D01*
X189930532Y-104975640D01*
X189934029Y-104974046D01*
X189934035Y-104974044D01*
X190222954Y-104842376D01*
X190222958Y-104842374D01*
X190226462Y-104840777D01*
X190503751Y-104670854D01*
X190506755Y-104668464D01*
X190506760Y-104668461D01*
X190631008Y-104569629D01*
X190758264Y-104468405D01*
X190760958Y-104465664D01*
X190760962Y-104465660D01*
X190983513Y-104239190D01*
X190983517Y-104239185D01*
X190986208Y-104236447D01*
X191184185Y-103978439D01*
X191349242Y-103698227D01*
X191478920Y-103399988D01*
X191571285Y-103088169D01*
X191624961Y-102767417D01*
X191639146Y-102442515D01*
X191626388Y-102280410D01*
X191613932Y-102122140D01*
X191613932Y-102122137D01*
X191613630Y-102118305D01*
X191548794Y-101799622D01*
X191445602Y-101491216D01*
X191305595Y-101197684D01*
X191130859Y-100923403D01*
X190983470Y-100744606D01*
X190926442Y-100675425D01*
X190926438Y-100675420D01*
X190923999Y-100672462D01*
X190688098Y-100448601D01*
X190426674Y-100255157D01*
X190221781Y-100139234D01*
X190146981Y-100096914D01*
X190146977Y-100096912D01*
X190143624Y-100095015D01*
X189843168Y-99970562D01*
X189739712Y-99941871D01*
X189533500Y-99884683D01*
X189533492Y-99884681D01*
X189529784Y-99883653D01*
X189208144Y-99835584D01*
X189204846Y-99835440D01*
X189093082Y-99830560D01*
X189093078Y-99830560D01*
X189091706Y-99830500D01*
X188893402Y-99830500D01*
X188651395Y-99845302D01*
X188647612Y-99846003D01*
X188647605Y-99846004D01*
X188491512Y-99874934D01*
X188331628Y-99904567D01*
X188147058Y-99962762D01*
X188025140Y-100001202D01*
X188025137Y-100001203D01*
X188021468Y-100002360D01*
X188017971Y-100003954D01*
X188017965Y-100003956D01*
X187729046Y-100135624D01*
X187729042Y-100135626D01*
X187725538Y-100137223D01*
X187448249Y-100307146D01*
X187445245Y-100309536D01*
X187445240Y-100309539D01*
X187320993Y-100408370D01*
X187193736Y-100509595D01*
X187191042Y-100512336D01*
X187191038Y-100512340D01*
X186968487Y-100738810D01*
X186968483Y-100738815D01*
X186965792Y-100741553D01*
X186767815Y-100999561D01*
X186602758Y-101279773D01*
X186473080Y-101578012D01*
X186380715Y-101889831D01*
X186327039Y-102210583D01*
X186312854Y-102535485D01*
X149098000Y-102535485D01*
X149098000Y-98932000D01*
X149118002Y-98863879D01*
X149171658Y-98817386D01*
X149224000Y-98806000D01*
X157353000Y-98806000D01*
X157353000Y-97796500D01*
X157373002Y-97728379D01*
X157426658Y-97681886D01*
X157479000Y-97670500D01*
X158934534Y-97670500D01*
X158996716Y-97663745D01*
X159133105Y-97612615D01*
X159249661Y-97525261D01*
X159337015Y-97408705D01*
X159346190Y-97384232D01*
X159388831Y-97327467D01*
X159455392Y-97302766D01*
X159524741Y-97317973D01*
X159553267Y-97339365D01*
X159582100Y-97368198D01*
X159586608Y-97371355D01*
X159586611Y-97371357D01*
X159627936Y-97400293D01*
X159769651Y-97499523D01*
X159774633Y-97501846D01*
X159774638Y-97501849D01*
X159972175Y-97593961D01*
X159977157Y-97596284D01*
X159982465Y-97597706D01*
X159982467Y-97597707D01*
X160192998Y-97654119D01*
X160193000Y-97654119D01*
X160198313Y-97655543D01*
X160426400Y-97675498D01*
X160654487Y-97655543D01*
X160659800Y-97654119D01*
X160659802Y-97654119D01*
X160870333Y-97597707D01*
X160870335Y-97597706D01*
X160875643Y-97596284D01*
X160880625Y-97593961D01*
X161078162Y-97501849D01*
X161078167Y-97501846D01*
X161083149Y-97499523D01*
X161224864Y-97400293D01*
X161266189Y-97371357D01*
X161266192Y-97371355D01*
X161270700Y-97368198D01*
X161432598Y-97206300D01*
X161563923Y-97018749D01*
X161566246Y-97013767D01*
X161566249Y-97013762D01*
X161582205Y-96979543D01*
X161629122Y-96926258D01*
X161697399Y-96906797D01*
X161765359Y-96927339D01*
X161810595Y-96979543D01*
X161826551Y-97013762D01*
X161826554Y-97013767D01*
X161828877Y-97018749D01*
X161960202Y-97206300D01*
X162122100Y-97368198D01*
X162126608Y-97371355D01*
X162126611Y-97371357D01*
X162167936Y-97400293D01*
X162309651Y-97499523D01*
X162314633Y-97501846D01*
X162314638Y-97501849D01*
X162512175Y-97593961D01*
X162517157Y-97596284D01*
X162522465Y-97597706D01*
X162522467Y-97597707D01*
X162732998Y-97654119D01*
X162733000Y-97654119D01*
X162738313Y-97655543D01*
X162966400Y-97675498D01*
X163194487Y-97655543D01*
X163199800Y-97654119D01*
X163199802Y-97654119D01*
X163410333Y-97597707D01*
X163410335Y-97597706D01*
X163415643Y-97596284D01*
X163420625Y-97593961D01*
X163618162Y-97501849D01*
X163618167Y-97501846D01*
X163623149Y-97499523D01*
X163764864Y-97400293D01*
X163806189Y-97371357D01*
X163806192Y-97371355D01*
X163810700Y-97368198D01*
X163972598Y-97206300D01*
X164103923Y-97018749D01*
X164106246Y-97013767D01*
X164106249Y-97013762D01*
X164122205Y-96979543D01*
X164169122Y-96926258D01*
X164237399Y-96906797D01*
X164305359Y-96927339D01*
X164350595Y-96979543D01*
X164366551Y-97013762D01*
X164366554Y-97013767D01*
X164368877Y-97018749D01*
X164500202Y-97206300D01*
X164662100Y-97368198D01*
X164666608Y-97371355D01*
X164666611Y-97371357D01*
X164707936Y-97400293D01*
X164849651Y-97499523D01*
X164854633Y-97501846D01*
X164854638Y-97501849D01*
X165052175Y-97593961D01*
X165057157Y-97596284D01*
X165062465Y-97597706D01*
X165062467Y-97597707D01*
X165272998Y-97654119D01*
X165273000Y-97654119D01*
X165278313Y-97655543D01*
X165506400Y-97675498D01*
X165734487Y-97655543D01*
X165739800Y-97654119D01*
X165739802Y-97654119D01*
X165950333Y-97597707D01*
X165950335Y-97597706D01*
X165955643Y-97596284D01*
X165960625Y-97593961D01*
X166158162Y-97501849D01*
X166158167Y-97501846D01*
X166163149Y-97499523D01*
X166304864Y-97400293D01*
X166346189Y-97371357D01*
X166346192Y-97371355D01*
X166350700Y-97368198D01*
X166512598Y-97206300D01*
X166643923Y-97018749D01*
X166646246Y-97013767D01*
X166646249Y-97013762D01*
X166662205Y-96979543D01*
X166709122Y-96926258D01*
X166777399Y-96906797D01*
X166845359Y-96927339D01*
X166890595Y-96979543D01*
X166906551Y-97013762D01*
X166906554Y-97013767D01*
X166908877Y-97018749D01*
X167040202Y-97206300D01*
X167202100Y-97368198D01*
X167206608Y-97371355D01*
X167206611Y-97371357D01*
X167247936Y-97400293D01*
X167389651Y-97499523D01*
X167394633Y-97501846D01*
X167394638Y-97501849D01*
X167592175Y-97593961D01*
X167597157Y-97596284D01*
X167602465Y-97597706D01*
X167602467Y-97597707D01*
X167812998Y-97654119D01*
X167813000Y-97654119D01*
X167818313Y-97655543D01*
X168046400Y-97675498D01*
X168274487Y-97655543D01*
X168279800Y-97654119D01*
X168279802Y-97654119D01*
X168490333Y-97597707D01*
X168490335Y-97597706D01*
X168495643Y-97596284D01*
X168500625Y-97593961D01*
X168698162Y-97501849D01*
X168698167Y-97501846D01*
X168703149Y-97499523D01*
X168844864Y-97400293D01*
X168886189Y-97371357D01*
X168886192Y-97371355D01*
X168890700Y-97368198D01*
X169052598Y-97206300D01*
X169183923Y-97018749D01*
X169186246Y-97013767D01*
X169186249Y-97013762D01*
X169202205Y-96979543D01*
X169249122Y-96926258D01*
X169317399Y-96906797D01*
X169385359Y-96927339D01*
X169430595Y-96979543D01*
X169446551Y-97013762D01*
X169446554Y-97013767D01*
X169448877Y-97018749D01*
X169580202Y-97206300D01*
X169742100Y-97368198D01*
X169746608Y-97371355D01*
X169746611Y-97371357D01*
X169787936Y-97400293D01*
X169929651Y-97499523D01*
X169934633Y-97501846D01*
X169934638Y-97501849D01*
X170132175Y-97593961D01*
X170137157Y-97596284D01*
X170142465Y-97597706D01*
X170142467Y-97597707D01*
X170352998Y-97654119D01*
X170353000Y-97654119D01*
X170358313Y-97655543D01*
X170586400Y-97675498D01*
X170814487Y-97655543D01*
X170819800Y-97654119D01*
X170819802Y-97654119D01*
X171030333Y-97597707D01*
X171030335Y-97597706D01*
X171035643Y-97596284D01*
X171040625Y-97593961D01*
X171238162Y-97501849D01*
X171238167Y-97501846D01*
X171243149Y-97499523D01*
X171384864Y-97400293D01*
X171426189Y-97371357D01*
X171426192Y-97371355D01*
X171430700Y-97368198D01*
X171592598Y-97206300D01*
X171723923Y-97018749D01*
X171726246Y-97013767D01*
X171726249Y-97013762D01*
X171742205Y-96979543D01*
X171789122Y-96926258D01*
X171857399Y-96906797D01*
X171925359Y-96927339D01*
X171970595Y-96979543D01*
X171986551Y-97013762D01*
X171986554Y-97013767D01*
X171988877Y-97018749D01*
X172120202Y-97206300D01*
X172282100Y-97368198D01*
X172286608Y-97371355D01*
X172286611Y-97371357D01*
X172327936Y-97400293D01*
X172469651Y-97499523D01*
X172474633Y-97501846D01*
X172474638Y-97501849D01*
X172672175Y-97593961D01*
X172677157Y-97596284D01*
X172682465Y-97597706D01*
X172682467Y-97597707D01*
X172892998Y-97654119D01*
X172893000Y-97654119D01*
X172898313Y-97655543D01*
X173126400Y-97675498D01*
X173354487Y-97655543D01*
X173359800Y-97654119D01*
X173359802Y-97654119D01*
X173570333Y-97597707D01*
X173570335Y-97597706D01*
X173575643Y-97596284D01*
X173580625Y-97593961D01*
X173778162Y-97501849D01*
X173778167Y-97501846D01*
X173783149Y-97499523D01*
X173924864Y-97400293D01*
X173966189Y-97371357D01*
X173966192Y-97371355D01*
X173970700Y-97368198D01*
X174132598Y-97206300D01*
X174263923Y-97018749D01*
X174266246Y-97013767D01*
X174266249Y-97013762D01*
X174282205Y-96979543D01*
X174329122Y-96926258D01*
X174397399Y-96906797D01*
X174465359Y-96927339D01*
X174510595Y-96979543D01*
X174526551Y-97013762D01*
X174526554Y-97013767D01*
X174528877Y-97018749D01*
X174660202Y-97206300D01*
X174822100Y-97368198D01*
X174826608Y-97371355D01*
X174826611Y-97371357D01*
X174867936Y-97400293D01*
X175009651Y-97499523D01*
X175014633Y-97501846D01*
X175014638Y-97501849D01*
X175212175Y-97593961D01*
X175217157Y-97596284D01*
X175222465Y-97597706D01*
X175222467Y-97597707D01*
X175432998Y-97654119D01*
X175433000Y-97654119D01*
X175438313Y-97655543D01*
X175666400Y-97675498D01*
X175894487Y-97655543D01*
X175899800Y-97654119D01*
X175899802Y-97654119D01*
X176110333Y-97597707D01*
X176110335Y-97597706D01*
X176115643Y-97596284D01*
X176120625Y-97593961D01*
X176318162Y-97501849D01*
X176318167Y-97501846D01*
X176323149Y-97499523D01*
X176464864Y-97400293D01*
X176506189Y-97371357D01*
X176506192Y-97371355D01*
X176510700Y-97368198D01*
X176672598Y-97206300D01*
X176803923Y-97018749D01*
X176806246Y-97013767D01*
X176806249Y-97013762D01*
X176898361Y-96816225D01*
X176898361Y-96816224D01*
X176900684Y-96811243D01*
X176959943Y-96590087D01*
X176974900Y-96419127D01*
X176974900Y-95904873D01*
X176959943Y-95733913D01*
X176900684Y-95512757D01*
X176822205Y-95344457D01*
X176806249Y-95310238D01*
X176806246Y-95310233D01*
X176803923Y-95305251D01*
X176672598Y-95117700D01*
X176510700Y-94955802D01*
X176506192Y-94952645D01*
X176506189Y-94952643D01*
X176428011Y-94897902D01*
X176323149Y-94824477D01*
X176318167Y-94822154D01*
X176318162Y-94822151D01*
X176120625Y-94730039D01*
X176120624Y-94730039D01*
X176115643Y-94727716D01*
X176110335Y-94726294D01*
X176110333Y-94726293D01*
X175899802Y-94669881D01*
X175899800Y-94669881D01*
X175894487Y-94668457D01*
X175666400Y-94648502D01*
X175438313Y-94668457D01*
X175433000Y-94669881D01*
X175432998Y-94669881D01*
X175222467Y-94726293D01*
X175222465Y-94726294D01*
X175217157Y-94727716D01*
X175212176Y-94730039D01*
X175212175Y-94730039D01*
X175014638Y-94822151D01*
X175014633Y-94822154D01*
X175009651Y-94824477D01*
X174904789Y-94897902D01*
X174826611Y-94952643D01*
X174826608Y-94952645D01*
X174822100Y-94955802D01*
X174660202Y-95117700D01*
X174528877Y-95305251D01*
X174526554Y-95310233D01*
X174526551Y-95310238D01*
X174510595Y-95344457D01*
X174463678Y-95397742D01*
X174395401Y-95417203D01*
X174327441Y-95396661D01*
X174282205Y-95344457D01*
X174266249Y-95310238D01*
X174266246Y-95310233D01*
X174263923Y-95305251D01*
X174132598Y-95117700D01*
X173970700Y-94955802D01*
X173966192Y-94952645D01*
X173966189Y-94952643D01*
X173888011Y-94897902D01*
X173783149Y-94824477D01*
X173778167Y-94822154D01*
X173778162Y-94822151D01*
X173580625Y-94730039D01*
X173580624Y-94730039D01*
X173575643Y-94727716D01*
X173570335Y-94726294D01*
X173570333Y-94726293D01*
X173359802Y-94669881D01*
X173359800Y-94669881D01*
X173354487Y-94668457D01*
X173126400Y-94648502D01*
X172898313Y-94668457D01*
X172893000Y-94669881D01*
X172892998Y-94669881D01*
X172682467Y-94726293D01*
X172682465Y-94726294D01*
X172677157Y-94727716D01*
X172672176Y-94730039D01*
X172672175Y-94730039D01*
X172474638Y-94822151D01*
X172474633Y-94822154D01*
X172469651Y-94824477D01*
X172364789Y-94897902D01*
X172286611Y-94952643D01*
X172286608Y-94952645D01*
X172282100Y-94955802D01*
X172120202Y-95117700D01*
X171988877Y-95305251D01*
X171986554Y-95310233D01*
X171986551Y-95310238D01*
X171970595Y-95344457D01*
X171923678Y-95397742D01*
X171855401Y-95417203D01*
X171787441Y-95396661D01*
X171742205Y-95344457D01*
X171726249Y-95310238D01*
X171726246Y-95310233D01*
X171723923Y-95305251D01*
X171592598Y-95117700D01*
X171430700Y-94955802D01*
X171426192Y-94952645D01*
X171426189Y-94952643D01*
X171348011Y-94897902D01*
X171243149Y-94824477D01*
X171238167Y-94822154D01*
X171238162Y-94822151D01*
X171040625Y-94730039D01*
X171040624Y-94730039D01*
X171035643Y-94727716D01*
X171030335Y-94726294D01*
X171030333Y-94726293D01*
X170819802Y-94669881D01*
X170819800Y-94669881D01*
X170814487Y-94668457D01*
X170586400Y-94648502D01*
X170358313Y-94668457D01*
X170353000Y-94669881D01*
X170352998Y-94669881D01*
X170142467Y-94726293D01*
X170142465Y-94726294D01*
X170137157Y-94727716D01*
X170132176Y-94730039D01*
X170132175Y-94730039D01*
X169934638Y-94822151D01*
X169934633Y-94822154D01*
X169929651Y-94824477D01*
X169824789Y-94897902D01*
X169746611Y-94952643D01*
X169746608Y-94952645D01*
X169742100Y-94955802D01*
X169580202Y-95117700D01*
X169448877Y-95305251D01*
X169446554Y-95310233D01*
X169446551Y-95310238D01*
X169430595Y-95344457D01*
X169383678Y-95397742D01*
X169315401Y-95417203D01*
X169247441Y-95396661D01*
X169202205Y-95344457D01*
X169186249Y-95310238D01*
X169186246Y-95310233D01*
X169183923Y-95305251D01*
X169052598Y-95117700D01*
X168890700Y-94955802D01*
X168886192Y-94952645D01*
X168886189Y-94952643D01*
X168808011Y-94897902D01*
X168703149Y-94824477D01*
X168698167Y-94822154D01*
X168698162Y-94822151D01*
X168500625Y-94730039D01*
X168500624Y-94730039D01*
X168495643Y-94727716D01*
X168490335Y-94726294D01*
X168490333Y-94726293D01*
X168279802Y-94669881D01*
X168279800Y-94669881D01*
X168274487Y-94668457D01*
X168046400Y-94648502D01*
X167818313Y-94668457D01*
X167813000Y-94669881D01*
X167812998Y-94669881D01*
X167602467Y-94726293D01*
X167602465Y-94726294D01*
X167597157Y-94727716D01*
X167592176Y-94730039D01*
X167592175Y-94730039D01*
X167394638Y-94822151D01*
X167394633Y-94822154D01*
X167389651Y-94824477D01*
X167284789Y-94897902D01*
X167206611Y-94952643D01*
X167206608Y-94952645D01*
X167202100Y-94955802D01*
X167040202Y-95117700D01*
X166908877Y-95305251D01*
X166906554Y-95310233D01*
X166906551Y-95310238D01*
X166890595Y-95344457D01*
X166843678Y-95397742D01*
X166775401Y-95417203D01*
X166707441Y-95396661D01*
X166662205Y-95344457D01*
X166646249Y-95310238D01*
X166646246Y-95310233D01*
X166643923Y-95305251D01*
X166512598Y-95117700D01*
X166350700Y-94955802D01*
X166346192Y-94952645D01*
X166346189Y-94952643D01*
X166268011Y-94897902D01*
X166163149Y-94824477D01*
X166158167Y-94822154D01*
X166158162Y-94822151D01*
X165960625Y-94730039D01*
X165960624Y-94730039D01*
X165955643Y-94727716D01*
X165950335Y-94726294D01*
X165950333Y-94726293D01*
X165739802Y-94669881D01*
X165739800Y-94669881D01*
X165734487Y-94668457D01*
X165506400Y-94648502D01*
X165278313Y-94668457D01*
X165273000Y-94669881D01*
X165272998Y-94669881D01*
X165062467Y-94726293D01*
X165062465Y-94726294D01*
X165057157Y-94727716D01*
X165052176Y-94730039D01*
X165052175Y-94730039D01*
X164854638Y-94822151D01*
X164854633Y-94822154D01*
X164849651Y-94824477D01*
X164744789Y-94897902D01*
X164666611Y-94952643D01*
X164666608Y-94952645D01*
X164662100Y-94955802D01*
X164500202Y-95117700D01*
X164368877Y-95305251D01*
X164366554Y-95310233D01*
X164366551Y-95310238D01*
X164350595Y-95344457D01*
X164303678Y-95397742D01*
X164235401Y-95417203D01*
X164167441Y-95396661D01*
X164122205Y-95344457D01*
X164106249Y-95310238D01*
X164106246Y-95310233D01*
X164103923Y-95305251D01*
X163972598Y-95117700D01*
X163810700Y-94955802D01*
X163806192Y-94952645D01*
X163806189Y-94952643D01*
X163728011Y-94897902D01*
X163623149Y-94824477D01*
X163618167Y-94822154D01*
X163618162Y-94822151D01*
X163420625Y-94730039D01*
X163420624Y-94730039D01*
X163415643Y-94727716D01*
X163410335Y-94726294D01*
X163410333Y-94726293D01*
X163199802Y-94669881D01*
X163199800Y-94669881D01*
X163194487Y-94668457D01*
X162966400Y-94648502D01*
X162738313Y-94668457D01*
X162733000Y-94669881D01*
X162732998Y-94669881D01*
X162522467Y-94726293D01*
X162522465Y-94726294D01*
X162517157Y-94727716D01*
X162512176Y-94730039D01*
X162512175Y-94730039D01*
X162314638Y-94822151D01*
X162314633Y-94822154D01*
X162309651Y-94824477D01*
X162204789Y-94897902D01*
X162126611Y-94952643D01*
X162126608Y-94952645D01*
X162122100Y-94955802D01*
X161960202Y-95117700D01*
X161828877Y-95305251D01*
X161826554Y-95310233D01*
X161826551Y-95310238D01*
X161810595Y-95344457D01*
X161763678Y-95397742D01*
X161695401Y-95417203D01*
X161627441Y-95396661D01*
X161582205Y-95344457D01*
X161566249Y-95310238D01*
X161566246Y-95310233D01*
X161563923Y-95305251D01*
X161432598Y-95117700D01*
X161270700Y-94955802D01*
X161266192Y-94952645D01*
X161266189Y-94952643D01*
X161188011Y-94897902D01*
X161083149Y-94824477D01*
X161078167Y-94822154D01*
X161078162Y-94822151D01*
X160880625Y-94730039D01*
X160880624Y-94730039D01*
X160875643Y-94727716D01*
X160870335Y-94726294D01*
X160870333Y-94726293D01*
X160659802Y-94669881D01*
X160659800Y-94669881D01*
X160654487Y-94668457D01*
X160426400Y-94648502D01*
X160198313Y-94668457D01*
X160193000Y-94669881D01*
X160192998Y-94669881D01*
X159982467Y-94726293D01*
X159982465Y-94726294D01*
X159977157Y-94727716D01*
X159972176Y-94730039D01*
X159972175Y-94730039D01*
X159774638Y-94822151D01*
X159774633Y-94822154D01*
X159769651Y-94824477D01*
X159664789Y-94897902D01*
X159586611Y-94952643D01*
X159586608Y-94952645D01*
X159582100Y-94955802D01*
X159553267Y-94984635D01*
X159490955Y-95018661D01*
X159420140Y-95013596D01*
X159363304Y-94971049D01*
X159346190Y-94939768D01*
X159340169Y-94923707D01*
X159340167Y-94923704D01*
X159337015Y-94915295D01*
X159249661Y-94798739D01*
X159133105Y-94711385D01*
X158996716Y-94660255D01*
X158934534Y-94653500D01*
X157479000Y-94653500D01*
X157410879Y-94633498D01*
X157364386Y-94579842D01*
X157353000Y-94527500D01*
X157353000Y-93091000D01*
X191383647Y-93091000D01*
X191403022Y-93312463D01*
X191460560Y-93527196D01*
X191462882Y-93532177D01*
X191462883Y-93532178D01*
X191552186Y-93723689D01*
X191552189Y-93723694D01*
X191554512Y-93728676D01*
X191557668Y-93733183D01*
X191557669Y-93733185D01*
X191594107Y-93785223D01*
X191682023Y-93910781D01*
X191839219Y-94067977D01*
X191843727Y-94071134D01*
X191843730Y-94071136D01*
X191919495Y-94124187D01*
X192021323Y-94195488D01*
X192026305Y-94197811D01*
X192026310Y-94197814D01*
X192216810Y-94286645D01*
X192222804Y-94289440D01*
X192228112Y-94290862D01*
X192228114Y-94290863D01*
X192293949Y-94308503D01*
X192437537Y-94346978D01*
X192659000Y-94366353D01*
X192880463Y-94346978D01*
X193024051Y-94308503D01*
X193089886Y-94290863D01*
X193089888Y-94290862D01*
X193095196Y-94289440D01*
X193101190Y-94286645D01*
X193291690Y-94197814D01*
X193291695Y-94197811D01*
X193296677Y-94195488D01*
X193398505Y-94124187D01*
X193474270Y-94071136D01*
X193474273Y-94071134D01*
X193478781Y-94067977D01*
X193635977Y-93910781D01*
X193723894Y-93785223D01*
X193760331Y-93733185D01*
X193760332Y-93733183D01*
X193763488Y-93728676D01*
X193765811Y-93723694D01*
X193765814Y-93723689D01*
X193814805Y-93618627D01*
X193861723Y-93565342D01*
X193930000Y-93545881D01*
X193997960Y-93566423D01*
X194043195Y-93618627D01*
X194092186Y-93723689D01*
X194092189Y-93723694D01*
X194094512Y-93728676D01*
X194097668Y-93733183D01*
X194097669Y-93733185D01*
X194134107Y-93785223D01*
X194222023Y-93910781D01*
X194379219Y-94067977D01*
X194383727Y-94071134D01*
X194383730Y-94071136D01*
X194459495Y-94124187D01*
X194561323Y-94195488D01*
X194566305Y-94197811D01*
X194566310Y-94197814D01*
X194756810Y-94286645D01*
X194762804Y-94289440D01*
X194768112Y-94290862D01*
X194768114Y-94290863D01*
X194833949Y-94308503D01*
X194977537Y-94346978D01*
X195199000Y-94366353D01*
X195420463Y-94346978D01*
X195564051Y-94308503D01*
X195629886Y-94290863D01*
X195629888Y-94290862D01*
X195635196Y-94289440D01*
X195641190Y-94286645D01*
X195831690Y-94197814D01*
X195831695Y-94197811D01*
X195836677Y-94195488D01*
X195938505Y-94124187D01*
X196014270Y-94071136D01*
X196014273Y-94071134D01*
X196018781Y-94067977D01*
X196175977Y-93910781D01*
X196263894Y-93785223D01*
X196300331Y-93733185D01*
X196300332Y-93733183D01*
X196303488Y-93728676D01*
X196305811Y-93723694D01*
X196305814Y-93723689D01*
X196354805Y-93618627D01*
X196401723Y-93565342D01*
X196470000Y-93545881D01*
X196537960Y-93566423D01*
X196583195Y-93618627D01*
X196632186Y-93723689D01*
X196632189Y-93723694D01*
X196634512Y-93728676D01*
X196637668Y-93733183D01*
X196637669Y-93733185D01*
X196674107Y-93785223D01*
X196762023Y-93910781D01*
X196919219Y-94067977D01*
X196923727Y-94071134D01*
X196923730Y-94071136D01*
X196999495Y-94124187D01*
X197101323Y-94195488D01*
X197106305Y-94197811D01*
X197106310Y-94197814D01*
X197296810Y-94286645D01*
X197302804Y-94289440D01*
X197308112Y-94290862D01*
X197308114Y-94290863D01*
X197373949Y-94308503D01*
X197517537Y-94346978D01*
X197739000Y-94366353D01*
X197960463Y-94346978D01*
X198104051Y-94308503D01*
X198169886Y-94290863D01*
X198169888Y-94290862D01*
X198175196Y-94289440D01*
X198181190Y-94286645D01*
X198371690Y-94197814D01*
X198371695Y-94197811D01*
X198376677Y-94195488D01*
X198478505Y-94124187D01*
X198554270Y-94071136D01*
X198554273Y-94071134D01*
X198558781Y-94067977D01*
X198715977Y-93910781D01*
X198803894Y-93785223D01*
X198840331Y-93733185D01*
X198840332Y-93733183D01*
X198843488Y-93728676D01*
X198845811Y-93723694D01*
X198845814Y-93723689D01*
X198894805Y-93618627D01*
X198941723Y-93565342D01*
X199010000Y-93545881D01*
X199077960Y-93566423D01*
X199123195Y-93618627D01*
X199172186Y-93723689D01*
X199172189Y-93723694D01*
X199174512Y-93728676D01*
X199177668Y-93733183D01*
X199177669Y-93733185D01*
X199214107Y-93785223D01*
X199302023Y-93910781D01*
X199459219Y-94067977D01*
X199463727Y-94071134D01*
X199463730Y-94071136D01*
X199539495Y-94124187D01*
X199641323Y-94195488D01*
X199646305Y-94197811D01*
X199646310Y-94197814D01*
X199836810Y-94286645D01*
X199842804Y-94289440D01*
X199848112Y-94290862D01*
X199848114Y-94290863D01*
X199913949Y-94308503D01*
X200057537Y-94346978D01*
X200279000Y-94366353D01*
X200500463Y-94346978D01*
X200644051Y-94308503D01*
X200709886Y-94290863D01*
X200709888Y-94290862D01*
X200715196Y-94289440D01*
X200721190Y-94286645D01*
X200911690Y-94197814D01*
X200911695Y-94197811D01*
X200916677Y-94195488D01*
X201018505Y-94124187D01*
X201094270Y-94071136D01*
X201094273Y-94071134D01*
X201098781Y-94067977D01*
X201255977Y-93910781D01*
X201343894Y-93785223D01*
X201380331Y-93733185D01*
X201380332Y-93733183D01*
X201383488Y-93728676D01*
X201385811Y-93723694D01*
X201385814Y-93723689D01*
X201434805Y-93618627D01*
X201481723Y-93565342D01*
X201550000Y-93545881D01*
X201617960Y-93566423D01*
X201663195Y-93618627D01*
X201712186Y-93723689D01*
X201712189Y-93723694D01*
X201714512Y-93728676D01*
X201717668Y-93733183D01*
X201717669Y-93733185D01*
X201754107Y-93785223D01*
X201842023Y-93910781D01*
X201999219Y-94067977D01*
X202003727Y-94071134D01*
X202003730Y-94071136D01*
X202079495Y-94124187D01*
X202181323Y-94195488D01*
X202186305Y-94197811D01*
X202186310Y-94197814D01*
X202376810Y-94286645D01*
X202382804Y-94289440D01*
X202388112Y-94290862D01*
X202388114Y-94290863D01*
X202453949Y-94308503D01*
X202597537Y-94346978D01*
X202819000Y-94366353D01*
X203040463Y-94346978D01*
X203184051Y-94308503D01*
X203249886Y-94290863D01*
X203249888Y-94290862D01*
X203255196Y-94289440D01*
X203261190Y-94286645D01*
X203451690Y-94197814D01*
X203451695Y-94197811D01*
X203456677Y-94195488D01*
X203558505Y-94124187D01*
X203634270Y-94071136D01*
X203634273Y-94071134D01*
X203638781Y-94067977D01*
X203795977Y-93910781D01*
X203883894Y-93785223D01*
X203920331Y-93733185D01*
X203920332Y-93733183D01*
X203923488Y-93728676D01*
X203925811Y-93723694D01*
X203925814Y-93723689D01*
X203974805Y-93618627D01*
X204021723Y-93565342D01*
X204090000Y-93545881D01*
X204157960Y-93566423D01*
X204203195Y-93618627D01*
X204252186Y-93723689D01*
X204252189Y-93723694D01*
X204254512Y-93728676D01*
X204257668Y-93733183D01*
X204257669Y-93733185D01*
X204294107Y-93785223D01*
X204382023Y-93910781D01*
X204539219Y-94067977D01*
X204543727Y-94071134D01*
X204543730Y-94071136D01*
X204619495Y-94124187D01*
X204721323Y-94195488D01*
X204726305Y-94197811D01*
X204726310Y-94197814D01*
X204916810Y-94286645D01*
X204922804Y-94289440D01*
X204928112Y-94290862D01*
X204928114Y-94290863D01*
X204993949Y-94308503D01*
X205137537Y-94346978D01*
X205359000Y-94366353D01*
X205580463Y-94346978D01*
X205724051Y-94308503D01*
X205789886Y-94290863D01*
X205789888Y-94290862D01*
X205795196Y-94289440D01*
X205801190Y-94286645D01*
X205991690Y-94197814D01*
X205991695Y-94197811D01*
X205996677Y-94195488D01*
X206061959Y-94149777D01*
X207204777Y-94149777D01*
X207214074Y-94161793D01*
X207257069Y-94191898D01*
X207266555Y-94197376D01*
X207457993Y-94286645D01*
X207468285Y-94290391D01*
X207672309Y-94345059D01*
X207683104Y-94346962D01*
X207893525Y-94365372D01*
X207904475Y-94365372D01*
X208114896Y-94346962D01*
X208125691Y-94345059D01*
X208329715Y-94290391D01*
X208340007Y-94286645D01*
X208531445Y-94197376D01*
X208540931Y-94191898D01*
X208584764Y-94161207D01*
X208593139Y-94150729D01*
X208586071Y-94137281D01*
X207911812Y-93463022D01*
X207897868Y-93455408D01*
X207896035Y-93455539D01*
X207889420Y-93459790D01*
X207211207Y-94138003D01*
X207204777Y-94149777D01*
X206061959Y-94149777D01*
X206098505Y-94124187D01*
X206174270Y-94071136D01*
X206174273Y-94071134D01*
X206178781Y-94067977D01*
X206335977Y-93910781D01*
X206423894Y-93785223D01*
X206460331Y-93733185D01*
X206460332Y-93733183D01*
X206463488Y-93728676D01*
X206465811Y-93723694D01*
X206465814Y-93723689D01*
X206515081Y-93618035D01*
X206561999Y-93564750D01*
X206630276Y-93545289D01*
X206698236Y-93565831D01*
X206743471Y-93618035D01*
X206792623Y-93723441D01*
X206798103Y-93732932D01*
X206828794Y-93776765D01*
X206839271Y-93785140D01*
X206852718Y-93778072D01*
X207526978Y-93103812D01*
X207533356Y-93092132D01*
X208263408Y-93092132D01*
X208263539Y-93093965D01*
X208267790Y-93100580D01*
X208946003Y-93778793D01*
X208957777Y-93785223D01*
X208969793Y-93775926D01*
X208999897Y-93732932D01*
X209005377Y-93723441D01*
X209054529Y-93618035D01*
X209101447Y-93564750D01*
X209169724Y-93545289D01*
X209237684Y-93565831D01*
X209282919Y-93618035D01*
X209332186Y-93723689D01*
X209332189Y-93723694D01*
X209334512Y-93728676D01*
X209337668Y-93733183D01*
X209337669Y-93733185D01*
X209374107Y-93785223D01*
X209462023Y-93910781D01*
X209619219Y-94067977D01*
X209623727Y-94071134D01*
X209623730Y-94071136D01*
X209699495Y-94124187D01*
X209801323Y-94195488D01*
X209806305Y-94197811D01*
X209806310Y-94197814D01*
X209996810Y-94286645D01*
X210002804Y-94289440D01*
X210008112Y-94290862D01*
X210008114Y-94290863D01*
X210073949Y-94308503D01*
X210217537Y-94346978D01*
X210439000Y-94366353D01*
X210660463Y-94346978D01*
X210804051Y-94308503D01*
X210869886Y-94290863D01*
X210869888Y-94290862D01*
X210875196Y-94289440D01*
X210881190Y-94286645D01*
X211071690Y-94197814D01*
X211071695Y-94197811D01*
X211076677Y-94195488D01*
X211178505Y-94124187D01*
X211254270Y-94071136D01*
X211254273Y-94071134D01*
X211258781Y-94067977D01*
X211415977Y-93910781D01*
X211503894Y-93785223D01*
X211540331Y-93733185D01*
X211540332Y-93733183D01*
X211543488Y-93728676D01*
X211545811Y-93723694D01*
X211545814Y-93723689D01*
X211635117Y-93532178D01*
X211635118Y-93532177D01*
X211637440Y-93527196D01*
X211694978Y-93312463D01*
X211714353Y-93091000D01*
X211694978Y-92869537D01*
X211637440Y-92654804D01*
X211594805Y-92563373D01*
X211545814Y-92458311D01*
X211545811Y-92458306D01*
X211543488Y-92453324D01*
X211540331Y-92448815D01*
X211419136Y-92275730D01*
X211419134Y-92275727D01*
X211415977Y-92271219D01*
X211258781Y-92114023D01*
X211254273Y-92110866D01*
X211254270Y-92110864D01*
X211178505Y-92057813D01*
X211076677Y-91986512D01*
X211071695Y-91984189D01*
X211071690Y-91984186D01*
X210880178Y-91894883D01*
X210880177Y-91894882D01*
X210875196Y-91892560D01*
X210869888Y-91891138D01*
X210869886Y-91891137D01*
X210804051Y-91873497D01*
X210660463Y-91835022D01*
X210439000Y-91815647D01*
X210217537Y-91835022D01*
X210073949Y-91873497D01*
X210008114Y-91891137D01*
X210008112Y-91891138D01*
X210002804Y-91892560D01*
X209997823Y-91894882D01*
X209997822Y-91894883D01*
X209806311Y-91984186D01*
X209806306Y-91984189D01*
X209801324Y-91986512D01*
X209796817Y-91989668D01*
X209796815Y-91989669D01*
X209623730Y-92110864D01*
X209623727Y-92110866D01*
X209619219Y-92114023D01*
X209462023Y-92271219D01*
X209458866Y-92275727D01*
X209458864Y-92275730D01*
X209337669Y-92448815D01*
X209334512Y-92453324D01*
X209332189Y-92458306D01*
X209332186Y-92458311D01*
X209282919Y-92563965D01*
X209236001Y-92617250D01*
X209167724Y-92636711D01*
X209099764Y-92616169D01*
X209054529Y-92563965D01*
X209005377Y-92458559D01*
X208999897Y-92449068D01*
X208969206Y-92405235D01*
X208958729Y-92396860D01*
X208945282Y-92403928D01*
X208271022Y-93078188D01*
X208263408Y-93092132D01*
X207533356Y-93092132D01*
X207534592Y-93089868D01*
X207534461Y-93088035D01*
X207530210Y-93081420D01*
X206851997Y-92403207D01*
X206840223Y-92396777D01*
X206828207Y-92406074D01*
X206798103Y-92449068D01*
X206792623Y-92458559D01*
X206743471Y-92563965D01*
X206696553Y-92617250D01*
X206628276Y-92636711D01*
X206560316Y-92616169D01*
X206515081Y-92563965D01*
X206465814Y-92458311D01*
X206465811Y-92458306D01*
X206463488Y-92453324D01*
X206460331Y-92448815D01*
X206339136Y-92275730D01*
X206339134Y-92275727D01*
X206335977Y-92271219D01*
X206178781Y-92114023D01*
X206174273Y-92110866D01*
X206174270Y-92110864D01*
X206098505Y-92057813D01*
X206060599Y-92031271D01*
X207204860Y-92031271D01*
X207211928Y-92044718D01*
X207886188Y-92718978D01*
X207900132Y-92726592D01*
X207901965Y-92726461D01*
X207908580Y-92722210D01*
X208586793Y-92043997D01*
X208593223Y-92032223D01*
X208583926Y-92020207D01*
X208540931Y-91990102D01*
X208531445Y-91984624D01*
X208340007Y-91895355D01*
X208329715Y-91891609D01*
X208125691Y-91836941D01*
X208114896Y-91835038D01*
X207904475Y-91816628D01*
X207893525Y-91816628D01*
X207683104Y-91835038D01*
X207672309Y-91836941D01*
X207468285Y-91891609D01*
X207457993Y-91895355D01*
X207266559Y-91984623D01*
X207257068Y-91990103D01*
X207213235Y-92020794D01*
X207204860Y-92031271D01*
X206060599Y-92031271D01*
X205996677Y-91986512D01*
X205991695Y-91984189D01*
X205991690Y-91984186D01*
X205800178Y-91894883D01*
X205800177Y-91894882D01*
X205795196Y-91892560D01*
X205789888Y-91891138D01*
X205789886Y-91891137D01*
X205724051Y-91873497D01*
X205580463Y-91835022D01*
X205359000Y-91815647D01*
X205137537Y-91835022D01*
X204993949Y-91873497D01*
X204928114Y-91891137D01*
X204928112Y-91891138D01*
X204922804Y-91892560D01*
X204917823Y-91894882D01*
X204917822Y-91894883D01*
X204726311Y-91984186D01*
X204726306Y-91984189D01*
X204721324Y-91986512D01*
X204716817Y-91989668D01*
X204716815Y-91989669D01*
X204543730Y-92110864D01*
X204543727Y-92110866D01*
X204539219Y-92114023D01*
X204382023Y-92271219D01*
X204378866Y-92275727D01*
X204378864Y-92275730D01*
X204257669Y-92448815D01*
X204254512Y-92453324D01*
X204252189Y-92458306D01*
X204252186Y-92458311D01*
X204203195Y-92563373D01*
X204156277Y-92616658D01*
X204088000Y-92636119D01*
X204020040Y-92615577D01*
X203974805Y-92563373D01*
X203925814Y-92458311D01*
X203925811Y-92458306D01*
X203923488Y-92453324D01*
X203920331Y-92448815D01*
X203799136Y-92275730D01*
X203799134Y-92275727D01*
X203795977Y-92271219D01*
X203638781Y-92114023D01*
X203634273Y-92110866D01*
X203634270Y-92110864D01*
X203558505Y-92057813D01*
X203456677Y-91986512D01*
X203451695Y-91984189D01*
X203451690Y-91984186D01*
X203260178Y-91894883D01*
X203260177Y-91894882D01*
X203255196Y-91892560D01*
X203249888Y-91891138D01*
X203249886Y-91891137D01*
X203184051Y-91873497D01*
X203040463Y-91835022D01*
X202819000Y-91815647D01*
X202597537Y-91835022D01*
X202453949Y-91873497D01*
X202388114Y-91891137D01*
X202388112Y-91891138D01*
X202382804Y-91892560D01*
X202377823Y-91894882D01*
X202377822Y-91894883D01*
X202186311Y-91984186D01*
X202186306Y-91984189D01*
X202181324Y-91986512D01*
X202176817Y-91989668D01*
X202176815Y-91989669D01*
X202003730Y-92110864D01*
X202003727Y-92110866D01*
X201999219Y-92114023D01*
X201842023Y-92271219D01*
X201838866Y-92275727D01*
X201838864Y-92275730D01*
X201717669Y-92448815D01*
X201714512Y-92453324D01*
X201712189Y-92458306D01*
X201712186Y-92458311D01*
X201663195Y-92563373D01*
X201616277Y-92616658D01*
X201548000Y-92636119D01*
X201480040Y-92615577D01*
X201434805Y-92563373D01*
X201385814Y-92458311D01*
X201385811Y-92458306D01*
X201383488Y-92453324D01*
X201380331Y-92448815D01*
X201259136Y-92275730D01*
X201259134Y-92275727D01*
X201255977Y-92271219D01*
X201098781Y-92114023D01*
X201094273Y-92110866D01*
X201094270Y-92110864D01*
X201018505Y-92057813D01*
X200916677Y-91986512D01*
X200911695Y-91984189D01*
X200911690Y-91984186D01*
X200720178Y-91894883D01*
X200720177Y-91894882D01*
X200715196Y-91892560D01*
X200709888Y-91891138D01*
X200709886Y-91891137D01*
X200644051Y-91873497D01*
X200500463Y-91835022D01*
X200279000Y-91815647D01*
X200057537Y-91835022D01*
X199913949Y-91873497D01*
X199848114Y-91891137D01*
X199848112Y-91891138D01*
X199842804Y-91892560D01*
X199837823Y-91894882D01*
X199837822Y-91894883D01*
X199646311Y-91984186D01*
X199646306Y-91984189D01*
X199641324Y-91986512D01*
X199636817Y-91989668D01*
X199636815Y-91989669D01*
X199463730Y-92110864D01*
X199463727Y-92110866D01*
X199459219Y-92114023D01*
X199302023Y-92271219D01*
X199298866Y-92275727D01*
X199298864Y-92275730D01*
X199177669Y-92448815D01*
X199174512Y-92453324D01*
X199172189Y-92458306D01*
X199172186Y-92458311D01*
X199123195Y-92563373D01*
X199076277Y-92616658D01*
X199008000Y-92636119D01*
X198940040Y-92615577D01*
X198894805Y-92563373D01*
X198845814Y-92458311D01*
X198845811Y-92458306D01*
X198843488Y-92453324D01*
X198840331Y-92448815D01*
X198719136Y-92275730D01*
X198719134Y-92275727D01*
X198715977Y-92271219D01*
X198558781Y-92114023D01*
X198554273Y-92110866D01*
X198554270Y-92110864D01*
X198478505Y-92057813D01*
X198376677Y-91986512D01*
X198371695Y-91984189D01*
X198371690Y-91984186D01*
X198180178Y-91894883D01*
X198180177Y-91894882D01*
X198175196Y-91892560D01*
X198169888Y-91891138D01*
X198169886Y-91891137D01*
X198104051Y-91873497D01*
X197960463Y-91835022D01*
X197739000Y-91815647D01*
X197517537Y-91835022D01*
X197373949Y-91873497D01*
X197308114Y-91891137D01*
X197308112Y-91891138D01*
X197302804Y-91892560D01*
X197297823Y-91894882D01*
X197297822Y-91894883D01*
X197106311Y-91984186D01*
X197106306Y-91984189D01*
X197101324Y-91986512D01*
X197096817Y-91989668D01*
X197096815Y-91989669D01*
X196923730Y-92110864D01*
X196923727Y-92110866D01*
X196919219Y-92114023D01*
X196762023Y-92271219D01*
X196758866Y-92275727D01*
X196758864Y-92275730D01*
X196637669Y-92448815D01*
X196634512Y-92453324D01*
X196632189Y-92458306D01*
X196632186Y-92458311D01*
X196583195Y-92563373D01*
X196536277Y-92616658D01*
X196468000Y-92636119D01*
X196400040Y-92615577D01*
X196354805Y-92563373D01*
X196305814Y-92458311D01*
X196305811Y-92458306D01*
X196303488Y-92453324D01*
X196300331Y-92448815D01*
X196179136Y-92275730D01*
X196179134Y-92275727D01*
X196175977Y-92271219D01*
X196018781Y-92114023D01*
X196014273Y-92110866D01*
X196014270Y-92110864D01*
X195938505Y-92057813D01*
X195836677Y-91986512D01*
X195831695Y-91984189D01*
X195831690Y-91984186D01*
X195640178Y-91894883D01*
X195640177Y-91894882D01*
X195635196Y-91892560D01*
X195629888Y-91891138D01*
X195629886Y-91891137D01*
X195564051Y-91873497D01*
X195420463Y-91835022D01*
X195199000Y-91815647D01*
X194977537Y-91835022D01*
X194833949Y-91873497D01*
X194768114Y-91891137D01*
X194768112Y-91891138D01*
X194762804Y-91892560D01*
X194757823Y-91894882D01*
X194757822Y-91894883D01*
X194566311Y-91984186D01*
X194566306Y-91984189D01*
X194561324Y-91986512D01*
X194556817Y-91989668D01*
X194556815Y-91989669D01*
X194383730Y-92110864D01*
X194383727Y-92110866D01*
X194379219Y-92114023D01*
X194222023Y-92271219D01*
X194218866Y-92275727D01*
X194218864Y-92275730D01*
X194097669Y-92448815D01*
X194094512Y-92453324D01*
X194092189Y-92458306D01*
X194092186Y-92458311D01*
X194043195Y-92563373D01*
X193996277Y-92616658D01*
X193928000Y-92636119D01*
X193860040Y-92615577D01*
X193814805Y-92563373D01*
X193765814Y-92458311D01*
X193765811Y-92458306D01*
X193763488Y-92453324D01*
X193760331Y-92448815D01*
X193639136Y-92275730D01*
X193639134Y-92275727D01*
X193635977Y-92271219D01*
X193478781Y-92114023D01*
X193474273Y-92110866D01*
X193474270Y-92110864D01*
X193398505Y-92057813D01*
X193296677Y-91986512D01*
X193291695Y-91984189D01*
X193291690Y-91984186D01*
X193100178Y-91894883D01*
X193100177Y-91894882D01*
X193095196Y-91892560D01*
X193089888Y-91891138D01*
X193089886Y-91891137D01*
X193024051Y-91873497D01*
X192880463Y-91835022D01*
X192659000Y-91815647D01*
X192437537Y-91835022D01*
X192293949Y-91873497D01*
X192228114Y-91891137D01*
X192228112Y-91891138D01*
X192222804Y-91892560D01*
X192217823Y-91894882D01*
X192217822Y-91894883D01*
X192026311Y-91984186D01*
X192026306Y-91984189D01*
X192021324Y-91986512D01*
X192016817Y-91989668D01*
X192016815Y-91989669D01*
X191843730Y-92110864D01*
X191843727Y-92110866D01*
X191839219Y-92114023D01*
X191682023Y-92271219D01*
X191678866Y-92275727D01*
X191678864Y-92275730D01*
X191557669Y-92448815D01*
X191554512Y-92453324D01*
X191552189Y-92458306D01*
X191552186Y-92458311D01*
X191503195Y-92563373D01*
X191460560Y-92654804D01*
X191403022Y-92869537D01*
X191383647Y-93091000D01*
X157353000Y-93091000D01*
X157353000Y-74877941D01*
X157373002Y-74809820D01*
X157426658Y-74763327D01*
X157496932Y-74753223D01*
X157511611Y-74756234D01*
X157652998Y-74794119D01*
X157653000Y-74794119D01*
X157658313Y-74795543D01*
X157886400Y-74815498D01*
X158114487Y-74795543D01*
X158119800Y-74794119D01*
X158119802Y-74794119D01*
X158330333Y-74737707D01*
X158330335Y-74737706D01*
X158335643Y-74736284D01*
X158341635Y-74733490D01*
X158538162Y-74641849D01*
X158538167Y-74641846D01*
X158543149Y-74639523D01*
X158648629Y-74565665D01*
X158726189Y-74511357D01*
X158726192Y-74511355D01*
X158730700Y-74508198D01*
X158892598Y-74346300D01*
X159023923Y-74158749D01*
X159026246Y-74153767D01*
X159026249Y-74153762D01*
X159042205Y-74119543D01*
X159089122Y-74066258D01*
X159157399Y-74046797D01*
X159225359Y-74067339D01*
X159270595Y-74119543D01*
X159286551Y-74153762D01*
X159286554Y-74153767D01*
X159288877Y-74158749D01*
X159420202Y-74346300D01*
X159582100Y-74508198D01*
X159586608Y-74511355D01*
X159586611Y-74511357D01*
X159664171Y-74565665D01*
X159708499Y-74621122D01*
X159717900Y-74668878D01*
X159717900Y-82673488D01*
X159717608Y-82682058D01*
X159713675Y-82739752D01*
X159714980Y-82747229D01*
X159714980Y-82747230D01*
X159724661Y-82802699D01*
X159725623Y-82809221D01*
X159733298Y-82872642D01*
X159735981Y-82879743D01*
X159736622Y-82882352D01*
X159741085Y-82898662D01*
X159741850Y-82901198D01*
X159743157Y-82908684D01*
X159746211Y-82915641D01*
X159768842Y-82967195D01*
X159771333Y-82973299D01*
X159793913Y-83033056D01*
X159798217Y-83039319D01*
X159799454Y-83041685D01*
X159807699Y-83056497D01*
X159809032Y-83058751D01*
X159812085Y-83065705D01*
X159816707Y-83071728D01*
X159850979Y-83116391D01*
X159854859Y-83121732D01*
X159886739Y-83168120D01*
X159886744Y-83168125D01*
X159891043Y-83174381D01*
X159896713Y-83179432D01*
X159896714Y-83179434D01*
X159937570Y-83215835D01*
X159942846Y-83220816D01*
X160514550Y-83792520D01*
X160520404Y-83798785D01*
X160558439Y-83842385D01*
X160564657Y-83846755D01*
X160610697Y-83879112D01*
X160615993Y-83883045D01*
X160666282Y-83922477D01*
X160673204Y-83925602D01*
X160675452Y-83926964D01*
X160690185Y-83935368D01*
X160692524Y-83936622D01*
X160698739Y-83940990D01*
X160705815Y-83943749D01*
X160705819Y-83943751D01*
X160758274Y-83964202D01*
X160764352Y-83966757D01*
X160822574Y-83993045D01*
X160830045Y-83994429D01*
X160832599Y-83995230D01*
X160848878Y-83999867D01*
X160851433Y-84000523D01*
X160858509Y-84003282D01*
X160879262Y-84006014D01*
X160921851Y-84011621D01*
X160928367Y-84012653D01*
X160981865Y-84022568D01*
X160991187Y-84024296D01*
X160998767Y-84023859D01*
X160998768Y-84023859D01*
X161053398Y-84020709D01*
X161060651Y-84020500D01*
X175993088Y-84020500D01*
X176001658Y-84020792D01*
X176051776Y-84024209D01*
X176051780Y-84024209D01*
X176059352Y-84024725D01*
X176066829Y-84023420D01*
X176066830Y-84023420D01*
X176093308Y-84018799D01*
X176122303Y-84013738D01*
X176128821Y-84012777D01*
X176192242Y-84005102D01*
X176199343Y-84002419D01*
X176201952Y-84001778D01*
X176218262Y-83997315D01*
X176220798Y-83996550D01*
X176228284Y-83995243D01*
X176286800Y-83969556D01*
X176292904Y-83967065D01*
X176293717Y-83966758D01*
X176352656Y-83944487D01*
X176358919Y-83940183D01*
X176361285Y-83938946D01*
X176376097Y-83930701D01*
X176378351Y-83929368D01*
X176385305Y-83926315D01*
X176436002Y-83887413D01*
X176441332Y-83883541D01*
X176487720Y-83851661D01*
X176487725Y-83851656D01*
X176493981Y-83847357D01*
X176535436Y-83800829D01*
X176540416Y-83795554D01*
X187962566Y-72373405D01*
X188024878Y-72339379D01*
X188051661Y-72336500D01*
X209521088Y-72336500D01*
X209529658Y-72336792D01*
X209579776Y-72340209D01*
X209579780Y-72340209D01*
X209587352Y-72340725D01*
X209594829Y-72339420D01*
X209594830Y-72339420D01*
X209621308Y-72334799D01*
X209650303Y-72329738D01*
X209656821Y-72328777D01*
X209720242Y-72321102D01*
X209727343Y-72318419D01*
X209729952Y-72317778D01*
X209746262Y-72313315D01*
X209748798Y-72312550D01*
X209756284Y-72311243D01*
X209814800Y-72285556D01*
X209820904Y-72283065D01*
X209873548Y-72263173D01*
X209873549Y-72263172D01*
X209880656Y-72260487D01*
X209886919Y-72256183D01*
X209889285Y-72254946D01*
X209904097Y-72246701D01*
X209906351Y-72245368D01*
X209913305Y-72242315D01*
X209964002Y-72203413D01*
X209969332Y-72199541D01*
X210015720Y-72167661D01*
X210015725Y-72167656D01*
X210021981Y-72163357D01*
X210063436Y-72116829D01*
X210068416Y-72111554D01*
X213877202Y-68302769D01*
X213940100Y-68268617D01*
X213992773Y-68257421D01*
X214092956Y-68236126D01*
X214098983Y-68233443D01*
X214098991Y-68233440D01*
X214252252Y-68165204D01*
X214322619Y-68155770D01*
X214386916Y-68185877D01*
X214424729Y-68245966D01*
X214429500Y-68280311D01*
X214429500Y-73631088D01*
X214429208Y-73639658D01*
X214425275Y-73697352D01*
X214426580Y-73704829D01*
X214426580Y-73704830D01*
X214436261Y-73760299D01*
X214437223Y-73766821D01*
X214444898Y-73830242D01*
X214447581Y-73837343D01*
X214448222Y-73839952D01*
X214452685Y-73856262D01*
X214453450Y-73858798D01*
X214454757Y-73866284D01*
X214457811Y-73873241D01*
X214480442Y-73924795D01*
X214482933Y-73930899D01*
X214505513Y-73990656D01*
X214509817Y-73996919D01*
X214511054Y-73999285D01*
X214519299Y-74014097D01*
X214520632Y-74016351D01*
X214523685Y-74023305D01*
X214557475Y-74067339D01*
X214562579Y-74073991D01*
X214566459Y-74079332D01*
X214598339Y-74125720D01*
X214598344Y-74125725D01*
X214602643Y-74131981D01*
X214608313Y-74137032D01*
X214608314Y-74137034D01*
X214649170Y-74173435D01*
X214654446Y-74178416D01*
X216710595Y-76234565D01*
X216744621Y-76296877D01*
X216747500Y-76323660D01*
X216747500Y-103114512D01*
X216727498Y-103182633D01*
X216693770Y-103217725D01*
X216640735Y-103254860D01*
X216640729Y-103254865D01*
X216636219Y-103258023D01*
X216479023Y-103415219D01*
X216475866Y-103419727D01*
X216475864Y-103419730D01*
X216354669Y-103592815D01*
X216351512Y-103597324D01*
X216349189Y-103602306D01*
X216349186Y-103602311D01*
X216267798Y-103776848D01*
X216257560Y-103798804D01*
X216200022Y-104013537D01*
X216180647Y-104235000D01*
X216200022Y-104456463D01*
X216257560Y-104671196D01*
X216259882Y-104676177D01*
X216259883Y-104676178D01*
X216349186Y-104867689D01*
X216349189Y-104867694D01*
X216351512Y-104872676D01*
X216354668Y-104877183D01*
X216354669Y-104877185D01*
X216391107Y-104929223D01*
X216479023Y-105054781D01*
X216636219Y-105211977D01*
X216640727Y-105215134D01*
X216640730Y-105215136D01*
X216716495Y-105268187D01*
X216818323Y-105339488D01*
X216823305Y-105341811D01*
X216823310Y-105341814D01*
X217013810Y-105430645D01*
X217019804Y-105433440D01*
X217025112Y-105434862D01*
X217025114Y-105434863D01*
X217090949Y-105452503D01*
X217234537Y-105490978D01*
X217456000Y-105510353D01*
X217677463Y-105490978D01*
X217821051Y-105452503D01*
X217886886Y-105434863D01*
X217886888Y-105434862D01*
X217892196Y-105433440D01*
X217898190Y-105430645D01*
X218088690Y-105341814D01*
X218088695Y-105341811D01*
X218093677Y-105339488D01*
X218158959Y-105293777D01*
X223873777Y-105293777D01*
X223883074Y-105305793D01*
X223926069Y-105335898D01*
X223935555Y-105341376D01*
X224126993Y-105430645D01*
X224137285Y-105434391D01*
X224341309Y-105489059D01*
X224352104Y-105490962D01*
X224562525Y-105509372D01*
X224573475Y-105509372D01*
X224783896Y-105490962D01*
X224794691Y-105489059D01*
X224998715Y-105434391D01*
X225009007Y-105430645D01*
X225200445Y-105341376D01*
X225209931Y-105335898D01*
X225253764Y-105305207D01*
X225262139Y-105294729D01*
X225255071Y-105281281D01*
X224580812Y-104607022D01*
X224566868Y-104599408D01*
X224565035Y-104599539D01*
X224558420Y-104603790D01*
X223880207Y-105282003D01*
X223873777Y-105293777D01*
X218158959Y-105293777D01*
X218195505Y-105268187D01*
X218271270Y-105215136D01*
X218271273Y-105215134D01*
X218275781Y-105211977D01*
X218432977Y-105054781D01*
X218520894Y-104929223D01*
X218557331Y-104877185D01*
X218557332Y-104877183D01*
X218560488Y-104872676D01*
X218562811Y-104867694D01*
X218562814Y-104867689D01*
X218652117Y-104676178D01*
X218652118Y-104676177D01*
X218654440Y-104671196D01*
X218711978Y-104456463D01*
X218730874Y-104240475D01*
X223293628Y-104240475D01*
X223312038Y-104450896D01*
X223313941Y-104461691D01*
X223368609Y-104665715D01*
X223372355Y-104676007D01*
X223461623Y-104867441D01*
X223467103Y-104876932D01*
X223497794Y-104920765D01*
X223508271Y-104929140D01*
X223521718Y-104922072D01*
X224195978Y-104247812D01*
X224202356Y-104236132D01*
X224932408Y-104236132D01*
X224932539Y-104237965D01*
X224936790Y-104244580D01*
X225615003Y-104922793D01*
X225626777Y-104929223D01*
X225638793Y-104919926D01*
X225668897Y-104876932D01*
X225674377Y-104867441D01*
X225763645Y-104676007D01*
X225767391Y-104665715D01*
X225822059Y-104461691D01*
X225823962Y-104450896D01*
X225842372Y-104240475D01*
X225842372Y-104229525D01*
X225823962Y-104019104D01*
X225822059Y-104008309D01*
X225767391Y-103804285D01*
X225763645Y-103793993D01*
X225674377Y-103602559D01*
X225668897Y-103593068D01*
X225638206Y-103549235D01*
X225627729Y-103540860D01*
X225614282Y-103547928D01*
X224940022Y-104222188D01*
X224932408Y-104236132D01*
X224202356Y-104236132D01*
X224203592Y-104233868D01*
X224203461Y-104232035D01*
X224199210Y-104225420D01*
X223520997Y-103547207D01*
X223509223Y-103540777D01*
X223497207Y-103550074D01*
X223467103Y-103593068D01*
X223461623Y-103602559D01*
X223372355Y-103793993D01*
X223368609Y-103804285D01*
X223313941Y-104008309D01*
X223312038Y-104019104D01*
X223293628Y-104229525D01*
X223293628Y-104240475D01*
X218730874Y-104240475D01*
X218731353Y-104235000D01*
X218711978Y-104013537D01*
X218654440Y-103798804D01*
X218644202Y-103776848D01*
X218562814Y-103602311D01*
X218562811Y-103602306D01*
X218560488Y-103597324D01*
X218557331Y-103592815D01*
X218436136Y-103419730D01*
X218436134Y-103419727D01*
X218432977Y-103415219D01*
X218275781Y-103258023D01*
X218271271Y-103254865D01*
X218271265Y-103254860D01*
X218218230Y-103217725D01*
X218184295Y-103175271D01*
X223873860Y-103175271D01*
X223880928Y-103188718D01*
X224555188Y-103862978D01*
X224569132Y-103870592D01*
X224570965Y-103870461D01*
X224577580Y-103866210D01*
X225255793Y-103187997D01*
X225262223Y-103176223D01*
X225252926Y-103164207D01*
X225209931Y-103134102D01*
X225200445Y-103128624D01*
X225009007Y-103039355D01*
X224998715Y-103035609D01*
X224794691Y-102980941D01*
X224783896Y-102979038D01*
X224573475Y-102960628D01*
X224562525Y-102960628D01*
X224352104Y-102979038D01*
X224341309Y-102980941D01*
X224137285Y-103035609D01*
X224126993Y-103039355D01*
X223935559Y-103128623D01*
X223926068Y-103134103D01*
X223882235Y-103164794D01*
X223873860Y-103175271D01*
X218184295Y-103175271D01*
X218173901Y-103162268D01*
X218164500Y-103114512D01*
X218164500Y-76006912D01*
X218164792Y-75998342D01*
X218168209Y-75948224D01*
X218168209Y-75948220D01*
X218168725Y-75940648D01*
X218157738Y-75877697D01*
X218156776Y-75871175D01*
X218150014Y-75815298D01*
X218149102Y-75807758D01*
X218146419Y-75800657D01*
X218145778Y-75798048D01*
X218141315Y-75781738D01*
X218140550Y-75779202D01*
X218139243Y-75771716D01*
X218113556Y-75713200D01*
X218111065Y-75707096D01*
X218091173Y-75654452D01*
X218091172Y-75654451D01*
X218088487Y-75647344D01*
X218084183Y-75641081D01*
X218082946Y-75638715D01*
X218074701Y-75623903D01*
X218073368Y-75621649D01*
X218070315Y-75614695D01*
X218031413Y-75563998D01*
X218027541Y-75558668D01*
X217995661Y-75512280D01*
X217995656Y-75512275D01*
X217991357Y-75506019D01*
X217944829Y-75464564D01*
X217939554Y-75459584D01*
X215883405Y-73403435D01*
X215849379Y-73341123D01*
X215846500Y-73314340D01*
X215846500Y-68054660D01*
X215866502Y-67986539D01*
X215920158Y-67940046D01*
X215990432Y-67929942D01*
X216055012Y-67959436D01*
X216061595Y-67965565D01*
X217218595Y-69122565D01*
X217252621Y-69184877D01*
X217255500Y-69211660D01*
X217255500Y-71618512D01*
X217235498Y-71686633D01*
X217201770Y-71721725D01*
X217148735Y-71758860D01*
X217148729Y-71758865D01*
X217144219Y-71762023D01*
X216987023Y-71919219D01*
X216983866Y-71923727D01*
X216983864Y-71923730D01*
X216862669Y-72096815D01*
X216859512Y-72101324D01*
X216857189Y-72106306D01*
X216857186Y-72106311D01*
X216786592Y-72257700D01*
X216765560Y-72302804D01*
X216764138Y-72308112D01*
X216764137Y-72308114D01*
X216762434Y-72314470D01*
X216708022Y-72517537D01*
X216688647Y-72739000D01*
X216708022Y-72960463D01*
X216765560Y-73175196D01*
X216767882Y-73180177D01*
X216767883Y-73180178D01*
X216857186Y-73371689D01*
X216857189Y-73371694D01*
X216859512Y-73376676D01*
X216862668Y-73381183D01*
X216862669Y-73381185D01*
X216899107Y-73433223D01*
X216987023Y-73558781D01*
X217144219Y-73715977D01*
X217148727Y-73719134D01*
X217148730Y-73719136D01*
X217216837Y-73766825D01*
X217326323Y-73843488D01*
X217331305Y-73845811D01*
X217331310Y-73845814D01*
X217507165Y-73927816D01*
X217527804Y-73937440D01*
X217533112Y-73938862D01*
X217533114Y-73938863D01*
X217559500Y-73945933D01*
X217742537Y-73994978D01*
X217964000Y-74014353D01*
X218185463Y-73994978D01*
X218368500Y-73945933D01*
X218394886Y-73938863D01*
X218394888Y-73938862D01*
X218400196Y-73937440D01*
X218420835Y-73927816D01*
X218596690Y-73845814D01*
X218596695Y-73845811D01*
X218601677Y-73843488D01*
X218666959Y-73797777D01*
X223365777Y-73797777D01*
X223375074Y-73809793D01*
X223418069Y-73839898D01*
X223427555Y-73845376D01*
X223618993Y-73934645D01*
X223629285Y-73938391D01*
X223833309Y-73993059D01*
X223844104Y-73994962D01*
X224054525Y-74013372D01*
X224065475Y-74013372D01*
X224275896Y-73994962D01*
X224286691Y-73993059D01*
X224490715Y-73938391D01*
X224501007Y-73934645D01*
X224692445Y-73845376D01*
X224701931Y-73839898D01*
X224745764Y-73809207D01*
X224754139Y-73798729D01*
X224747071Y-73785281D01*
X224072812Y-73111022D01*
X224058868Y-73103408D01*
X224057035Y-73103539D01*
X224050420Y-73107790D01*
X223372207Y-73786003D01*
X223365777Y-73797777D01*
X218666959Y-73797777D01*
X218711163Y-73766825D01*
X218779270Y-73719136D01*
X218779273Y-73719134D01*
X218783781Y-73715977D01*
X218940977Y-73558781D01*
X219028894Y-73433223D01*
X219065331Y-73381185D01*
X219065332Y-73381183D01*
X219068488Y-73376676D01*
X219070811Y-73371694D01*
X219070814Y-73371689D01*
X219160117Y-73180178D01*
X219160118Y-73180177D01*
X219162440Y-73175196D01*
X219219978Y-72960463D01*
X219238874Y-72744475D01*
X222785628Y-72744475D01*
X222804038Y-72954896D01*
X222805941Y-72965691D01*
X222860609Y-73169715D01*
X222864355Y-73180007D01*
X222953623Y-73371441D01*
X222959103Y-73380932D01*
X222989794Y-73424765D01*
X223000271Y-73433140D01*
X223013718Y-73426072D01*
X223687978Y-72751812D01*
X223694356Y-72740132D01*
X224424408Y-72740132D01*
X224424539Y-72741965D01*
X224428790Y-72748580D01*
X225107003Y-73426793D01*
X225118777Y-73433223D01*
X225130793Y-73423926D01*
X225160897Y-73380932D01*
X225166377Y-73371441D01*
X225255645Y-73180007D01*
X225259391Y-73169715D01*
X225314059Y-72965691D01*
X225315962Y-72954896D01*
X225334372Y-72744475D01*
X225334372Y-72733525D01*
X225315962Y-72523104D01*
X225314059Y-72512309D01*
X225259391Y-72308285D01*
X225255645Y-72297993D01*
X225166377Y-72106559D01*
X225160897Y-72097068D01*
X225130206Y-72053235D01*
X225119729Y-72044860D01*
X225106282Y-72051928D01*
X224432022Y-72726188D01*
X224424408Y-72740132D01*
X223694356Y-72740132D01*
X223695592Y-72737868D01*
X223695461Y-72736035D01*
X223691210Y-72729420D01*
X223012997Y-72051207D01*
X223001223Y-72044777D01*
X222989207Y-72054074D01*
X222959103Y-72097068D01*
X222953623Y-72106559D01*
X222864355Y-72297993D01*
X222860609Y-72308285D01*
X222805941Y-72512309D01*
X222804038Y-72523104D01*
X222785628Y-72733525D01*
X222785628Y-72744475D01*
X219238874Y-72744475D01*
X219239353Y-72739000D01*
X219219978Y-72517537D01*
X219165566Y-72314470D01*
X219163863Y-72308114D01*
X219163862Y-72308112D01*
X219162440Y-72302804D01*
X219141408Y-72257700D01*
X219070814Y-72106311D01*
X219070811Y-72106306D01*
X219068488Y-72101324D01*
X219065331Y-72096815D01*
X218944136Y-71923730D01*
X218944134Y-71923727D01*
X218940977Y-71919219D01*
X218783781Y-71762023D01*
X218779271Y-71758865D01*
X218779265Y-71758860D01*
X218726230Y-71721725D01*
X218692295Y-71679271D01*
X223365860Y-71679271D01*
X223372928Y-71692718D01*
X224047188Y-72366978D01*
X224061132Y-72374592D01*
X224062965Y-72374461D01*
X224069580Y-72370210D01*
X224747793Y-71691997D01*
X224754223Y-71680223D01*
X224744926Y-71668207D01*
X224701931Y-71638102D01*
X224692445Y-71632624D01*
X224501007Y-71543355D01*
X224490715Y-71539609D01*
X224286691Y-71484941D01*
X224275896Y-71483038D01*
X224065475Y-71464628D01*
X224054525Y-71464628D01*
X223844104Y-71483038D01*
X223833309Y-71484941D01*
X223629285Y-71539609D01*
X223618993Y-71543355D01*
X223427559Y-71632623D01*
X223418068Y-71638103D01*
X223374235Y-71668794D01*
X223365860Y-71679271D01*
X218692295Y-71679271D01*
X218681901Y-71666268D01*
X218672500Y-71618512D01*
X218672500Y-68894927D01*
X218672792Y-68886358D01*
X218676210Y-68836225D01*
X218676210Y-68836221D01*
X218676726Y-68828648D01*
X218665736Y-68765681D01*
X218664775Y-68759165D01*
X218660120Y-68720699D01*
X218657102Y-68695758D01*
X218654419Y-68688657D01*
X218653778Y-68686048D01*
X218649309Y-68669715D01*
X218648548Y-68667195D01*
X218647243Y-68659717D01*
X218636827Y-68635988D01*
X218621559Y-68601204D01*
X218619068Y-68595099D01*
X218599175Y-68542456D01*
X218599173Y-68542452D01*
X218596487Y-68535344D01*
X218592184Y-68529083D01*
X218590947Y-68526717D01*
X218582720Y-68511937D01*
X218581369Y-68509652D01*
X218578315Y-68502695D01*
X218573695Y-68496675D01*
X218573692Y-68496669D01*
X218539421Y-68452009D01*
X218535541Y-68446668D01*
X218503661Y-68400280D01*
X218503656Y-68400275D01*
X218499357Y-68394019D01*
X218486007Y-68382124D01*
X218452830Y-68352565D01*
X218447554Y-68347584D01*
X212581450Y-62481480D01*
X212575596Y-62475215D01*
X212558951Y-62456135D01*
X212537561Y-62431615D01*
X212485280Y-62394871D01*
X212479986Y-62390939D01*
X212435693Y-62356209D01*
X212429718Y-62351524D01*
X212422802Y-62348401D01*
X212420516Y-62347017D01*
X212405835Y-62338643D01*
X212403475Y-62337378D01*
X212397261Y-62333010D01*
X212390182Y-62330250D01*
X212390180Y-62330249D01*
X212337725Y-62309798D01*
X212331656Y-62307247D01*
X212273427Y-62280955D01*
X212265960Y-62279571D01*
X212263405Y-62278770D01*
X212247152Y-62274141D01*
X212244572Y-62273478D01*
X212237491Y-62270718D01*
X212229960Y-62269727D01*
X212229958Y-62269726D01*
X212200339Y-62265827D01*
X212174139Y-62262378D01*
X212167641Y-62261348D01*
X212104814Y-62249704D01*
X212097234Y-62250141D01*
X212097233Y-62250141D01*
X212042608Y-62253291D01*
X212035354Y-62253500D01*
X204353903Y-62253500D01*
X204285782Y-62233498D01*
X204270496Y-62221942D01*
X204197758Y-62157703D01*
X204194403Y-62154740D01*
X204168204Y-62137530D01*
X204076414Y-62077236D01*
X204072666Y-62074774D01*
X204068609Y-62072869D01*
X204068605Y-62072867D01*
X203947076Y-62015809D01*
X203943021Y-62013905D01*
X203938738Y-62012596D01*
X203938734Y-62012594D01*
X203808011Y-61972628D01*
X203803723Y-61971317D01*
X203799300Y-61970628D01*
X203799294Y-61970627D01*
X203739432Y-61961307D01*
X203662205Y-61949283D01*
X203657738Y-61949228D01*
X203657733Y-61949228D01*
X203584169Y-61948329D01*
X203516562Y-61947503D01*
X203512277Y-61948063D01*
X203505240Y-61948271D01*
X203115953Y-61948271D01*
X203115953Y-61948273D01*
X203112986Y-61948682D01*
X203016562Y-61947504D01*
X203012120Y-61948085D01*
X203012117Y-61948085D01*
X202878998Y-61965492D01*
X202878996Y-61965492D01*
X202874548Y-61966074D01*
X202734252Y-62005245D01*
X202603159Y-62062928D01*
X202528045Y-62109683D01*
X202483306Y-62137530D01*
X202483302Y-62137533D01*
X202479504Y-62139897D01*
X202476076Y-62142779D01*
X202476074Y-62142780D01*
X202379509Y-62223951D01*
X202314493Y-62252472D01*
X202298434Y-62253500D01*
X187843903Y-62253500D01*
X187775782Y-62233498D01*
X187760496Y-62221942D01*
X187687758Y-62157703D01*
X187684403Y-62154740D01*
X187658204Y-62137530D01*
X187566414Y-62077236D01*
X187562666Y-62074774D01*
X187558609Y-62072869D01*
X187558605Y-62072867D01*
X187437076Y-62015809D01*
X187433021Y-62013905D01*
X187428738Y-62012596D01*
X187428734Y-62012594D01*
X187298011Y-61972628D01*
X187293723Y-61971317D01*
X187289300Y-61970628D01*
X187289294Y-61970627D01*
X187229432Y-61961307D01*
X187152205Y-61949283D01*
X187147738Y-61949228D01*
X187147733Y-61949228D01*
X187074169Y-61948329D01*
X187006562Y-61947503D01*
X187002277Y-61948063D01*
X186995240Y-61948271D01*
X186605953Y-61948271D01*
X186605953Y-61948273D01*
X186602986Y-61948682D01*
X186506562Y-61947504D01*
X186502120Y-61948085D01*
X186502117Y-61948085D01*
X186368998Y-61965492D01*
X186368996Y-61965492D01*
X186364548Y-61966074D01*
X186224252Y-62005245D01*
X186093159Y-62062928D01*
X186018045Y-62109683D01*
X185973306Y-62137530D01*
X185973302Y-62137533D01*
X185969504Y-62139897D01*
X185966076Y-62142779D01*
X185966074Y-62142780D01*
X185869509Y-62223951D01*
X185804493Y-62252472D01*
X185788434Y-62253500D01*
X173194009Y-62253500D01*
X173125888Y-62233498D01*
X173100373Y-62211811D01*
X173081668Y-62191037D01*
X173081666Y-62191036D01*
X173077253Y-62186134D01*
X173017582Y-62142780D01*
X172928094Y-62077763D01*
X172928093Y-62077762D01*
X172922752Y-62073882D01*
X172916724Y-62071198D01*
X172916722Y-62071197D01*
X172754319Y-61998891D01*
X172754318Y-61998891D01*
X172748288Y-61996206D01*
X172637363Y-61972628D01*
X172567944Y-61957872D01*
X172567939Y-61957872D01*
X172561487Y-61956500D01*
X172370513Y-61956500D01*
X172364061Y-61957872D01*
X172364056Y-61957872D01*
X172294637Y-61972628D01*
X172183712Y-61996206D01*
X172177682Y-61998891D01*
X172177681Y-61998891D01*
X172015278Y-62071197D01*
X172015276Y-62071198D01*
X172009248Y-62073882D01*
X172003907Y-62077762D01*
X172003906Y-62077763D01*
X171914418Y-62142780D01*
X171854747Y-62186134D01*
X171850334Y-62191036D01*
X171850332Y-62191037D01*
X171831627Y-62211811D01*
X171771180Y-62249050D01*
X171737991Y-62253500D01*
X171333903Y-62253500D01*
X171265782Y-62233498D01*
X171250496Y-62221942D01*
X171177758Y-62157703D01*
X171174403Y-62154740D01*
X171148204Y-62137530D01*
X171056414Y-62077236D01*
X171052666Y-62074774D01*
X171048609Y-62072869D01*
X171048605Y-62072867D01*
X170927076Y-62015809D01*
X170923021Y-62013905D01*
X170918738Y-62012596D01*
X170918734Y-62012594D01*
X170788011Y-61972628D01*
X170783723Y-61971317D01*
X170779300Y-61970628D01*
X170779294Y-61970627D01*
X170719432Y-61961307D01*
X170642205Y-61949283D01*
X170637738Y-61949228D01*
X170637733Y-61949228D01*
X170564169Y-61948329D01*
X170496562Y-61947503D01*
X170492277Y-61948063D01*
X170485240Y-61948271D01*
X170095953Y-61948271D01*
X170095953Y-61948273D01*
X170092986Y-61948682D01*
X169996562Y-61947504D01*
X169992120Y-61948085D01*
X169992117Y-61948085D01*
X169858998Y-61965492D01*
X169858996Y-61965492D01*
X169854548Y-61966074D01*
X169714252Y-62005245D01*
X169583159Y-62062928D01*
X169508045Y-62109683D01*
X169463306Y-62137530D01*
X169463302Y-62137533D01*
X169459504Y-62139897D01*
X169456076Y-62142779D01*
X169456074Y-62142780D01*
X169404498Y-62186134D01*
X169349869Y-62232054D01*
X169252782Y-62340639D01*
X169250297Y-62344372D01*
X169250294Y-62344376D01*
X169175901Y-62456135D01*
X169173419Y-62459864D01*
X169110711Y-62591333D01*
X169109374Y-62595612D01*
X169109373Y-62595615D01*
X169102767Y-62616760D01*
X169063361Y-62675817D01*
X168998282Y-62704194D01*
X168928192Y-62692882D01*
X168875345Y-62645472D01*
X168856500Y-62579186D01*
X168856500Y-59748522D01*
X175375273Y-59748522D01*
X175422764Y-59925761D01*
X175426510Y-59936053D01*
X175518586Y-60133511D01*
X175524069Y-60143007D01*
X175649028Y-60321467D01*
X175656084Y-60329875D01*
X175810125Y-60483916D01*
X175818533Y-60490972D01*
X175996993Y-60615931D01*
X176006489Y-60621414D01*
X176203947Y-60713490D01*
X176214239Y-60717236D01*
X176386503Y-60763394D01*
X176400599Y-60763058D01*
X176404000Y-60755116D01*
X176404000Y-60749967D01*
X176912000Y-60749967D01*
X176915973Y-60763498D01*
X176924522Y-60764727D01*
X177101761Y-60717236D01*
X177112053Y-60713490D01*
X177309511Y-60621414D01*
X177319007Y-60615931D01*
X177497467Y-60490972D01*
X177505875Y-60483916D01*
X177659916Y-60329875D01*
X177670507Y-60317254D01*
X177671525Y-60318108D01*
X177721984Y-60277776D01*
X177792603Y-60270468D01*
X177855963Y-60302500D01*
X177891947Y-60363702D01*
X177895000Y-60380762D01*
X177896255Y-60392316D01*
X177947385Y-60528705D01*
X178034739Y-60645261D01*
X178151295Y-60732615D01*
X178287684Y-60783745D01*
X178349866Y-60790500D01*
X180046134Y-60790500D01*
X180108316Y-60783745D01*
X180244705Y-60732615D01*
X180361261Y-60645261D01*
X180448615Y-60528705D01*
X180499745Y-60392316D01*
X180506500Y-60330134D01*
X180506500Y-59436000D01*
X181210902Y-59436000D01*
X181230857Y-59664087D01*
X181232281Y-59669400D01*
X181232281Y-59669402D01*
X181257660Y-59764115D01*
X181290116Y-59885243D01*
X181292439Y-59890224D01*
X181292439Y-59890225D01*
X181384551Y-60087762D01*
X181384554Y-60087767D01*
X181386877Y-60092749D01*
X181407819Y-60122657D01*
X181511318Y-60270468D01*
X181518202Y-60280300D01*
X181680100Y-60442198D01*
X181684608Y-60445355D01*
X181684611Y-60445357D01*
X181710809Y-60463701D01*
X181867651Y-60573523D01*
X181872633Y-60575846D01*
X181872638Y-60575849D01*
X182070175Y-60667961D01*
X182075157Y-60670284D01*
X182080465Y-60671706D01*
X182080467Y-60671707D01*
X182290998Y-60728119D01*
X182291000Y-60728119D01*
X182296313Y-60729543D01*
X182524400Y-60749498D01*
X182752487Y-60729543D01*
X182757800Y-60728119D01*
X182757802Y-60728119D01*
X182968333Y-60671707D01*
X182968335Y-60671706D01*
X182973643Y-60670284D01*
X182978625Y-60667961D01*
X183176162Y-60575849D01*
X183176167Y-60575846D01*
X183181149Y-60573523D01*
X183337991Y-60463701D01*
X183364189Y-60445357D01*
X183364192Y-60445355D01*
X183368700Y-60442198D01*
X183530598Y-60280300D01*
X183537483Y-60270468D01*
X183640981Y-60122657D01*
X183661923Y-60092749D01*
X183664246Y-60087767D01*
X183664249Y-60087762D01*
X183756361Y-59890225D01*
X183756361Y-59890224D01*
X183758684Y-59885243D01*
X183791141Y-59764115D01*
X183792640Y-59758522D01*
X191890273Y-59758522D01*
X191937764Y-59935761D01*
X191941510Y-59946053D01*
X192033586Y-60143511D01*
X192039069Y-60153007D01*
X192164028Y-60331467D01*
X192171084Y-60339875D01*
X192325125Y-60493916D01*
X192333533Y-60500972D01*
X192511993Y-60625931D01*
X192521489Y-60631414D01*
X192718947Y-60723490D01*
X192729239Y-60727236D01*
X192901503Y-60773394D01*
X192915599Y-60773058D01*
X192919000Y-60765116D01*
X192919000Y-60759967D01*
X193427000Y-60759967D01*
X193430973Y-60773498D01*
X193439522Y-60774727D01*
X193616761Y-60727236D01*
X193627053Y-60723490D01*
X193824511Y-60631414D01*
X193834007Y-60625931D01*
X194012467Y-60500972D01*
X194020875Y-60493916D01*
X194174916Y-60339875D01*
X194185507Y-60327254D01*
X194186525Y-60328108D01*
X194236984Y-60287776D01*
X194307603Y-60280468D01*
X194370963Y-60312500D01*
X194406947Y-60373702D01*
X194410000Y-60390762D01*
X194411255Y-60402316D01*
X194462385Y-60538705D01*
X194549739Y-60655261D01*
X194666295Y-60742615D01*
X194802684Y-60793745D01*
X194864866Y-60800500D01*
X196561134Y-60800500D01*
X196623316Y-60793745D01*
X196759705Y-60742615D01*
X196876261Y-60655261D01*
X196963615Y-60538705D01*
X197014745Y-60402316D01*
X197021500Y-60340134D01*
X197021500Y-59461400D01*
X197720902Y-59461400D01*
X197740857Y-59689487D01*
X197742281Y-59694800D01*
X197742281Y-59694802D01*
X197760854Y-59764115D01*
X197800116Y-59910643D01*
X197802439Y-59915624D01*
X197802439Y-59915625D01*
X197894551Y-60113162D01*
X197894554Y-60113167D01*
X197896877Y-60118149D01*
X197900034Y-60122657D01*
X198010417Y-60280300D01*
X198028202Y-60305700D01*
X198190100Y-60467598D01*
X198194608Y-60470755D01*
X198194611Y-60470757D01*
X198213404Y-60483916D01*
X198377651Y-60598923D01*
X198382633Y-60601246D01*
X198382638Y-60601249D01*
X198580175Y-60693361D01*
X198585157Y-60695684D01*
X198590465Y-60697106D01*
X198590467Y-60697107D01*
X198800998Y-60753519D01*
X198801000Y-60753519D01*
X198806313Y-60754943D01*
X199034400Y-60774898D01*
X199262487Y-60754943D01*
X199267800Y-60753519D01*
X199267802Y-60753519D01*
X199478333Y-60697107D01*
X199478335Y-60697106D01*
X199483643Y-60695684D01*
X199488625Y-60693361D01*
X199686162Y-60601249D01*
X199686167Y-60601246D01*
X199691149Y-60598923D01*
X199855396Y-60483916D01*
X199874189Y-60470757D01*
X199874192Y-60470755D01*
X199878700Y-60467598D01*
X200040598Y-60305700D01*
X200058384Y-60280300D01*
X200168766Y-60122657D01*
X200171923Y-60118149D01*
X200174246Y-60113167D01*
X200174249Y-60113162D01*
X200266361Y-59915625D01*
X200266361Y-59915624D01*
X200268684Y-59910643D01*
X200307947Y-59764115D01*
X200326519Y-59694802D01*
X200326519Y-59694800D01*
X200327943Y-59689487D01*
X200347898Y-59461400D01*
X200327943Y-59233313D01*
X200322889Y-59214452D01*
X200270107Y-59017467D01*
X200270106Y-59017465D01*
X200268684Y-59012157D01*
X200254517Y-58981775D01*
X200174249Y-58809638D01*
X200174246Y-58809633D01*
X200171923Y-58804651D01*
X200091096Y-58689218D01*
X200043757Y-58621611D01*
X200043755Y-58621608D01*
X200040598Y-58617100D01*
X199878700Y-58455202D01*
X199874192Y-58452045D01*
X199874189Y-58452043D01*
X199765975Y-58376271D01*
X199691149Y-58323877D01*
X199686167Y-58321554D01*
X199686162Y-58321551D01*
X199488625Y-58229439D01*
X199488624Y-58229439D01*
X199483643Y-58227116D01*
X199478335Y-58225694D01*
X199478333Y-58225693D01*
X199267802Y-58169281D01*
X199267800Y-58169281D01*
X199262487Y-58167857D01*
X199034400Y-58147902D01*
X198806313Y-58167857D01*
X198801000Y-58169281D01*
X198800998Y-58169281D01*
X198590467Y-58225693D01*
X198590465Y-58225694D01*
X198585157Y-58227116D01*
X198580176Y-58229439D01*
X198580175Y-58229439D01*
X198382638Y-58321551D01*
X198382633Y-58321554D01*
X198377651Y-58323877D01*
X198302825Y-58376271D01*
X198194611Y-58452043D01*
X198194608Y-58452045D01*
X198190100Y-58455202D01*
X198028202Y-58617100D01*
X198025045Y-58621608D01*
X198025043Y-58621611D01*
X197977704Y-58689218D01*
X197896877Y-58804651D01*
X197894554Y-58809633D01*
X197894551Y-58809638D01*
X197814283Y-58981775D01*
X197800116Y-59012157D01*
X197798694Y-59017465D01*
X197798693Y-59017467D01*
X197745911Y-59214452D01*
X197740857Y-59233313D01*
X197720902Y-59461400D01*
X197021500Y-59461400D01*
X197021500Y-58643866D01*
X197014745Y-58581684D01*
X196963615Y-58445295D01*
X196876261Y-58328739D01*
X196759705Y-58241385D01*
X196623316Y-58190255D01*
X196561134Y-58183500D01*
X194864866Y-58183500D01*
X194802684Y-58190255D01*
X194666295Y-58241385D01*
X194549739Y-58328739D01*
X194462385Y-58445295D01*
X194411255Y-58581684D01*
X194410001Y-58593229D01*
X194408887Y-58595910D01*
X194408575Y-58597222D01*
X194408363Y-58597172D01*
X194382762Y-58658790D01*
X194324401Y-58699218D01*
X194253447Y-58701677D01*
X194192428Y-58665384D01*
X194183853Y-58654775D01*
X194174916Y-58644125D01*
X194020875Y-58490084D01*
X194012467Y-58483028D01*
X193834007Y-58358069D01*
X193824511Y-58352586D01*
X193627053Y-58260510D01*
X193616761Y-58256764D01*
X193444497Y-58210606D01*
X193430401Y-58210942D01*
X193427000Y-58218884D01*
X193427000Y-60759967D01*
X192919000Y-60759967D01*
X192919000Y-59764115D01*
X192914525Y-59748876D01*
X192913135Y-59747671D01*
X192905452Y-59746000D01*
X191905033Y-59746000D01*
X191891502Y-59749973D01*
X191890273Y-59758522D01*
X183792640Y-59758522D01*
X183816519Y-59669402D01*
X183816519Y-59669400D01*
X183817943Y-59664087D01*
X183837898Y-59436000D01*
X183819044Y-59220503D01*
X191891606Y-59220503D01*
X191891942Y-59234599D01*
X191899884Y-59238000D01*
X192900885Y-59238000D01*
X192916124Y-59233525D01*
X192917329Y-59232135D01*
X192919000Y-59224452D01*
X192919000Y-58224033D01*
X192915027Y-58210502D01*
X192906478Y-58209273D01*
X192729239Y-58256764D01*
X192718947Y-58260510D01*
X192521489Y-58352586D01*
X192511993Y-58358069D01*
X192333533Y-58483028D01*
X192325125Y-58490084D01*
X192171084Y-58644125D01*
X192164028Y-58652533D01*
X192039069Y-58830993D01*
X192033586Y-58840489D01*
X191941510Y-59037947D01*
X191937764Y-59048239D01*
X191891606Y-59220503D01*
X183819044Y-59220503D01*
X183817943Y-59207913D01*
X183772479Y-59038239D01*
X183760107Y-58992067D01*
X183760106Y-58992065D01*
X183758684Y-58986757D01*
X183685816Y-58830489D01*
X183664249Y-58784238D01*
X183664246Y-58784233D01*
X183661923Y-58779251D01*
X183567762Y-58644775D01*
X183533757Y-58596211D01*
X183533755Y-58596208D01*
X183530598Y-58591700D01*
X183368700Y-58429802D01*
X183364192Y-58426645D01*
X183364189Y-58426643D01*
X183258424Y-58352586D01*
X183181149Y-58298477D01*
X183176167Y-58296154D01*
X183176162Y-58296151D01*
X182978625Y-58204039D01*
X182978624Y-58204039D01*
X182973643Y-58201716D01*
X182968335Y-58200294D01*
X182968333Y-58200293D01*
X182757802Y-58143881D01*
X182757800Y-58143881D01*
X182752487Y-58142457D01*
X182524400Y-58122502D01*
X182296313Y-58142457D01*
X182291000Y-58143881D01*
X182290998Y-58143881D01*
X182080467Y-58200293D01*
X182080465Y-58200294D01*
X182075157Y-58201716D01*
X182070176Y-58204039D01*
X182070175Y-58204039D01*
X181872638Y-58296151D01*
X181872633Y-58296154D01*
X181867651Y-58298477D01*
X181790376Y-58352586D01*
X181684611Y-58426643D01*
X181684608Y-58426645D01*
X181680100Y-58429802D01*
X181518202Y-58591700D01*
X181515045Y-58596208D01*
X181515043Y-58596211D01*
X181481038Y-58644775D01*
X181386877Y-58779251D01*
X181384554Y-58784233D01*
X181384551Y-58784238D01*
X181362984Y-58830489D01*
X181290116Y-58986757D01*
X181288694Y-58992065D01*
X181288693Y-58992067D01*
X181276321Y-59038239D01*
X181230857Y-59207913D01*
X181210902Y-59436000D01*
X180506500Y-59436000D01*
X180506500Y-58633866D01*
X180499745Y-58571684D01*
X180448615Y-58435295D01*
X180361261Y-58318739D01*
X180244705Y-58231385D01*
X180108316Y-58180255D01*
X180046134Y-58173500D01*
X178349866Y-58173500D01*
X178287684Y-58180255D01*
X178151295Y-58231385D01*
X178034739Y-58318739D01*
X177947385Y-58435295D01*
X177896255Y-58571684D01*
X177895001Y-58583229D01*
X177893887Y-58585910D01*
X177893575Y-58587222D01*
X177893363Y-58587172D01*
X177867762Y-58648790D01*
X177809401Y-58689218D01*
X177738447Y-58691677D01*
X177677428Y-58655384D01*
X177668853Y-58644775D01*
X177659916Y-58634125D01*
X177505875Y-58480084D01*
X177497467Y-58473028D01*
X177319007Y-58348069D01*
X177309511Y-58342586D01*
X177112053Y-58250510D01*
X177101761Y-58246764D01*
X176929497Y-58200606D01*
X176915401Y-58200942D01*
X176912000Y-58208884D01*
X176912000Y-60749967D01*
X176404000Y-60749967D01*
X176404000Y-59754115D01*
X176399525Y-59738876D01*
X176398135Y-59737671D01*
X176390452Y-59736000D01*
X175390033Y-59736000D01*
X175376502Y-59739973D01*
X175375273Y-59748522D01*
X168856500Y-59748522D01*
X168856500Y-59210503D01*
X175376606Y-59210503D01*
X175376942Y-59224599D01*
X175384884Y-59228000D01*
X176385885Y-59228000D01*
X176401124Y-59223525D01*
X176402329Y-59222135D01*
X176404000Y-59214452D01*
X176404000Y-58214033D01*
X176400027Y-58200502D01*
X176391478Y-58199273D01*
X176214239Y-58246764D01*
X176203947Y-58250510D01*
X176006489Y-58342586D01*
X175996993Y-58348069D01*
X175818533Y-58473028D01*
X175810125Y-58480084D01*
X175656084Y-58634125D01*
X175649028Y-58642533D01*
X175524069Y-58820993D01*
X175518586Y-58830489D01*
X175426510Y-59027947D01*
X175422764Y-59038239D01*
X175376606Y-59210503D01*
X168856500Y-59210503D01*
X168856500Y-59141917D01*
X168876502Y-59073796D01*
X168893405Y-59052822D01*
X174792822Y-53153405D01*
X174855134Y-53119379D01*
X174881917Y-53116500D01*
X175719134Y-53116500D01*
X175781316Y-53109745D01*
X175917705Y-53058615D01*
X176034261Y-52971261D01*
X176121615Y-52854705D01*
X176159778Y-52752906D01*
X179767839Y-52752906D01*
X179776553Y-52764427D01*
X179883452Y-52842809D01*
X179891351Y-52847745D01*
X180120905Y-52968519D01*
X180129454Y-52972236D01*
X180374327Y-53057749D01*
X180383336Y-53060163D01*
X180638166Y-53108544D01*
X180647423Y-53109598D01*
X180906607Y-53119783D01*
X180915921Y-53119457D01*
X181173753Y-53091220D01*
X181182930Y-53089519D01*
X181433758Y-53023481D01*
X181442574Y-53020445D01*
X181680880Y-52918062D01*
X181689167Y-52913748D01*
X181909718Y-52777266D01*
X181917268Y-52771780D01*
X181922559Y-52767301D01*
X181930997Y-52754497D01*
X181924935Y-52744145D01*
X180860812Y-51680022D01*
X180846868Y-51672408D01*
X180845035Y-51672539D01*
X180838420Y-51676790D01*
X179774497Y-52740713D01*
X179767839Y-52752906D01*
X176159778Y-52752906D01*
X176172745Y-52718316D01*
X176179500Y-52656134D01*
X176179500Y-51265211D01*
X179035775Y-51265211D01*
X179048220Y-51524288D01*
X179049356Y-51533543D01*
X179099961Y-51787945D01*
X179102449Y-51796917D01*
X179190095Y-52041033D01*
X179193895Y-52049568D01*
X179316658Y-52278042D01*
X179321666Y-52285904D01*
X179391720Y-52379716D01*
X179402979Y-52388165D01*
X179415397Y-52381393D01*
X180475978Y-51320812D01*
X180482356Y-51309132D01*
X181212408Y-51309132D01*
X181212539Y-51310965D01*
X181216790Y-51317580D01*
X182284094Y-52384884D01*
X182296474Y-52391644D01*
X182304815Y-52385400D01*
X182438832Y-52177048D01*
X182443275Y-52168864D01*
X182549807Y-51932370D01*
X182552997Y-51923605D01*
X182623402Y-51673972D01*
X182625262Y-51664830D01*
X182658187Y-51406019D01*
X182658668Y-51399733D01*
X182660987Y-51311160D01*
X182660836Y-51304851D01*
X182657542Y-51260526D01*
X184115050Y-51260526D01*
X184115274Y-51265192D01*
X184115274Y-51265197D01*
X184117946Y-51320812D01*
X184127947Y-51529019D01*
X184180388Y-51792656D01*
X184271220Y-52045646D01*
X184398450Y-52282431D01*
X184401241Y-52286168D01*
X184401245Y-52286175D01*
X184477405Y-52388165D01*
X184559281Y-52497810D01*
X184562590Y-52501090D01*
X184562595Y-52501096D01*
X184746863Y-52683762D01*
X184750180Y-52687050D01*
X184753942Y-52689808D01*
X184753945Y-52689811D01*
X184865737Y-52771780D01*
X184966954Y-52845995D01*
X184971089Y-52848171D01*
X184971093Y-52848173D01*
X185200698Y-52968975D01*
X185204840Y-52971154D01*
X185278546Y-52996893D01*
X185441366Y-53053752D01*
X185458613Y-53059775D01*
X185463206Y-53060647D01*
X185718109Y-53109042D01*
X185718112Y-53109042D01*
X185722698Y-53109913D01*
X185850370Y-53114929D01*
X185986625Y-53120283D01*
X185986630Y-53120283D01*
X185991293Y-53120466D01*
X186095607Y-53109042D01*
X186253844Y-53091713D01*
X186253850Y-53091712D01*
X186258497Y-53091203D01*
X186263021Y-53090012D01*
X186513918Y-53023956D01*
X186513920Y-53023955D01*
X186518441Y-53022765D01*
X186625795Y-52976642D01*
X186761120Y-52918502D01*
X186761122Y-52918501D01*
X186765414Y-52916657D01*
X186884751Y-52842809D01*
X186990017Y-52777669D01*
X186990021Y-52777666D01*
X186993990Y-52775210D01*
X187134648Y-52656134D01*
X189199500Y-52656134D01*
X189206255Y-52718316D01*
X189257385Y-52854705D01*
X189344739Y-52971261D01*
X189461295Y-53058615D01*
X189597684Y-53109745D01*
X189659866Y-53116500D01*
X192356134Y-53116500D01*
X192418316Y-53109745D01*
X192554705Y-53058615D01*
X192671261Y-52971261D01*
X192758615Y-52854705D01*
X192796778Y-52752906D01*
X196277839Y-52752906D01*
X196286553Y-52764427D01*
X196393452Y-52842809D01*
X196401351Y-52847745D01*
X196630905Y-52968519D01*
X196639454Y-52972236D01*
X196884327Y-53057749D01*
X196893336Y-53060163D01*
X197148166Y-53108544D01*
X197157423Y-53109598D01*
X197416607Y-53119783D01*
X197425921Y-53119457D01*
X197683753Y-53091220D01*
X197692930Y-53089519D01*
X197943758Y-53023481D01*
X197952574Y-53020445D01*
X198190880Y-52918062D01*
X198199167Y-52913748D01*
X198419718Y-52777266D01*
X198427268Y-52771780D01*
X198432559Y-52767301D01*
X198440997Y-52754497D01*
X198434935Y-52744145D01*
X197370812Y-51680022D01*
X197356868Y-51672408D01*
X197355035Y-51672539D01*
X197348420Y-51676790D01*
X196284497Y-52740713D01*
X196277839Y-52752906D01*
X192796778Y-52752906D01*
X192809745Y-52718316D01*
X192816500Y-52656134D01*
X192816500Y-51265211D01*
X195545775Y-51265211D01*
X195558220Y-51524288D01*
X195559356Y-51533543D01*
X195609961Y-51787945D01*
X195612449Y-51796917D01*
X195700095Y-52041033D01*
X195703895Y-52049568D01*
X195826658Y-52278042D01*
X195831666Y-52285904D01*
X195901720Y-52379716D01*
X195912979Y-52388165D01*
X195925397Y-52381393D01*
X196985978Y-51320812D01*
X196992356Y-51309132D01*
X197722408Y-51309132D01*
X197722539Y-51310965D01*
X197726790Y-51317580D01*
X198794094Y-52384884D01*
X198806474Y-52391644D01*
X198814815Y-52385400D01*
X198948832Y-52177048D01*
X198953275Y-52168864D01*
X199059807Y-51932370D01*
X199062997Y-51923605D01*
X199133402Y-51673972D01*
X199135262Y-51664830D01*
X199168187Y-51406019D01*
X199168668Y-51399733D01*
X199170987Y-51311160D01*
X199170836Y-51304851D01*
X199167542Y-51260526D01*
X200625050Y-51260526D01*
X200625274Y-51265192D01*
X200625274Y-51265197D01*
X200627946Y-51320812D01*
X200637947Y-51529019D01*
X200690388Y-51792656D01*
X200781220Y-52045646D01*
X200908450Y-52282431D01*
X200911241Y-52286168D01*
X200911245Y-52286175D01*
X200987405Y-52388165D01*
X201069281Y-52497810D01*
X201072590Y-52501090D01*
X201072595Y-52501096D01*
X201256863Y-52683762D01*
X201260180Y-52687050D01*
X201263942Y-52689808D01*
X201263945Y-52689811D01*
X201375737Y-52771780D01*
X201476954Y-52845995D01*
X201481089Y-52848171D01*
X201481093Y-52848173D01*
X201710698Y-52968975D01*
X201714840Y-52971154D01*
X201788546Y-52996893D01*
X201951366Y-53053752D01*
X201968613Y-53059775D01*
X201973206Y-53060647D01*
X202228109Y-53109042D01*
X202228112Y-53109042D01*
X202232698Y-53109913D01*
X202360370Y-53114929D01*
X202496625Y-53120283D01*
X202496630Y-53120283D01*
X202501293Y-53120466D01*
X202605607Y-53109042D01*
X202763844Y-53091713D01*
X202763850Y-53091712D01*
X202768497Y-53091203D01*
X202773021Y-53090012D01*
X203023918Y-53023956D01*
X203023920Y-53023955D01*
X203028441Y-53022765D01*
X203135795Y-52976642D01*
X203271120Y-52918502D01*
X203271122Y-52918501D01*
X203275414Y-52916657D01*
X203394751Y-52842809D01*
X203500017Y-52777669D01*
X203500021Y-52777666D01*
X203503990Y-52775210D01*
X203644648Y-52656134D01*
X205709500Y-52656134D01*
X205716255Y-52718316D01*
X205767385Y-52854705D01*
X205854739Y-52971261D01*
X205971295Y-53058615D01*
X206107684Y-53109745D01*
X206169866Y-53116500D01*
X208866134Y-53116500D01*
X208928316Y-53109745D01*
X209064705Y-53058615D01*
X209181261Y-52971261D01*
X209268615Y-52854705D01*
X209319745Y-52718316D01*
X209326500Y-52656134D01*
X209326500Y-51260526D01*
X212817050Y-51260526D01*
X212817274Y-51265192D01*
X212817274Y-51265197D01*
X212819946Y-51320812D01*
X212829947Y-51529019D01*
X212882388Y-51792656D01*
X212973220Y-52045646D01*
X213100450Y-52282431D01*
X213103241Y-52286168D01*
X213103245Y-52286175D01*
X213179405Y-52388165D01*
X213261281Y-52497810D01*
X213264590Y-52501090D01*
X213264595Y-52501096D01*
X213448863Y-52683762D01*
X213452180Y-52687050D01*
X213455942Y-52689808D01*
X213455945Y-52689811D01*
X213567737Y-52771780D01*
X213668954Y-52845995D01*
X213673089Y-52848171D01*
X213673093Y-52848173D01*
X213902698Y-52968975D01*
X213906840Y-52971154D01*
X213980546Y-52996893D01*
X214143366Y-53053752D01*
X214160613Y-53059775D01*
X214165206Y-53060647D01*
X214420109Y-53109042D01*
X214420112Y-53109042D01*
X214424698Y-53109913D01*
X214552370Y-53114929D01*
X214688625Y-53120283D01*
X214688630Y-53120283D01*
X214693293Y-53120466D01*
X214797607Y-53109042D01*
X214955844Y-53091713D01*
X214955850Y-53091712D01*
X214960497Y-53091203D01*
X214965021Y-53090012D01*
X215215918Y-53023956D01*
X215215920Y-53023955D01*
X215220441Y-53022765D01*
X215327795Y-52976642D01*
X215463120Y-52918502D01*
X215463122Y-52918501D01*
X215467414Y-52916657D01*
X215586751Y-52842809D01*
X215692017Y-52777669D01*
X215692021Y-52777666D01*
X215695990Y-52775210D01*
X215722337Y-52752906D01*
X218629839Y-52752906D01*
X218638553Y-52764427D01*
X218745452Y-52842809D01*
X218753351Y-52847745D01*
X218982905Y-52968519D01*
X218991454Y-52972236D01*
X219236327Y-53057749D01*
X219245336Y-53060163D01*
X219500166Y-53108544D01*
X219509423Y-53109598D01*
X219768607Y-53119783D01*
X219777921Y-53119457D01*
X220035753Y-53091220D01*
X220044930Y-53089519D01*
X220295758Y-53023481D01*
X220304574Y-53020445D01*
X220542880Y-52918062D01*
X220551167Y-52913748D01*
X220771718Y-52777266D01*
X220779268Y-52771780D01*
X220784559Y-52767301D01*
X220792997Y-52754497D01*
X220786935Y-52744145D01*
X220698924Y-52656134D01*
X222981500Y-52656134D01*
X222988255Y-52718316D01*
X223039385Y-52854705D01*
X223126739Y-52971261D01*
X223243295Y-53058615D01*
X223379684Y-53109745D01*
X223441866Y-53116500D01*
X226138134Y-53116500D01*
X226200316Y-53109745D01*
X226336705Y-53058615D01*
X226453261Y-52971261D01*
X226540615Y-52854705D01*
X226591745Y-52718316D01*
X226598500Y-52656134D01*
X226598500Y-49959866D01*
X226591745Y-49897684D01*
X226540615Y-49761295D01*
X226453261Y-49644739D01*
X226336705Y-49557385D01*
X226200316Y-49506255D01*
X226138134Y-49499500D01*
X223441866Y-49499500D01*
X223379684Y-49506255D01*
X223243295Y-49557385D01*
X223126739Y-49644739D01*
X223039385Y-49761295D01*
X222988255Y-49897684D01*
X222981500Y-49959866D01*
X222981500Y-52656134D01*
X220698924Y-52656134D01*
X219722812Y-51680022D01*
X219708868Y-51672408D01*
X219707035Y-51672539D01*
X219700420Y-51676790D01*
X218636497Y-52740713D01*
X218629839Y-52752906D01*
X215722337Y-52752906D01*
X215901149Y-52601530D01*
X216078382Y-52399434D01*
X216085631Y-52388165D01*
X216221269Y-52177291D01*
X216223797Y-52173361D01*
X216334199Y-51928278D01*
X216371247Y-51796917D01*
X216405893Y-51674072D01*
X216405894Y-51674069D01*
X216407163Y-51669568D01*
X216425043Y-51529019D01*
X216440688Y-51406045D01*
X216440688Y-51406041D01*
X216441086Y-51402915D01*
X216441170Y-51399733D01*
X216442477Y-51349779D01*
X216443571Y-51308000D01*
X216440391Y-51265211D01*
X217897775Y-51265211D01*
X217910220Y-51524288D01*
X217911356Y-51533543D01*
X217961961Y-51787945D01*
X217964449Y-51796917D01*
X218052095Y-52041033D01*
X218055895Y-52049568D01*
X218178658Y-52278042D01*
X218183666Y-52285904D01*
X218253720Y-52379716D01*
X218264979Y-52388165D01*
X218277397Y-52381393D01*
X219337978Y-51320812D01*
X219344356Y-51309132D01*
X220074408Y-51309132D01*
X220074539Y-51310965D01*
X220078790Y-51317580D01*
X221146094Y-52384884D01*
X221158474Y-52391644D01*
X221166815Y-52385400D01*
X221300832Y-52177048D01*
X221305275Y-52168864D01*
X221411807Y-51932370D01*
X221414997Y-51923605D01*
X221485402Y-51673972D01*
X221487262Y-51664830D01*
X221520187Y-51406019D01*
X221520668Y-51399733D01*
X221522987Y-51311160D01*
X221522836Y-51304851D01*
X221503501Y-51044663D01*
X221502125Y-51035457D01*
X221444878Y-50782467D01*
X221442154Y-50773556D01*
X221348143Y-50531806D01*
X221344132Y-50523397D01*
X221215422Y-50298202D01*
X221210211Y-50290476D01*
X221166996Y-50235658D01*
X221155071Y-50227187D01*
X221143537Y-50233673D01*
X220082022Y-51295188D01*
X220074408Y-51309132D01*
X219344356Y-51309132D01*
X219345592Y-51306868D01*
X219345461Y-51305035D01*
X219341210Y-51298420D01*
X218275816Y-50233026D01*
X218262507Y-50225758D01*
X218252472Y-50232878D01*
X218236937Y-50251556D01*
X218231531Y-50259135D01*
X218096965Y-50480891D01*
X218092736Y-50489192D01*
X217992432Y-50728389D01*
X217989471Y-50737239D01*
X217925628Y-50988625D01*
X217924006Y-50997822D01*
X217898020Y-51255885D01*
X217897775Y-51265211D01*
X216440391Y-51265211D01*
X216423650Y-51039937D01*
X216422619Y-51035379D01*
X216365361Y-50782331D01*
X216365360Y-50782326D01*
X216364327Y-50777763D01*
X216266902Y-50527238D01*
X216133518Y-50293864D01*
X216086068Y-50233673D01*
X216067416Y-50210014D01*
X215967105Y-50082769D01*
X215771317Y-49898591D01*
X215716682Y-49860689D01*
X218627102Y-49860689D01*
X218631675Y-49870465D01*
X219697188Y-50935978D01*
X219711132Y-50943592D01*
X219712965Y-50943461D01*
X219719580Y-50939210D01*
X220784349Y-49874441D01*
X220790733Y-49862751D01*
X220781321Y-49850641D01*
X220634045Y-49748471D01*
X220626010Y-49743738D01*
X220393376Y-49629016D01*
X220384743Y-49625528D01*
X220137703Y-49546450D01*
X220128643Y-49544274D01*
X219872630Y-49502580D01*
X219863343Y-49501768D01*
X219603992Y-49498373D01*
X219594681Y-49498943D01*
X219337682Y-49533919D01*
X219328546Y-49535860D01*
X219079543Y-49608439D01*
X219070800Y-49611707D01*
X218835252Y-49720296D01*
X218827097Y-49724816D01*
X218636240Y-49849947D01*
X218627102Y-49860689D01*
X215716682Y-49860689D01*
X215573407Y-49761295D01*
X215554299Y-49748039D01*
X215554296Y-49748037D01*
X215550457Y-49745374D01*
X215508770Y-49724816D01*
X215313564Y-49628551D01*
X215313561Y-49628550D01*
X215309376Y-49626486D01*
X215263207Y-49611707D01*
X215083657Y-49554233D01*
X215053370Y-49544538D01*
X215048763Y-49543788D01*
X215048760Y-49543787D01*
X214835337Y-49509029D01*
X214788063Y-49501330D01*
X214657719Y-49499624D01*
X214523961Y-49497873D01*
X214523958Y-49497873D01*
X214519284Y-49497812D01*
X214252937Y-49534060D01*
X214248451Y-49535368D01*
X214248449Y-49535368D01*
X214183726Y-49554233D01*
X213994874Y-49609278D01*
X213750763Y-49721815D01*
X213746854Y-49724378D01*
X213529881Y-49866631D01*
X213529876Y-49866635D01*
X213525968Y-49869197D01*
X213325426Y-50048188D01*
X213153544Y-50254854D01*
X213014096Y-50484656D01*
X213012287Y-50488970D01*
X213012285Y-50488974D01*
X212996240Y-50527238D01*
X212910148Y-50732545D01*
X212843981Y-50993077D01*
X212817050Y-51260526D01*
X209326500Y-51260526D01*
X209326500Y-49959866D01*
X209319745Y-49897684D01*
X209268615Y-49761295D01*
X209181261Y-49644739D01*
X209064705Y-49557385D01*
X208928316Y-49506255D01*
X208866134Y-49499500D01*
X206169866Y-49499500D01*
X206107684Y-49506255D01*
X205971295Y-49557385D01*
X205854739Y-49644739D01*
X205767385Y-49761295D01*
X205716255Y-49897684D01*
X205709500Y-49959866D01*
X205709500Y-52656134D01*
X203644648Y-52656134D01*
X203709149Y-52601530D01*
X203886382Y-52399434D01*
X203893631Y-52388165D01*
X204029269Y-52177291D01*
X204031797Y-52173361D01*
X204142199Y-51928278D01*
X204179247Y-51796917D01*
X204213893Y-51674072D01*
X204213894Y-51674069D01*
X204215163Y-51669568D01*
X204233043Y-51529019D01*
X204248688Y-51406045D01*
X204248688Y-51406041D01*
X204249086Y-51402915D01*
X204249170Y-51399733D01*
X204250477Y-51349779D01*
X204251571Y-51308000D01*
X204231650Y-51039937D01*
X204230619Y-51035379D01*
X204173361Y-50782331D01*
X204173360Y-50782326D01*
X204172327Y-50777763D01*
X204074902Y-50527238D01*
X203941518Y-50293864D01*
X203894068Y-50233673D01*
X203875416Y-50210014D01*
X203775105Y-50082769D01*
X203579317Y-49898591D01*
X203381407Y-49761295D01*
X203362299Y-49748039D01*
X203362296Y-49748037D01*
X203358457Y-49745374D01*
X203316770Y-49724816D01*
X203121564Y-49628551D01*
X203121561Y-49628550D01*
X203117376Y-49626486D01*
X203071207Y-49611707D01*
X202891657Y-49554233D01*
X202861370Y-49544538D01*
X202856763Y-49543788D01*
X202856760Y-49543787D01*
X202643337Y-49509029D01*
X202596063Y-49501330D01*
X202465719Y-49499624D01*
X202331961Y-49497873D01*
X202331958Y-49497873D01*
X202327284Y-49497812D01*
X202060937Y-49534060D01*
X202056451Y-49535368D01*
X202056449Y-49535368D01*
X201991726Y-49554233D01*
X201802874Y-49609278D01*
X201558763Y-49721815D01*
X201554854Y-49724378D01*
X201337881Y-49866631D01*
X201337876Y-49866635D01*
X201333968Y-49869197D01*
X201133426Y-50048188D01*
X200961544Y-50254854D01*
X200822096Y-50484656D01*
X200820287Y-50488970D01*
X200820285Y-50488974D01*
X200804240Y-50527238D01*
X200718148Y-50732545D01*
X200651981Y-50993077D01*
X200625050Y-51260526D01*
X199167542Y-51260526D01*
X199151501Y-51044663D01*
X199150125Y-51035457D01*
X199092878Y-50782467D01*
X199090154Y-50773556D01*
X198996143Y-50531806D01*
X198992132Y-50523397D01*
X198863422Y-50298202D01*
X198858211Y-50290476D01*
X198814996Y-50235658D01*
X198803071Y-50227187D01*
X198791537Y-50233673D01*
X197730022Y-51295188D01*
X197722408Y-51309132D01*
X196992356Y-51309132D01*
X196993592Y-51306868D01*
X196993461Y-51305035D01*
X196989210Y-51298420D01*
X195923816Y-50233026D01*
X195910507Y-50225758D01*
X195900472Y-50232878D01*
X195884937Y-50251556D01*
X195879531Y-50259135D01*
X195744965Y-50480891D01*
X195740736Y-50489192D01*
X195640432Y-50728389D01*
X195637471Y-50737239D01*
X195573628Y-50988625D01*
X195572006Y-50997822D01*
X195546020Y-51255885D01*
X195545775Y-51265211D01*
X192816500Y-51265211D01*
X192816500Y-49959866D01*
X192809745Y-49897684D01*
X192795876Y-49860689D01*
X196275102Y-49860689D01*
X196279675Y-49870465D01*
X197345188Y-50935978D01*
X197359132Y-50943592D01*
X197360965Y-50943461D01*
X197367580Y-50939210D01*
X198432349Y-49874441D01*
X198438733Y-49862751D01*
X198429321Y-49850641D01*
X198282045Y-49748471D01*
X198274010Y-49743738D01*
X198041376Y-49629016D01*
X198032743Y-49625528D01*
X197785703Y-49546450D01*
X197776643Y-49544274D01*
X197520630Y-49502580D01*
X197511343Y-49501768D01*
X197251992Y-49498373D01*
X197242681Y-49498943D01*
X196985682Y-49533919D01*
X196976546Y-49535860D01*
X196727543Y-49608439D01*
X196718800Y-49611707D01*
X196483252Y-49720296D01*
X196475097Y-49724816D01*
X196284240Y-49849947D01*
X196275102Y-49860689D01*
X192795876Y-49860689D01*
X192758615Y-49761295D01*
X192671261Y-49644739D01*
X192554705Y-49557385D01*
X192418316Y-49506255D01*
X192356134Y-49499500D01*
X189659866Y-49499500D01*
X189597684Y-49506255D01*
X189461295Y-49557385D01*
X189344739Y-49644739D01*
X189257385Y-49761295D01*
X189206255Y-49897684D01*
X189199500Y-49959866D01*
X189199500Y-52656134D01*
X187134648Y-52656134D01*
X187199149Y-52601530D01*
X187376382Y-52399434D01*
X187383631Y-52388165D01*
X187519269Y-52177291D01*
X187521797Y-52173361D01*
X187632199Y-51928278D01*
X187669247Y-51796917D01*
X187703893Y-51674072D01*
X187703894Y-51674069D01*
X187705163Y-51669568D01*
X187723043Y-51529019D01*
X187738688Y-51406045D01*
X187738688Y-51406041D01*
X187739086Y-51402915D01*
X187739170Y-51399733D01*
X187740477Y-51349779D01*
X187741571Y-51308000D01*
X187721650Y-51039937D01*
X187720619Y-51035379D01*
X187663361Y-50782331D01*
X187663360Y-50782326D01*
X187662327Y-50777763D01*
X187564902Y-50527238D01*
X187431518Y-50293864D01*
X187384068Y-50233673D01*
X187365416Y-50210014D01*
X187265105Y-50082769D01*
X187069317Y-49898591D01*
X186871407Y-49761295D01*
X186852299Y-49748039D01*
X186852296Y-49748037D01*
X186848457Y-49745374D01*
X186806770Y-49724816D01*
X186611564Y-49628551D01*
X186611561Y-49628550D01*
X186607376Y-49626486D01*
X186561207Y-49611707D01*
X186381657Y-49554233D01*
X186351370Y-49544538D01*
X186346763Y-49543788D01*
X186346760Y-49543787D01*
X186133337Y-49509029D01*
X186086063Y-49501330D01*
X185955719Y-49499624D01*
X185821961Y-49497873D01*
X185821958Y-49497873D01*
X185817284Y-49497812D01*
X185550937Y-49534060D01*
X185546451Y-49535368D01*
X185546449Y-49535368D01*
X185481726Y-49554233D01*
X185292874Y-49609278D01*
X185048763Y-49721815D01*
X185044854Y-49724378D01*
X184827881Y-49866631D01*
X184827876Y-49866635D01*
X184823968Y-49869197D01*
X184623426Y-50048188D01*
X184451544Y-50254854D01*
X184312096Y-50484656D01*
X184310287Y-50488970D01*
X184310285Y-50488974D01*
X184294240Y-50527238D01*
X184208148Y-50732545D01*
X184141981Y-50993077D01*
X184115050Y-51260526D01*
X182657542Y-51260526D01*
X182641501Y-51044663D01*
X182640125Y-51035457D01*
X182582878Y-50782467D01*
X182580154Y-50773556D01*
X182486143Y-50531806D01*
X182482132Y-50523397D01*
X182353422Y-50298202D01*
X182348211Y-50290476D01*
X182304996Y-50235658D01*
X182293071Y-50227187D01*
X182281537Y-50233673D01*
X181220022Y-51295188D01*
X181212408Y-51309132D01*
X180482356Y-51309132D01*
X180483592Y-51306868D01*
X180483461Y-51305035D01*
X180479210Y-51298420D01*
X179413816Y-50233026D01*
X179400507Y-50225758D01*
X179390472Y-50232878D01*
X179374937Y-50251556D01*
X179369531Y-50259135D01*
X179234965Y-50480891D01*
X179230736Y-50489192D01*
X179130432Y-50728389D01*
X179127471Y-50737239D01*
X179063628Y-50988625D01*
X179062006Y-50997822D01*
X179036020Y-51255885D01*
X179035775Y-51265211D01*
X176179500Y-51265211D01*
X176179500Y-49959866D01*
X176172745Y-49897684D01*
X176158876Y-49860689D01*
X179765102Y-49860689D01*
X179769675Y-49870465D01*
X180835188Y-50935978D01*
X180849132Y-50943592D01*
X180850965Y-50943461D01*
X180857580Y-50939210D01*
X181922349Y-49874441D01*
X181928733Y-49862751D01*
X181919321Y-49850641D01*
X181772045Y-49748471D01*
X181764010Y-49743738D01*
X181531376Y-49629016D01*
X181522743Y-49625528D01*
X181275703Y-49546450D01*
X181266643Y-49544274D01*
X181010630Y-49502580D01*
X181001343Y-49501768D01*
X180741992Y-49498373D01*
X180732681Y-49498943D01*
X180475682Y-49533919D01*
X180466546Y-49535860D01*
X180217543Y-49608439D01*
X180208800Y-49611707D01*
X179973252Y-49720296D01*
X179965097Y-49724816D01*
X179774240Y-49849947D01*
X179765102Y-49860689D01*
X176158876Y-49860689D01*
X176121615Y-49761295D01*
X176034261Y-49644739D01*
X175917705Y-49557385D01*
X175781316Y-49506255D01*
X175719134Y-49499500D01*
X173022866Y-49499500D01*
X172960684Y-49506255D01*
X172824295Y-49557385D01*
X172707739Y-49644739D01*
X172620385Y-49761295D01*
X172569255Y-49897684D01*
X172562500Y-49959866D01*
X172562500Y-52656134D01*
X172569255Y-52718316D01*
X172620385Y-52854705D01*
X172707739Y-52971261D01*
X172741943Y-52996895D01*
X172784457Y-53053752D01*
X172789483Y-53124570D01*
X172755472Y-53186815D01*
X167667480Y-58274807D01*
X167661215Y-58280661D01*
X167617615Y-58318696D01*
X167600825Y-58342586D01*
X167580872Y-58370976D01*
X167576939Y-58376271D01*
X167537524Y-58426539D01*
X167534401Y-58433455D01*
X167533017Y-58435741D01*
X167524643Y-58450422D01*
X167523378Y-58452782D01*
X167519010Y-58458996D01*
X167516250Y-58466075D01*
X167516249Y-58466077D01*
X167495798Y-58518532D01*
X167493247Y-58524601D01*
X167466955Y-58582830D01*
X167465571Y-58590297D01*
X167464770Y-58592852D01*
X167460141Y-58609105D01*
X167459478Y-58611685D01*
X167456718Y-58618766D01*
X167455727Y-58626297D01*
X167455726Y-58626299D01*
X167448379Y-58682109D01*
X167447348Y-58688616D01*
X167435704Y-58751443D01*
X167436141Y-58759023D01*
X167436141Y-58759024D01*
X167439291Y-58813649D01*
X167439500Y-58820903D01*
X167439500Y-63217088D01*
X167439208Y-63225658D01*
X167435275Y-63283352D01*
X167436580Y-63290829D01*
X167436580Y-63290830D01*
X167446261Y-63346299D01*
X167447223Y-63352821D01*
X167454898Y-63416242D01*
X167457581Y-63423343D01*
X167458222Y-63425952D01*
X167462685Y-63442262D01*
X167463450Y-63444798D01*
X167464757Y-63452284D01*
X167467811Y-63459241D01*
X167490442Y-63510795D01*
X167492933Y-63516899D01*
X167515513Y-63576656D01*
X167519817Y-63582919D01*
X167521054Y-63585285D01*
X167529299Y-63600097D01*
X167530632Y-63602351D01*
X167533685Y-63609305D01*
X167538307Y-63615328D01*
X167572579Y-63659991D01*
X167576459Y-63665332D01*
X167608339Y-63711720D01*
X167608344Y-63711725D01*
X167612643Y-63717981D01*
X167618313Y-63723032D01*
X167618314Y-63723034D01*
X167659170Y-63759435D01*
X167664446Y-63764416D01*
X168642550Y-64742520D01*
X168648404Y-64748785D01*
X168686439Y-64792385D01*
X168730711Y-64823500D01*
X168738719Y-64829128D01*
X168744014Y-64833061D01*
X168794282Y-64872476D01*
X168801198Y-64875599D01*
X168803484Y-64876983D01*
X168818165Y-64885357D01*
X168820525Y-64886622D01*
X168826739Y-64890990D01*
X168833818Y-64893750D01*
X168833820Y-64893751D01*
X168886275Y-64914202D01*
X168892344Y-64916753D01*
X168950573Y-64943045D01*
X168955773Y-64944009D01*
X169013975Y-64982922D01*
X169042293Y-65048027D01*
X169043271Y-65063695D01*
X169043271Y-65549322D01*
X169043250Y-65551630D01*
X169042088Y-65615020D01*
X169042641Y-65619459D01*
X169057968Y-65742502D01*
X169060093Y-65759565D01*
X169097766Y-65897745D01*
X169099548Y-65901862D01*
X169099549Y-65901866D01*
X169125637Y-65962151D01*
X169155612Y-66031420D01*
X169230552Y-66153472D01*
X169233415Y-66156920D01*
X169233416Y-66156922D01*
X169302804Y-66240500D01*
X169323592Y-66265540D01*
X169429776Y-66361654D01*
X169433492Y-66364161D01*
X169433494Y-66364162D01*
X169546817Y-66440599D01*
X169546822Y-66440602D01*
X169550536Y-66443107D01*
X169554573Y-66445063D01*
X169554575Y-66445064D01*
X169585882Y-66460232D01*
X169679428Y-66505554D01*
X169818188Y-66549838D01*
X169959426Y-66573600D01*
X170038373Y-66580682D01*
X170040795Y-66580712D01*
X170040802Y-66580712D01*
X170044116Y-66580752D01*
X170050715Y-66580833D01*
X170125035Y-66575995D01*
X170133221Y-66575729D01*
X170477519Y-66575729D01*
X170488778Y-66576233D01*
X170538373Y-66580682D01*
X170540795Y-66580712D01*
X170540802Y-66580712D01*
X170544116Y-66580752D01*
X170550715Y-66580833D01*
X170587007Y-66578471D01*
X170627408Y-66575841D01*
X170627418Y-66575840D01*
X170629829Y-66575683D01*
X170647202Y-66573195D01*
X170767161Y-66556016D01*
X170767167Y-66556015D01*
X170771606Y-66555379D01*
X170775911Y-66554120D01*
X170775916Y-66554119D01*
X170907108Y-66515755D01*
X170911410Y-66514497D01*
X171041789Y-66455217D01*
X171045560Y-66452805D01*
X171045568Y-66452801D01*
X171160721Y-66379157D01*
X171160722Y-66379156D01*
X171164497Y-66376742D01*
X171167893Y-66373816D01*
X171167900Y-66373811D01*
X171252347Y-66301047D01*
X171317009Y-66271733D01*
X171334594Y-66270500D01*
X175404184Y-66270500D01*
X175472305Y-66290502D01*
X175518798Y-66344158D01*
X175528902Y-66414432D01*
X175518379Y-66449750D01*
X175437513Y-66623170D01*
X175423716Y-66652757D01*
X175422294Y-66658065D01*
X175422293Y-66658067D01*
X175375314Y-66833393D01*
X175364457Y-66873913D01*
X175344502Y-67102000D01*
X175364457Y-67330087D01*
X175365881Y-67335400D01*
X175365881Y-67335402D01*
X175390680Y-67427950D01*
X175423716Y-67551243D01*
X175426039Y-67556224D01*
X175426039Y-67556225D01*
X175518151Y-67753762D01*
X175518154Y-67753767D01*
X175520477Y-67758749D01*
X175530636Y-67773257D01*
X175637378Y-67925700D01*
X175651802Y-67946300D01*
X175813700Y-68108198D01*
X175818208Y-68111355D01*
X175818211Y-68111357D01*
X175827981Y-68118198D01*
X176001251Y-68239523D01*
X176006232Y-68241846D01*
X176006243Y-68241852D01*
X176063311Y-68268463D01*
X176116595Y-68315380D01*
X176136056Y-68383657D01*
X176115514Y-68451617D01*
X176063309Y-68496852D01*
X175878242Y-68583149D01*
X175878239Y-68583151D01*
X175873251Y-68585477D01*
X175768389Y-68658902D01*
X175690211Y-68713643D01*
X175690208Y-68713645D01*
X175685700Y-68716802D01*
X175523802Y-68878700D01*
X175520645Y-68883208D01*
X175520643Y-68883211D01*
X175465902Y-68961389D01*
X175392477Y-69066251D01*
X175390154Y-69071233D01*
X175390151Y-69071238D01*
X175337161Y-69184877D01*
X175295716Y-69273757D01*
X175294294Y-69279065D01*
X175294293Y-69279067D01*
X175273019Y-69358461D01*
X175236457Y-69494913D01*
X175216502Y-69723000D01*
X175216981Y-69728475D01*
X175216981Y-69728479D01*
X175216984Y-69728513D01*
X175216981Y-69728528D01*
X175216981Y-69733982D01*
X175215885Y-69733982D01*
X175202998Y-69798118D01*
X175153601Y-69849113D01*
X175091464Y-69865500D01*
X170373911Y-69865500D01*
X170365342Y-69865208D01*
X170315223Y-69861791D01*
X170315219Y-69861791D01*
X170307647Y-69861275D01*
X170244685Y-69872264D01*
X170238195Y-69873221D01*
X170174758Y-69880898D01*
X170167649Y-69883584D01*
X170165078Y-69884216D01*
X170148772Y-69888676D01*
X170146204Y-69889451D01*
X170138716Y-69890758D01*
X170103722Y-69906119D01*
X170080212Y-69916439D01*
X170074105Y-69918931D01*
X170021452Y-69938827D01*
X170014344Y-69941513D01*
X170008083Y-69945816D01*
X170005717Y-69947053D01*
X169990937Y-69955280D01*
X169988652Y-69956631D01*
X169981695Y-69959685D01*
X169975675Y-69964305D01*
X169975669Y-69964308D01*
X169944542Y-69988194D01*
X169930998Y-69998587D01*
X169925668Y-70002459D01*
X169879280Y-70034339D01*
X169879275Y-70034344D01*
X169873019Y-70038643D01*
X169867968Y-70044313D01*
X169867966Y-70044314D01*
X169831565Y-70085170D01*
X169826584Y-70090446D01*
X169720235Y-70196795D01*
X169657923Y-70230821D01*
X169631140Y-70233700D01*
X169148506Y-70233700D01*
X169080385Y-70213698D01*
X169033892Y-70160042D01*
X169023788Y-70089768D01*
X169026799Y-70075089D01*
X169058625Y-69956312D01*
X169060528Y-69945519D01*
X169079517Y-69728475D01*
X169079517Y-69717525D01*
X169060528Y-69500481D01*
X169058625Y-69489688D01*
X169002236Y-69279239D01*
X168998490Y-69268947D01*
X168906414Y-69071489D01*
X168900931Y-69061994D01*
X168864491Y-69009952D01*
X168854012Y-69001576D01*
X168840566Y-69008644D01*
X167610245Y-70238965D01*
X167571798Y-70265242D01*
X167527587Y-70284650D01*
X167521501Y-70287133D01*
X167461744Y-70309713D01*
X167455481Y-70314017D01*
X167453115Y-70315254D01*
X167438303Y-70323499D01*
X167436049Y-70324832D01*
X167429095Y-70327885D01*
X167378398Y-70366787D01*
X167373068Y-70370659D01*
X167326680Y-70402539D01*
X167326675Y-70402544D01*
X167320419Y-70406843D01*
X167315368Y-70412513D01*
X167315366Y-70412514D01*
X167278965Y-70453370D01*
X167273984Y-70458646D01*
X166340480Y-71392150D01*
X166334215Y-71398004D01*
X166290615Y-71436039D01*
X166286248Y-71442253D01*
X166253872Y-71488319D01*
X166249939Y-71493614D01*
X166210524Y-71543882D01*
X166207401Y-71550798D01*
X166206017Y-71553084D01*
X166197643Y-71567765D01*
X166196378Y-71570125D01*
X166192010Y-71576339D01*
X166189250Y-71583418D01*
X166189249Y-71583420D01*
X166168798Y-71635875D01*
X166166247Y-71641944D01*
X166139955Y-71700173D01*
X166138571Y-71707640D01*
X166137770Y-71710195D01*
X166133141Y-71726448D01*
X166132479Y-71729028D01*
X166129718Y-71736109D01*
X166125794Y-71765920D01*
X166125652Y-71766995D01*
X166096930Y-71831922D01*
X166037666Y-71871015D01*
X165966674Y-71871860D01*
X165959754Y-71869633D01*
X165955643Y-71867716D01*
X165950335Y-71866294D01*
X165950333Y-71866293D01*
X165739802Y-71809881D01*
X165739800Y-71809881D01*
X165734487Y-71808457D01*
X165506400Y-71788502D01*
X165278313Y-71808457D01*
X165273000Y-71809881D01*
X165272998Y-71809881D01*
X165062467Y-71866293D01*
X165062465Y-71866294D01*
X165057157Y-71867716D01*
X165052176Y-71870039D01*
X165052175Y-71870039D01*
X164854638Y-71962151D01*
X164854633Y-71962154D01*
X164849651Y-71964477D01*
X164744789Y-72037902D01*
X164666611Y-72092643D01*
X164666608Y-72092645D01*
X164662100Y-72095802D01*
X164500202Y-72257700D01*
X164497045Y-72262208D01*
X164497043Y-72262211D01*
X164464849Y-72308189D01*
X164368877Y-72445251D01*
X164366554Y-72450233D01*
X164366551Y-72450238D01*
X164350595Y-72484457D01*
X164303678Y-72537742D01*
X164235401Y-72557203D01*
X164167441Y-72536661D01*
X164122205Y-72484457D01*
X164106249Y-72450238D01*
X164106246Y-72450233D01*
X164103923Y-72445251D01*
X164007951Y-72308189D01*
X163975757Y-72262211D01*
X163975755Y-72262208D01*
X163972598Y-72257700D01*
X163810700Y-72095802D01*
X163806192Y-72092645D01*
X163806189Y-72092643D01*
X163728011Y-72037902D01*
X163623149Y-71964477D01*
X163618167Y-71962154D01*
X163618162Y-71962151D01*
X163420625Y-71870039D01*
X163420624Y-71870039D01*
X163415643Y-71867716D01*
X163410335Y-71866294D01*
X163410333Y-71866293D01*
X163199802Y-71809881D01*
X163199800Y-71809881D01*
X163194487Y-71808457D01*
X162966400Y-71788502D01*
X162738313Y-71808457D01*
X162733000Y-71809881D01*
X162732998Y-71809881D01*
X162522467Y-71866293D01*
X162522465Y-71866294D01*
X162517157Y-71867716D01*
X162512176Y-71870039D01*
X162512175Y-71870039D01*
X162314638Y-71962151D01*
X162314633Y-71962154D01*
X162309651Y-71964477D01*
X162204789Y-72037902D01*
X162126611Y-72092643D01*
X162126608Y-72092645D01*
X162122100Y-72095802D01*
X161960202Y-72257700D01*
X161957045Y-72262208D01*
X161957043Y-72262211D01*
X161924849Y-72308189D01*
X161828877Y-72445251D01*
X161826554Y-72450233D01*
X161826551Y-72450238D01*
X161810595Y-72484457D01*
X161763678Y-72537742D01*
X161695401Y-72557203D01*
X161627441Y-72536661D01*
X161582205Y-72484457D01*
X161566249Y-72450238D01*
X161566246Y-72450233D01*
X161563923Y-72445251D01*
X161467951Y-72308189D01*
X161435757Y-72262211D01*
X161435755Y-72262208D01*
X161432598Y-72257700D01*
X161270700Y-72095802D01*
X161266192Y-72092645D01*
X161266189Y-72092643D01*
X161188011Y-72037902D01*
X161083149Y-71964477D01*
X161078167Y-71962154D01*
X161078162Y-71962151D01*
X160880625Y-71870039D01*
X160880624Y-71870039D01*
X160875643Y-71867716D01*
X160870335Y-71866294D01*
X160870333Y-71866293D01*
X160659802Y-71809881D01*
X160659800Y-71809881D01*
X160654487Y-71808457D01*
X160426400Y-71788502D01*
X160198313Y-71808457D01*
X160193000Y-71809881D01*
X160192998Y-71809881D01*
X159982467Y-71866293D01*
X159982465Y-71866294D01*
X159977157Y-71867716D01*
X159972176Y-71870039D01*
X159972175Y-71870039D01*
X159774638Y-71962151D01*
X159774633Y-71962154D01*
X159769651Y-71964477D01*
X159664789Y-72037902D01*
X159586611Y-72092643D01*
X159586608Y-72092645D01*
X159582100Y-72095802D01*
X159420202Y-72257700D01*
X159417045Y-72262208D01*
X159417043Y-72262211D01*
X159384849Y-72308189D01*
X159288877Y-72445251D01*
X159286554Y-72450233D01*
X159286551Y-72450238D01*
X159270595Y-72484457D01*
X159223678Y-72537742D01*
X159155401Y-72557203D01*
X159087441Y-72536661D01*
X159042205Y-72484457D01*
X159026249Y-72450238D01*
X159026246Y-72450233D01*
X159023923Y-72445251D01*
X158927951Y-72308189D01*
X158895757Y-72262211D01*
X158895755Y-72262208D01*
X158892598Y-72257700D01*
X158730700Y-72095802D01*
X158726192Y-72092645D01*
X158726189Y-72092643D01*
X158648011Y-72037902D01*
X158543149Y-71964477D01*
X158538167Y-71962154D01*
X158538162Y-71962151D01*
X158340625Y-71870039D01*
X158340624Y-71870039D01*
X158335643Y-71867716D01*
X158330335Y-71866294D01*
X158330333Y-71866293D01*
X158119802Y-71809881D01*
X158119800Y-71809881D01*
X158114487Y-71808457D01*
X157886400Y-71788502D01*
X157658313Y-71808457D01*
X157653000Y-71809881D01*
X157652998Y-71809881D01*
X157511611Y-71847766D01*
X157440635Y-71846076D01*
X157381839Y-71806282D01*
X157353891Y-71741018D01*
X157353000Y-71726059D01*
X157353000Y-71247000D01*
X149096598Y-71247000D01*
X149028477Y-71226998D01*
X148981984Y-71173342D01*
X148970599Y-71121403D01*
X148957757Y-67102000D01*
X158707502Y-67102000D01*
X158727457Y-67330087D01*
X158728881Y-67335400D01*
X158728881Y-67335402D01*
X158753680Y-67427950D01*
X158786716Y-67551243D01*
X158789039Y-67556224D01*
X158789039Y-67556225D01*
X158881151Y-67753762D01*
X158881154Y-67753767D01*
X158883477Y-67758749D01*
X158893636Y-67773257D01*
X159000378Y-67925700D01*
X159014802Y-67946300D01*
X159176700Y-68108198D01*
X159181208Y-68111355D01*
X159181211Y-68111357D01*
X159190981Y-68118198D01*
X159364251Y-68239523D01*
X159369233Y-68241846D01*
X159369238Y-68241849D01*
X159553310Y-68327682D01*
X159606595Y-68374599D01*
X159626056Y-68442876D01*
X159605514Y-68510836D01*
X159553310Y-68556072D01*
X159495238Y-68583151D01*
X159495233Y-68583154D01*
X159490251Y-68585477D01*
X159385389Y-68658902D01*
X159307211Y-68713643D01*
X159307208Y-68713645D01*
X159302700Y-68716802D01*
X159140802Y-68878700D01*
X159137645Y-68883208D01*
X159137643Y-68883211D01*
X159082902Y-68961389D01*
X159009477Y-69066251D01*
X159007154Y-69071233D01*
X159007151Y-69071238D01*
X158954161Y-69184877D01*
X158912716Y-69273757D01*
X158911294Y-69279065D01*
X158911293Y-69279067D01*
X158890019Y-69358461D01*
X158853457Y-69494913D01*
X158833502Y-69723000D01*
X158853457Y-69951087D01*
X158854881Y-69956400D01*
X158854881Y-69956402D01*
X158892025Y-70095022D01*
X158912716Y-70172243D01*
X158915039Y-70177224D01*
X158915039Y-70177225D01*
X159007151Y-70374762D01*
X159007154Y-70374767D01*
X159009477Y-70379749D01*
X159140802Y-70567300D01*
X159302700Y-70729198D01*
X159307208Y-70732355D01*
X159307211Y-70732357D01*
X159368923Y-70775568D01*
X159490251Y-70860523D01*
X159495233Y-70862846D01*
X159495238Y-70862849D01*
X159691765Y-70954490D01*
X159697757Y-70957284D01*
X159703065Y-70958706D01*
X159703067Y-70958707D01*
X159913598Y-71015119D01*
X159913600Y-71015119D01*
X159918913Y-71016543D01*
X160147000Y-71036498D01*
X160375087Y-71016543D01*
X160380400Y-71015119D01*
X160380402Y-71015119D01*
X160590933Y-70958707D01*
X160590935Y-70958706D01*
X160596243Y-70957284D01*
X160602235Y-70954490D01*
X160798762Y-70862849D01*
X160798767Y-70862846D01*
X160803749Y-70860523D01*
X160925077Y-70775568D01*
X160986789Y-70732357D01*
X160986792Y-70732355D01*
X160991300Y-70729198D01*
X161153198Y-70567300D01*
X161284523Y-70379749D01*
X161286846Y-70374767D01*
X161286849Y-70374762D01*
X161378961Y-70177225D01*
X161378961Y-70177224D01*
X161381284Y-70172243D01*
X161401976Y-70095022D01*
X161439119Y-69956402D01*
X161439119Y-69956400D01*
X161440543Y-69951087D01*
X161460019Y-69728475D01*
X166454483Y-69728475D01*
X166473472Y-69945519D01*
X166475375Y-69956312D01*
X166531764Y-70166761D01*
X166535510Y-70177053D01*
X166627586Y-70374511D01*
X166633069Y-70384006D01*
X166669509Y-70436048D01*
X166679988Y-70444424D01*
X166693434Y-70437356D01*
X167394978Y-69735812D01*
X167402592Y-69721868D01*
X167402461Y-69720035D01*
X167398210Y-69713420D01*
X166692713Y-69007923D01*
X166680938Y-69001493D01*
X166668923Y-69010789D01*
X166633069Y-69061994D01*
X166627586Y-69071489D01*
X166535510Y-69268947D01*
X166531764Y-69279239D01*
X166475375Y-69489688D01*
X166473472Y-69500481D01*
X166454483Y-69717525D01*
X166454483Y-69728475D01*
X161460019Y-69728475D01*
X161460498Y-69723000D01*
X161440543Y-69494913D01*
X161403981Y-69358461D01*
X161382707Y-69279067D01*
X161382706Y-69279065D01*
X161381284Y-69273757D01*
X161339839Y-69184877D01*
X161286849Y-69071238D01*
X161286846Y-69071233D01*
X161284523Y-69066251D01*
X161211098Y-68961389D01*
X161156357Y-68883211D01*
X161156355Y-68883208D01*
X161153198Y-68878700D01*
X160991300Y-68716802D01*
X160986792Y-68713645D01*
X160986789Y-68713643D01*
X160908611Y-68658902D01*
X160875886Y-68635988D01*
X167045576Y-68635988D01*
X167052644Y-68649434D01*
X167754188Y-69350978D01*
X167768132Y-69358592D01*
X167769965Y-69358461D01*
X167776580Y-69354210D01*
X168482077Y-68648713D01*
X168488507Y-68636938D01*
X168479211Y-68624923D01*
X168428006Y-68589069D01*
X168418511Y-68583586D01*
X168221053Y-68491510D01*
X168210761Y-68487764D01*
X168000312Y-68431375D01*
X167989519Y-68429472D01*
X167772475Y-68410483D01*
X167761525Y-68410483D01*
X167544481Y-68429472D01*
X167533688Y-68431375D01*
X167323239Y-68487764D01*
X167312947Y-68491510D01*
X167115489Y-68583586D01*
X167105994Y-68589069D01*
X167053952Y-68625509D01*
X167045576Y-68635988D01*
X160875886Y-68635988D01*
X160803749Y-68585477D01*
X160798767Y-68583154D01*
X160798762Y-68583151D01*
X160614690Y-68497318D01*
X160561405Y-68450401D01*
X160541944Y-68382124D01*
X160562486Y-68314164D01*
X160614690Y-68268928D01*
X160672762Y-68241849D01*
X160672767Y-68241846D01*
X160677749Y-68239523D01*
X160851019Y-68118198D01*
X160860789Y-68111357D01*
X160860792Y-68111355D01*
X160865300Y-68108198D01*
X161027198Y-67946300D01*
X161041623Y-67925700D01*
X161148364Y-67773257D01*
X161158523Y-67758749D01*
X161160846Y-67753767D01*
X161160849Y-67753762D01*
X161176805Y-67719543D01*
X161223722Y-67666258D01*
X161291999Y-67646797D01*
X161359959Y-67667339D01*
X161405195Y-67719543D01*
X161421151Y-67753762D01*
X161421154Y-67753767D01*
X161423477Y-67758749D01*
X161433636Y-67773257D01*
X161540378Y-67925700D01*
X161554802Y-67946300D01*
X161716700Y-68108198D01*
X161721208Y-68111355D01*
X161721211Y-68111357D01*
X161730981Y-68118198D01*
X161904251Y-68239523D01*
X161909233Y-68241846D01*
X161909238Y-68241849D01*
X162094309Y-68328148D01*
X162111757Y-68336284D01*
X162117065Y-68337706D01*
X162117067Y-68337707D01*
X162327598Y-68394119D01*
X162327600Y-68394119D01*
X162332913Y-68395543D01*
X162561000Y-68415498D01*
X162789087Y-68395543D01*
X162794400Y-68394119D01*
X162794402Y-68394119D01*
X163004933Y-68337707D01*
X163004935Y-68337706D01*
X163010243Y-68336284D01*
X163027691Y-68328148D01*
X163212762Y-68241849D01*
X163212767Y-68241846D01*
X163217749Y-68239523D01*
X163391019Y-68118198D01*
X163400789Y-68111357D01*
X163400792Y-68111355D01*
X163405300Y-68108198D01*
X163567198Y-67946300D01*
X163581623Y-67925700D01*
X163688364Y-67773257D01*
X163698523Y-67758749D01*
X163700846Y-67753767D01*
X163700849Y-67753762D01*
X163792961Y-67556225D01*
X163792961Y-67556224D01*
X163795284Y-67551243D01*
X163828321Y-67427950D01*
X163853119Y-67335402D01*
X163853119Y-67335400D01*
X163854543Y-67330087D01*
X163874498Y-67102000D01*
X163870474Y-67056000D01*
X164497702Y-67056000D01*
X164517657Y-67284087D01*
X164519081Y-67289400D01*
X164519081Y-67289402D01*
X164522995Y-67304007D01*
X164576916Y-67505243D01*
X164579239Y-67510224D01*
X164579239Y-67510225D01*
X164671351Y-67707762D01*
X164671354Y-67707767D01*
X164673677Y-67712749D01*
X164694619Y-67742657D01*
X164774967Y-67857405D01*
X164805002Y-67900300D01*
X164966900Y-68062198D01*
X164971408Y-68065355D01*
X164971411Y-68065357D01*
X164997609Y-68083701D01*
X165154451Y-68193523D01*
X165159433Y-68195846D01*
X165159438Y-68195849D01*
X165356975Y-68287961D01*
X165361957Y-68290284D01*
X165367265Y-68291706D01*
X165367267Y-68291707D01*
X165577798Y-68348119D01*
X165577800Y-68348119D01*
X165583113Y-68349543D01*
X165811200Y-68369498D01*
X166039287Y-68349543D01*
X166044600Y-68348119D01*
X166044602Y-68348119D01*
X166255133Y-68291707D01*
X166255135Y-68291706D01*
X166260443Y-68290284D01*
X166265425Y-68287961D01*
X166462962Y-68195849D01*
X166462967Y-68195846D01*
X166467949Y-68193523D01*
X166624791Y-68083701D01*
X166650989Y-68065357D01*
X166650992Y-68065355D01*
X166655500Y-68062198D01*
X166817398Y-67900300D01*
X166847434Y-67857405D01*
X166927781Y-67742657D01*
X166948723Y-67712749D01*
X166951046Y-67707767D01*
X166951049Y-67707762D01*
X167043161Y-67510225D01*
X167043161Y-67510224D01*
X167045484Y-67505243D01*
X167099406Y-67304007D01*
X167103319Y-67289402D01*
X167103319Y-67289400D01*
X167104743Y-67284087D01*
X167124698Y-67056000D01*
X167104743Y-66827913D01*
X167093526Y-66786050D01*
X167046907Y-66612067D01*
X167046906Y-66612065D01*
X167045484Y-66606757D01*
X167033322Y-66580675D01*
X166951049Y-66404238D01*
X166951046Y-66404233D01*
X166948723Y-66399251D01*
X166858570Y-66270500D01*
X166820557Y-66216211D01*
X166820555Y-66216208D01*
X166817398Y-66211700D01*
X166655500Y-66049802D01*
X166650992Y-66046645D01*
X166650989Y-66046643D01*
X166538152Y-65967634D01*
X166467949Y-65918477D01*
X166462967Y-65916154D01*
X166462962Y-65916151D01*
X166265425Y-65824039D01*
X166265424Y-65824039D01*
X166260443Y-65821716D01*
X166255135Y-65820294D01*
X166255133Y-65820293D01*
X166044602Y-65763881D01*
X166044600Y-65763881D01*
X166039287Y-65762457D01*
X165811200Y-65742502D01*
X165583113Y-65762457D01*
X165577800Y-65763881D01*
X165577798Y-65763881D01*
X165367267Y-65820293D01*
X165367265Y-65820294D01*
X165361957Y-65821716D01*
X165356976Y-65824039D01*
X165356975Y-65824039D01*
X165159438Y-65916151D01*
X165159433Y-65916154D01*
X165154451Y-65918477D01*
X165084248Y-65967634D01*
X164971411Y-66046643D01*
X164971408Y-66046645D01*
X164966900Y-66049802D01*
X164805002Y-66211700D01*
X164801845Y-66216208D01*
X164801843Y-66216211D01*
X164763830Y-66270500D01*
X164673677Y-66399251D01*
X164671354Y-66404233D01*
X164671351Y-66404238D01*
X164589078Y-66580675D01*
X164576916Y-66606757D01*
X164575494Y-66612065D01*
X164575493Y-66612067D01*
X164528874Y-66786050D01*
X164517657Y-66827913D01*
X164497702Y-67056000D01*
X163870474Y-67056000D01*
X163854543Y-66873913D01*
X163843686Y-66833393D01*
X163796707Y-66658067D01*
X163796706Y-66658065D01*
X163795284Y-66652757D01*
X163782749Y-66625876D01*
X163700849Y-66450238D01*
X163700846Y-66450233D01*
X163698523Y-66445251D01*
X163613211Y-66323413D01*
X163570357Y-66262211D01*
X163570355Y-66262208D01*
X163567198Y-66257700D01*
X163405300Y-66095802D01*
X163400792Y-66092645D01*
X163400789Y-66092643D01*
X163313353Y-66031420D01*
X163217749Y-65964477D01*
X163212767Y-65962154D01*
X163212762Y-65962151D01*
X163015225Y-65870039D01*
X163015224Y-65870039D01*
X163010243Y-65867716D01*
X163004935Y-65866294D01*
X163004933Y-65866293D01*
X162794402Y-65809881D01*
X162794400Y-65809881D01*
X162789087Y-65808457D01*
X162561000Y-65788502D01*
X162332913Y-65808457D01*
X162327600Y-65809881D01*
X162327598Y-65809881D01*
X162117067Y-65866293D01*
X162117065Y-65866294D01*
X162111757Y-65867716D01*
X162106776Y-65870039D01*
X162106775Y-65870039D01*
X161909238Y-65962151D01*
X161909233Y-65962154D01*
X161904251Y-65964477D01*
X161808647Y-66031420D01*
X161721211Y-66092643D01*
X161721208Y-66092645D01*
X161716700Y-66095802D01*
X161554802Y-66257700D01*
X161551645Y-66262208D01*
X161551643Y-66262211D01*
X161508789Y-66323413D01*
X161423477Y-66445251D01*
X161421154Y-66450233D01*
X161421151Y-66450238D01*
X161405195Y-66484457D01*
X161358278Y-66537742D01*
X161290001Y-66557203D01*
X161222041Y-66536661D01*
X161176805Y-66484457D01*
X161160849Y-66450238D01*
X161160846Y-66450233D01*
X161158523Y-66445251D01*
X161073211Y-66323413D01*
X161030357Y-66262211D01*
X161030355Y-66262208D01*
X161027198Y-66257700D01*
X160865300Y-66095802D01*
X160860792Y-66092645D01*
X160860789Y-66092643D01*
X160773353Y-66031420D01*
X160677749Y-65964477D01*
X160672767Y-65962154D01*
X160672762Y-65962151D01*
X160475225Y-65870039D01*
X160475224Y-65870039D01*
X160470243Y-65867716D01*
X160464935Y-65866294D01*
X160464933Y-65866293D01*
X160254402Y-65809881D01*
X160254400Y-65809881D01*
X160249087Y-65808457D01*
X160021000Y-65788502D01*
X159792913Y-65808457D01*
X159787600Y-65809881D01*
X159787598Y-65809881D01*
X159577067Y-65866293D01*
X159577065Y-65866294D01*
X159571757Y-65867716D01*
X159566776Y-65870039D01*
X159566775Y-65870039D01*
X159369238Y-65962151D01*
X159369233Y-65962154D01*
X159364251Y-65964477D01*
X159268647Y-66031420D01*
X159181211Y-66092643D01*
X159181208Y-66092645D01*
X159176700Y-66095802D01*
X159014802Y-66257700D01*
X159011645Y-66262208D01*
X159011643Y-66262211D01*
X158968789Y-66323413D01*
X158883477Y-66445251D01*
X158881154Y-66450233D01*
X158881151Y-66450238D01*
X158799251Y-66625876D01*
X158786716Y-66652757D01*
X158785294Y-66658065D01*
X158785293Y-66658067D01*
X158738314Y-66833393D01*
X158727457Y-66873913D01*
X158707502Y-67102000D01*
X148957757Y-67102000D01*
X148934264Y-59748522D01*
X158738273Y-59748522D01*
X158785764Y-59925761D01*
X158789510Y-59936053D01*
X158881586Y-60133511D01*
X158887069Y-60143007D01*
X159012028Y-60321467D01*
X159019084Y-60329875D01*
X159173125Y-60483916D01*
X159181533Y-60490972D01*
X159359993Y-60615931D01*
X159369489Y-60621414D01*
X159566947Y-60713490D01*
X159577239Y-60717236D01*
X159749503Y-60763394D01*
X159763599Y-60763058D01*
X159767000Y-60755116D01*
X159767000Y-60749967D01*
X160275000Y-60749967D01*
X160278973Y-60763498D01*
X160287522Y-60764727D01*
X160464761Y-60717236D01*
X160475053Y-60713490D01*
X160672511Y-60621414D01*
X160682007Y-60615931D01*
X160860467Y-60490972D01*
X160868875Y-60483916D01*
X161022916Y-60329875D01*
X161033507Y-60317254D01*
X161034525Y-60318108D01*
X161084984Y-60277776D01*
X161155603Y-60270468D01*
X161218963Y-60302500D01*
X161254947Y-60363702D01*
X161258000Y-60380762D01*
X161259255Y-60392316D01*
X161310385Y-60528705D01*
X161397739Y-60645261D01*
X161514295Y-60732615D01*
X161650684Y-60783745D01*
X161712866Y-60790500D01*
X163409134Y-60790500D01*
X163471316Y-60783745D01*
X163607705Y-60732615D01*
X163724261Y-60645261D01*
X163811615Y-60528705D01*
X163862745Y-60392316D01*
X163869500Y-60330134D01*
X163869500Y-59436000D01*
X164497702Y-59436000D01*
X164517657Y-59664087D01*
X164519081Y-59669400D01*
X164519081Y-59669402D01*
X164544460Y-59764115D01*
X164576916Y-59885243D01*
X164579239Y-59890224D01*
X164579239Y-59890225D01*
X164671351Y-60087762D01*
X164671354Y-60087767D01*
X164673677Y-60092749D01*
X164694619Y-60122657D01*
X164798118Y-60270468D01*
X164805002Y-60280300D01*
X164966900Y-60442198D01*
X164971408Y-60445355D01*
X164971411Y-60445357D01*
X164997609Y-60463701D01*
X165154451Y-60573523D01*
X165159433Y-60575846D01*
X165159438Y-60575849D01*
X165356975Y-60667961D01*
X165361957Y-60670284D01*
X165367265Y-60671706D01*
X165367267Y-60671707D01*
X165577798Y-60728119D01*
X165577800Y-60728119D01*
X165583113Y-60729543D01*
X165811200Y-60749498D01*
X166039287Y-60729543D01*
X166044600Y-60728119D01*
X166044602Y-60728119D01*
X166255133Y-60671707D01*
X166255135Y-60671706D01*
X166260443Y-60670284D01*
X166265425Y-60667961D01*
X166462962Y-60575849D01*
X166462967Y-60575846D01*
X166467949Y-60573523D01*
X166624791Y-60463701D01*
X166650989Y-60445357D01*
X166650992Y-60445355D01*
X166655500Y-60442198D01*
X166817398Y-60280300D01*
X166824283Y-60270468D01*
X166927781Y-60122657D01*
X166948723Y-60092749D01*
X166951046Y-60087767D01*
X166951049Y-60087762D01*
X167043161Y-59890225D01*
X167043161Y-59890224D01*
X167045484Y-59885243D01*
X167077941Y-59764115D01*
X167103319Y-59669402D01*
X167103319Y-59669400D01*
X167104743Y-59664087D01*
X167124698Y-59436000D01*
X167104743Y-59207913D01*
X167059279Y-59038239D01*
X167046907Y-58992067D01*
X167046906Y-58992065D01*
X167045484Y-58986757D01*
X166972616Y-58830489D01*
X166951049Y-58784238D01*
X166951046Y-58784233D01*
X166948723Y-58779251D01*
X166854562Y-58644775D01*
X166820557Y-58596211D01*
X166820555Y-58596208D01*
X166817398Y-58591700D01*
X166655500Y-58429802D01*
X166650992Y-58426645D01*
X166650989Y-58426643D01*
X166545224Y-58352586D01*
X166467949Y-58298477D01*
X166462967Y-58296154D01*
X166462962Y-58296151D01*
X166265425Y-58204039D01*
X166265424Y-58204039D01*
X166260443Y-58201716D01*
X166255135Y-58200294D01*
X166255133Y-58200293D01*
X166044602Y-58143881D01*
X166044600Y-58143881D01*
X166039287Y-58142457D01*
X165811200Y-58122502D01*
X165583113Y-58142457D01*
X165577800Y-58143881D01*
X165577798Y-58143881D01*
X165367267Y-58200293D01*
X165367265Y-58200294D01*
X165361957Y-58201716D01*
X165356976Y-58204039D01*
X165356975Y-58204039D01*
X165159438Y-58296151D01*
X165159433Y-58296154D01*
X165154451Y-58298477D01*
X165077176Y-58352586D01*
X164971411Y-58426643D01*
X164971408Y-58426645D01*
X164966900Y-58429802D01*
X164805002Y-58591700D01*
X164801845Y-58596208D01*
X164801843Y-58596211D01*
X164767838Y-58644775D01*
X164673677Y-58779251D01*
X164671354Y-58784233D01*
X164671351Y-58784238D01*
X164649784Y-58830489D01*
X164576916Y-58986757D01*
X164575494Y-58992065D01*
X164575493Y-58992067D01*
X164563121Y-59038239D01*
X164517657Y-59207913D01*
X164497702Y-59436000D01*
X163869500Y-59436000D01*
X163869500Y-58633866D01*
X163862745Y-58571684D01*
X163811615Y-58435295D01*
X163724261Y-58318739D01*
X163607705Y-58231385D01*
X163471316Y-58180255D01*
X163409134Y-58173500D01*
X161712866Y-58173500D01*
X161650684Y-58180255D01*
X161514295Y-58231385D01*
X161397739Y-58318739D01*
X161310385Y-58435295D01*
X161259255Y-58571684D01*
X161258001Y-58583229D01*
X161256887Y-58585910D01*
X161256575Y-58587222D01*
X161256363Y-58587172D01*
X161230762Y-58648790D01*
X161172401Y-58689218D01*
X161101447Y-58691677D01*
X161040428Y-58655384D01*
X161031853Y-58644775D01*
X161022916Y-58634125D01*
X160868875Y-58480084D01*
X160860467Y-58473028D01*
X160682007Y-58348069D01*
X160672511Y-58342586D01*
X160475053Y-58250510D01*
X160464761Y-58246764D01*
X160292497Y-58200606D01*
X160278401Y-58200942D01*
X160275000Y-58208884D01*
X160275000Y-60749967D01*
X159767000Y-60749967D01*
X159767000Y-59754115D01*
X159762525Y-59738876D01*
X159761135Y-59737671D01*
X159753452Y-59736000D01*
X158753033Y-59736000D01*
X158739502Y-59739973D01*
X158738273Y-59748522D01*
X148934264Y-59748522D01*
X148932545Y-59210503D01*
X158739606Y-59210503D01*
X158739942Y-59224599D01*
X158747884Y-59228000D01*
X159748885Y-59228000D01*
X159764124Y-59223525D01*
X159765329Y-59222135D01*
X159767000Y-59214452D01*
X159767000Y-58214033D01*
X159763027Y-58200502D01*
X159754478Y-58199273D01*
X159577239Y-58246764D01*
X159566947Y-58250510D01*
X159369489Y-58342586D01*
X159359993Y-58348069D01*
X159181533Y-58473028D01*
X159173125Y-58480084D01*
X159019084Y-58634125D01*
X159012028Y-58642533D01*
X158887069Y-58820993D01*
X158881586Y-58830489D01*
X158789510Y-59027947D01*
X158785764Y-59038239D01*
X158739606Y-59210503D01*
X148932545Y-59210503D01*
X148911914Y-52752906D01*
X163130839Y-52752906D01*
X163139553Y-52764427D01*
X163246452Y-52842809D01*
X163254351Y-52847745D01*
X163483905Y-52968519D01*
X163492454Y-52972236D01*
X163737327Y-53057749D01*
X163746336Y-53060163D01*
X164001166Y-53108544D01*
X164010423Y-53109598D01*
X164269607Y-53119783D01*
X164278921Y-53119457D01*
X164536753Y-53091220D01*
X164545930Y-53089519D01*
X164796758Y-53023481D01*
X164805574Y-53020445D01*
X165043880Y-52918062D01*
X165052167Y-52913748D01*
X165272718Y-52777266D01*
X165280268Y-52771780D01*
X165285559Y-52767301D01*
X165293997Y-52754497D01*
X165287935Y-52744145D01*
X164223812Y-51680022D01*
X164209868Y-51672408D01*
X164208035Y-51672539D01*
X164201420Y-51676790D01*
X163137497Y-52740713D01*
X163130839Y-52752906D01*
X148911914Y-52752906D01*
X148907301Y-51309132D01*
X148907161Y-51265211D01*
X162398775Y-51265211D01*
X162411220Y-51524288D01*
X162412356Y-51533543D01*
X162462961Y-51787945D01*
X162465449Y-51796917D01*
X162553095Y-52041033D01*
X162556895Y-52049568D01*
X162679658Y-52278042D01*
X162684666Y-52285904D01*
X162754720Y-52379716D01*
X162765979Y-52388165D01*
X162778397Y-52381393D01*
X163838978Y-51320812D01*
X163845356Y-51309132D01*
X164575408Y-51309132D01*
X164575539Y-51310965D01*
X164579790Y-51317580D01*
X165647094Y-52384884D01*
X165659474Y-52391644D01*
X165667815Y-52385400D01*
X165801832Y-52177048D01*
X165806275Y-52168864D01*
X165912807Y-51932370D01*
X165915997Y-51923605D01*
X165986402Y-51673972D01*
X165988262Y-51664830D01*
X166021187Y-51406019D01*
X166021668Y-51399733D01*
X166023987Y-51311160D01*
X166023836Y-51304851D01*
X166020542Y-51260526D01*
X167478050Y-51260526D01*
X167478274Y-51265192D01*
X167478274Y-51265197D01*
X167480946Y-51320812D01*
X167490947Y-51529019D01*
X167543388Y-51792656D01*
X167634220Y-52045646D01*
X167761450Y-52282431D01*
X167764241Y-52286168D01*
X167764245Y-52286175D01*
X167840405Y-52388165D01*
X167922281Y-52497810D01*
X167925590Y-52501090D01*
X167925595Y-52501096D01*
X168109863Y-52683762D01*
X168113180Y-52687050D01*
X168116942Y-52689808D01*
X168116945Y-52689811D01*
X168228737Y-52771780D01*
X168329954Y-52845995D01*
X168334089Y-52848171D01*
X168334093Y-52848173D01*
X168563698Y-52968975D01*
X168567840Y-52971154D01*
X168641546Y-52996893D01*
X168804366Y-53053752D01*
X168821613Y-53059775D01*
X168826206Y-53060647D01*
X169081109Y-53109042D01*
X169081112Y-53109042D01*
X169085698Y-53109913D01*
X169213370Y-53114929D01*
X169349625Y-53120283D01*
X169349630Y-53120283D01*
X169354293Y-53120466D01*
X169458607Y-53109042D01*
X169616844Y-53091713D01*
X169616850Y-53091712D01*
X169621497Y-53091203D01*
X169626021Y-53090012D01*
X169876918Y-53023956D01*
X169876920Y-53023955D01*
X169881441Y-53022765D01*
X169988795Y-52976642D01*
X170124120Y-52918502D01*
X170124122Y-52918501D01*
X170128414Y-52916657D01*
X170247751Y-52842809D01*
X170353017Y-52777669D01*
X170353021Y-52777666D01*
X170356990Y-52775210D01*
X170562149Y-52601530D01*
X170739382Y-52399434D01*
X170746631Y-52388165D01*
X170882269Y-52177291D01*
X170884797Y-52173361D01*
X170995199Y-51928278D01*
X171032247Y-51796917D01*
X171066893Y-51674072D01*
X171066894Y-51674069D01*
X171068163Y-51669568D01*
X171086043Y-51529019D01*
X171101688Y-51406045D01*
X171101688Y-51406041D01*
X171102086Y-51402915D01*
X171102170Y-51399733D01*
X171103477Y-51349779D01*
X171104571Y-51308000D01*
X171084650Y-51039937D01*
X171083619Y-51035379D01*
X171026361Y-50782331D01*
X171026360Y-50782326D01*
X171025327Y-50777763D01*
X170927902Y-50527238D01*
X170794518Y-50293864D01*
X170747068Y-50233673D01*
X170728416Y-50210014D01*
X170628105Y-50082769D01*
X170432317Y-49898591D01*
X170234407Y-49761295D01*
X170215299Y-49748039D01*
X170215296Y-49748037D01*
X170211457Y-49745374D01*
X170169770Y-49724816D01*
X169974564Y-49628551D01*
X169974561Y-49628550D01*
X169970376Y-49626486D01*
X169924207Y-49611707D01*
X169744657Y-49554233D01*
X169714370Y-49544538D01*
X169709763Y-49543788D01*
X169709760Y-49543787D01*
X169496337Y-49509029D01*
X169449063Y-49501330D01*
X169318719Y-49499624D01*
X169184961Y-49497873D01*
X169184958Y-49497873D01*
X169180284Y-49497812D01*
X168913937Y-49534060D01*
X168909451Y-49535368D01*
X168909449Y-49535368D01*
X168844726Y-49554233D01*
X168655874Y-49609278D01*
X168411763Y-49721815D01*
X168407854Y-49724378D01*
X168190881Y-49866631D01*
X168190876Y-49866635D01*
X168186968Y-49869197D01*
X167986426Y-50048188D01*
X167814544Y-50254854D01*
X167675096Y-50484656D01*
X167673287Y-50488970D01*
X167673285Y-50488974D01*
X167657240Y-50527238D01*
X167571148Y-50732545D01*
X167504981Y-50993077D01*
X167478050Y-51260526D01*
X166020542Y-51260526D01*
X166004501Y-51044663D01*
X166003125Y-51035457D01*
X165945878Y-50782467D01*
X165943154Y-50773556D01*
X165849143Y-50531806D01*
X165845132Y-50523397D01*
X165716422Y-50298202D01*
X165711211Y-50290476D01*
X165667996Y-50235658D01*
X165656071Y-50227187D01*
X165644537Y-50233673D01*
X164583022Y-51295188D01*
X164575408Y-51309132D01*
X163845356Y-51309132D01*
X163846592Y-51306868D01*
X163846461Y-51305035D01*
X163842210Y-51298420D01*
X162776816Y-50233026D01*
X162763507Y-50225758D01*
X162753472Y-50232878D01*
X162737937Y-50251556D01*
X162732531Y-50259135D01*
X162597965Y-50480891D01*
X162593736Y-50489192D01*
X162493432Y-50728389D01*
X162490471Y-50737239D01*
X162426628Y-50988625D01*
X162425006Y-50997822D01*
X162399020Y-51255885D01*
X162398775Y-51265211D01*
X148907161Y-51265211D01*
X148902674Y-49860689D01*
X163128102Y-49860689D01*
X163132675Y-49870465D01*
X164198188Y-50935978D01*
X164212132Y-50943592D01*
X164213965Y-50943461D01*
X164220580Y-50939210D01*
X165285349Y-49874441D01*
X165291733Y-49862751D01*
X165282321Y-49850641D01*
X165135045Y-49748471D01*
X165127010Y-49743738D01*
X164894376Y-49629016D01*
X164885743Y-49625528D01*
X164638703Y-49546450D01*
X164629643Y-49544274D01*
X164373630Y-49502580D01*
X164364343Y-49501768D01*
X164104992Y-49498373D01*
X164095681Y-49498943D01*
X163838682Y-49533919D01*
X163829546Y-49535860D01*
X163580543Y-49608439D01*
X163571800Y-49611707D01*
X163336252Y-49720296D01*
X163328097Y-49724816D01*
X163137240Y-49849947D01*
X163128102Y-49860689D01*
X148902674Y-49860689D01*
X148855104Y-34971485D01*
X185474654Y-34971485D01*
X185474956Y-34975320D01*
X185492908Y-35203417D01*
X185500170Y-35295695D01*
X185565006Y-35614378D01*
X185668198Y-35922784D01*
X185808205Y-36216316D01*
X185982941Y-36490597D01*
X185985384Y-36493560D01*
X185985385Y-36493562D01*
X186135108Y-36675190D01*
X186189801Y-36741538D01*
X186425702Y-36965399D01*
X186687126Y-37158843D01*
X186828651Y-37238914D01*
X186966819Y-37317086D01*
X186966823Y-37317088D01*
X186970176Y-37318985D01*
X187270632Y-37443438D01*
X187374088Y-37472129D01*
X187580300Y-37529317D01*
X187580308Y-37529319D01*
X187584016Y-37530347D01*
X187905656Y-37578416D01*
X187908954Y-37578560D01*
X188020718Y-37583440D01*
X188020722Y-37583440D01*
X188022094Y-37583500D01*
X188220398Y-37583500D01*
X188462405Y-37568698D01*
X188466188Y-37567997D01*
X188466195Y-37567996D01*
X188666259Y-37530916D01*
X188782172Y-37509433D01*
X188991482Y-37443438D01*
X189088660Y-37412798D01*
X189088663Y-37412797D01*
X189092332Y-37411640D01*
X189095829Y-37410046D01*
X189095835Y-37410044D01*
X189384754Y-37278376D01*
X189384758Y-37278374D01*
X189388262Y-37276777D01*
X189665551Y-37106854D01*
X189668555Y-37104464D01*
X189668560Y-37104461D01*
X189792808Y-37005629D01*
X189920064Y-36904405D01*
X189922758Y-36901664D01*
X189922762Y-36901660D01*
X190145313Y-36675190D01*
X190145317Y-36675185D01*
X190148008Y-36672447D01*
X190345985Y-36414439D01*
X190511042Y-36134227D01*
X190640720Y-35835988D01*
X190733085Y-35524169D01*
X190786761Y-35203417D01*
X190800946Y-34878515D01*
X190788188Y-34716410D01*
X190775732Y-34558140D01*
X190775732Y-34558137D01*
X190775430Y-34554305D01*
X190710594Y-34235622D01*
X190607402Y-33927216D01*
X190467395Y-33633684D01*
X190292659Y-33359403D01*
X190145270Y-33180606D01*
X190088242Y-33111425D01*
X190088238Y-33111420D01*
X190085799Y-33108462D01*
X189849898Y-32884601D01*
X189588474Y-32691157D01*
X189383581Y-32575234D01*
X189308781Y-32532914D01*
X189308777Y-32532912D01*
X189305424Y-32531015D01*
X189004968Y-32406562D01*
X188901512Y-32377871D01*
X188695300Y-32320683D01*
X188695292Y-32320681D01*
X188691584Y-32319653D01*
X188369944Y-32271584D01*
X188366646Y-32271440D01*
X188254882Y-32266560D01*
X188254878Y-32266560D01*
X188253506Y-32266500D01*
X188055202Y-32266500D01*
X187813195Y-32281302D01*
X187809412Y-32282003D01*
X187809405Y-32282004D01*
X187653311Y-32310935D01*
X187493428Y-32340567D01*
X187308858Y-32398762D01*
X187186940Y-32437202D01*
X187186937Y-32437203D01*
X187183268Y-32438360D01*
X187179771Y-32439954D01*
X187179765Y-32439956D01*
X186890846Y-32571624D01*
X186890842Y-32571626D01*
X186887338Y-32573223D01*
X186610049Y-32743146D01*
X186607045Y-32745536D01*
X186607040Y-32745539D01*
X186482793Y-32844370D01*
X186355536Y-32945595D01*
X186352842Y-32948336D01*
X186352838Y-32948340D01*
X186130287Y-33174810D01*
X186130283Y-33174815D01*
X186127592Y-33177553D01*
X185929615Y-33435561D01*
X185764558Y-33715773D01*
X185634880Y-34014012D01*
X185542515Y-34325831D01*
X185488839Y-34646583D01*
X185474654Y-34971485D01*
X148855104Y-34971485D01*
X148844000Y-31496000D01*
X148844000Y-31114000D01*
X148864002Y-31045879D01*
X148917658Y-30999386D01*
X148970000Y-30988000D01*
X228346788Y-30988000D01*
X228414909Y-31008002D01*
G37*
%TD.AperFunction*%
%TA.AperFunction,Conductor*%
G36*
X181317255Y-66290502D02*
G01*
X181363748Y-66344158D01*
X181373852Y-66414432D01*
X181363329Y-66449750D01*
X181302377Y-66580464D01*
X181290116Y-66606757D01*
X181288694Y-66612065D01*
X181288693Y-66612067D01*
X181242074Y-66786050D01*
X181230857Y-66827913D01*
X181210902Y-67056000D01*
X181230857Y-67284087D01*
X181232281Y-67289400D01*
X181232281Y-67289402D01*
X181236195Y-67304007D01*
X181290116Y-67505243D01*
X181292439Y-67510224D01*
X181292439Y-67510225D01*
X181384551Y-67707762D01*
X181384554Y-67707767D01*
X181386877Y-67712749D01*
X181407819Y-67742657D01*
X181488167Y-67857405D01*
X181518202Y-67900300D01*
X181680100Y-68062198D01*
X181684608Y-68065355D01*
X181684611Y-68065357D01*
X181710809Y-68083701D01*
X181867651Y-68193523D01*
X181872633Y-68195846D01*
X181872638Y-68195849D01*
X182070175Y-68287961D01*
X182075157Y-68290284D01*
X182080465Y-68291706D01*
X182080467Y-68291707D01*
X182290998Y-68348119D01*
X182291000Y-68348119D01*
X182296313Y-68349543D01*
X182524400Y-68369498D01*
X182752487Y-68349543D01*
X182757800Y-68348119D01*
X182757802Y-68348119D01*
X182968333Y-68291707D01*
X182968335Y-68291706D01*
X182973643Y-68290284D01*
X182978625Y-68287961D01*
X183176162Y-68195849D01*
X183176167Y-68195846D01*
X183181149Y-68193523D01*
X183337991Y-68083701D01*
X183364189Y-68065357D01*
X183364192Y-68065355D01*
X183368700Y-68062198D01*
X183530598Y-67900300D01*
X183560634Y-67857405D01*
X183640981Y-67742657D01*
X183661923Y-67712749D01*
X183664246Y-67707767D01*
X183664249Y-67707762D01*
X183756361Y-67510225D01*
X183756361Y-67510224D01*
X183758684Y-67505243D01*
X183812606Y-67304007D01*
X183816519Y-67289402D01*
X183816519Y-67289400D01*
X183817943Y-67284087D01*
X183837898Y-67056000D01*
X183817943Y-66827913D01*
X183806726Y-66786050D01*
X183760107Y-66612067D01*
X183760106Y-66612065D01*
X183758684Y-66606757D01*
X183746424Y-66580464D01*
X183685471Y-66449750D01*
X183674810Y-66379558D01*
X183703790Y-66314745D01*
X183763210Y-66275889D01*
X183799666Y-66270500D01*
X185790515Y-66270500D01*
X185858636Y-66290502D01*
X185875070Y-66303084D01*
X185939776Y-66361654D01*
X185943492Y-66364161D01*
X185943494Y-66364162D01*
X186056817Y-66440599D01*
X186056822Y-66440602D01*
X186060536Y-66443107D01*
X186064573Y-66445063D01*
X186064575Y-66445064D01*
X186095882Y-66460232D01*
X186189428Y-66505554D01*
X186328188Y-66549838D01*
X186469426Y-66573600D01*
X186548373Y-66580682D01*
X186550795Y-66580712D01*
X186550802Y-66580712D01*
X186554116Y-66580752D01*
X186560715Y-66580833D01*
X186635035Y-66575995D01*
X186643221Y-66575729D01*
X186987519Y-66575729D01*
X186998778Y-66576233D01*
X187048373Y-66580682D01*
X187050795Y-66580712D01*
X187050802Y-66580712D01*
X187054116Y-66580752D01*
X187060715Y-66580833D01*
X187097007Y-66578471D01*
X187137408Y-66575841D01*
X187137418Y-66575840D01*
X187139829Y-66575683D01*
X187157202Y-66573195D01*
X187277161Y-66556016D01*
X187277167Y-66556015D01*
X187281606Y-66555379D01*
X187285911Y-66554120D01*
X187285916Y-66554119D01*
X187417108Y-66515755D01*
X187421410Y-66514497D01*
X187551789Y-66455217D01*
X187555560Y-66452805D01*
X187555568Y-66452801D01*
X187670721Y-66379157D01*
X187670722Y-66379156D01*
X187674497Y-66376742D01*
X187677893Y-66373816D01*
X187677900Y-66373811D01*
X187762347Y-66301047D01*
X187827009Y-66271733D01*
X187844594Y-66270500D01*
X189498058Y-66270500D01*
X189566179Y-66290502D01*
X189612672Y-66344158D01*
X189622776Y-66414432D01*
X189593282Y-66479012D01*
X189571998Y-66496774D01*
X189572696Y-66497684D01*
X189572694Y-66497685D01*
X189572695Y-66497685D01*
X189521998Y-66536587D01*
X189516668Y-66540459D01*
X189470280Y-66572339D01*
X189470275Y-66572344D01*
X189464019Y-66576643D01*
X189458968Y-66582313D01*
X189458966Y-66582314D01*
X189422565Y-66623170D01*
X189417584Y-66628446D01*
X185419206Y-70626824D01*
X185356894Y-70660850D01*
X185286079Y-70655785D01*
X185229243Y-70613238D01*
X185204432Y-70546718D01*
X185219523Y-70477344D01*
X185226898Y-70465458D01*
X185283931Y-70384006D01*
X185289414Y-70374511D01*
X185381490Y-70177053D01*
X185385236Y-70166761D01*
X185441625Y-69956312D01*
X185443528Y-69945519D01*
X185462517Y-69728475D01*
X185462517Y-69717525D01*
X185443528Y-69500481D01*
X185441625Y-69489688D01*
X185385236Y-69279239D01*
X185381490Y-69268947D01*
X185289414Y-69071489D01*
X185283931Y-69061994D01*
X185247491Y-69009952D01*
X185237012Y-69001576D01*
X185223566Y-69008644D01*
X183434923Y-70797287D01*
X183428493Y-70809062D01*
X183437789Y-70821077D01*
X183488994Y-70856931D01*
X183498489Y-70862414D01*
X183695947Y-70954490D01*
X183706239Y-70958236D01*
X183916688Y-71014625D01*
X183927481Y-71016528D01*
X184144525Y-71035517D01*
X184155475Y-71035517D01*
X184372519Y-71016528D01*
X184383312Y-71014625D01*
X184593761Y-70958236D01*
X184604053Y-70954490D01*
X184801511Y-70862414D01*
X184811006Y-70856931D01*
X184892458Y-70799898D01*
X184959732Y-70777210D01*
X185028593Y-70794495D01*
X185077177Y-70846265D01*
X185090060Y-70916083D01*
X185063151Y-70981782D01*
X185053824Y-70992206D01*
X175003435Y-81042595D01*
X174941123Y-81076621D01*
X174914340Y-81079500D01*
X169042122Y-81079500D01*
X168974001Y-81059498D01*
X168927508Y-81005842D01*
X168916812Y-80940330D01*
X168933814Y-80778565D01*
X168934504Y-80772000D01*
X168914542Y-80582072D01*
X168855527Y-80400444D01*
X168760040Y-80235056D01*
X168632253Y-80093134D01*
X168477752Y-79980882D01*
X168471724Y-79978198D01*
X168471722Y-79978197D01*
X168309319Y-79905891D01*
X168309318Y-79905891D01*
X168303288Y-79903206D01*
X168150431Y-79870715D01*
X168087533Y-79836563D01*
X167566405Y-79315435D01*
X167532379Y-79253123D01*
X167529500Y-79226340D01*
X167529500Y-74882362D01*
X167549502Y-74814241D01*
X167603158Y-74767748D01*
X167673432Y-74757644D01*
X167688104Y-74760653D01*
X167818313Y-74795543D01*
X168046400Y-74815498D01*
X168274487Y-74795543D01*
X168279800Y-74794119D01*
X168279802Y-74794119D01*
X168490333Y-74737707D01*
X168490335Y-74737706D01*
X168495643Y-74736284D01*
X168501635Y-74733490D01*
X168698162Y-74641849D01*
X168698167Y-74641846D01*
X168703149Y-74639523D01*
X168808629Y-74565665D01*
X168886189Y-74511357D01*
X168886192Y-74511355D01*
X168890700Y-74508198D01*
X169052598Y-74346300D01*
X169183923Y-74158749D01*
X169186246Y-74153767D01*
X169186249Y-74153762D01*
X169202205Y-74119543D01*
X169249122Y-74066258D01*
X169317399Y-74046797D01*
X169385359Y-74067339D01*
X169430595Y-74119543D01*
X169446551Y-74153762D01*
X169446554Y-74153767D01*
X169448877Y-74158749D01*
X169580202Y-74346300D01*
X169742100Y-74508198D01*
X169746608Y-74511355D01*
X169746611Y-74511357D01*
X169824171Y-74565665D01*
X169929651Y-74639523D01*
X169934633Y-74641846D01*
X169934638Y-74641849D01*
X170131165Y-74733490D01*
X170137157Y-74736284D01*
X170142465Y-74737706D01*
X170142467Y-74737707D01*
X170352998Y-74794119D01*
X170353000Y-74794119D01*
X170358313Y-74795543D01*
X170586400Y-74815498D01*
X170814487Y-74795543D01*
X170819800Y-74794119D01*
X170819802Y-74794119D01*
X171030333Y-74737707D01*
X171030335Y-74737706D01*
X171035643Y-74736284D01*
X171041635Y-74733490D01*
X171238162Y-74641849D01*
X171238167Y-74641846D01*
X171243149Y-74639523D01*
X171348629Y-74565665D01*
X171426189Y-74511357D01*
X171426192Y-74511355D01*
X171430700Y-74508198D01*
X171592598Y-74346300D01*
X171723923Y-74158749D01*
X171726246Y-74153767D01*
X171726249Y-74153762D01*
X171742481Y-74118951D01*
X171789398Y-74065666D01*
X171857675Y-74046205D01*
X171925635Y-74066747D01*
X171970871Y-74118951D01*
X171986986Y-74153511D01*
X171992469Y-74163007D01*
X172117428Y-74341467D01*
X172124484Y-74349875D01*
X172278525Y-74503916D01*
X172286933Y-74510972D01*
X172465393Y-74635931D01*
X172474889Y-74641414D01*
X172672347Y-74733490D01*
X172682639Y-74737236D01*
X172854903Y-74783394D01*
X172868999Y-74783058D01*
X172872400Y-74775116D01*
X172872400Y-74769967D01*
X173380400Y-74769967D01*
X173384373Y-74783498D01*
X173392922Y-74784727D01*
X173570161Y-74737236D01*
X173580453Y-74733490D01*
X173777911Y-74641414D01*
X173787407Y-74635931D01*
X173965867Y-74510972D01*
X173974275Y-74503916D01*
X174128316Y-74349875D01*
X174135372Y-74341467D01*
X174260331Y-74163007D01*
X174265814Y-74153511D01*
X174281929Y-74118951D01*
X174328846Y-74065666D01*
X174397123Y-74046205D01*
X174465083Y-74066747D01*
X174510319Y-74118951D01*
X174526551Y-74153762D01*
X174526554Y-74153767D01*
X174528877Y-74158749D01*
X174660202Y-74346300D01*
X174822100Y-74508198D01*
X174826608Y-74511355D01*
X174826611Y-74511357D01*
X174904171Y-74565665D01*
X175009651Y-74639523D01*
X175014633Y-74641846D01*
X175014638Y-74641849D01*
X175211165Y-74733490D01*
X175217157Y-74736284D01*
X175222465Y-74737706D01*
X175222467Y-74737707D01*
X175432998Y-74794119D01*
X175433000Y-74794119D01*
X175438313Y-74795543D01*
X175666400Y-74815498D01*
X175894487Y-74795543D01*
X175899800Y-74794119D01*
X175899802Y-74794119D01*
X176110333Y-74737707D01*
X176110335Y-74737706D01*
X176115643Y-74736284D01*
X176121635Y-74733490D01*
X176318162Y-74641849D01*
X176318167Y-74641846D01*
X176323149Y-74639523D01*
X176428629Y-74565665D01*
X176506189Y-74511357D01*
X176506192Y-74511355D01*
X176510700Y-74508198D01*
X176672598Y-74346300D01*
X176803923Y-74158749D01*
X176806246Y-74153767D01*
X176806249Y-74153762D01*
X176898361Y-73956225D01*
X176898361Y-73956224D01*
X176900684Y-73951243D01*
X176905132Y-73934645D01*
X176958519Y-73735402D01*
X176958519Y-73735400D01*
X176959943Y-73730087D01*
X176968654Y-73630520D01*
X176974662Y-73561851D01*
X176974662Y-73561844D01*
X176974900Y-73559127D01*
X176974900Y-73044873D01*
X176959943Y-72873913D01*
X176925260Y-72744475D01*
X176902107Y-72658067D01*
X176902106Y-72658065D01*
X176900684Y-72652757D01*
X176846548Y-72536661D01*
X176806249Y-72450238D01*
X176806246Y-72450233D01*
X176803923Y-72445251D01*
X176707951Y-72308189D01*
X176675757Y-72262211D01*
X176675755Y-72262208D01*
X176672598Y-72257700D01*
X176510700Y-72095802D01*
X176506192Y-72092645D01*
X176506189Y-72092643D01*
X176428011Y-72037902D01*
X176323149Y-71964477D01*
X176318167Y-71962154D01*
X176318162Y-71962151D01*
X176120625Y-71870039D01*
X176120624Y-71870039D01*
X176115643Y-71867716D01*
X176110335Y-71866294D01*
X176110333Y-71866293D01*
X175899802Y-71809881D01*
X175899800Y-71809881D01*
X175894487Y-71808457D01*
X175666400Y-71788502D01*
X175438313Y-71808457D01*
X175433000Y-71809881D01*
X175432998Y-71809881D01*
X175222467Y-71866293D01*
X175222465Y-71866294D01*
X175217157Y-71867716D01*
X175212176Y-71870039D01*
X175212175Y-71870039D01*
X175014638Y-71962151D01*
X175014633Y-71962154D01*
X175009651Y-71964477D01*
X174904789Y-72037902D01*
X174826611Y-72092643D01*
X174826608Y-72092645D01*
X174822100Y-72095802D01*
X174660202Y-72257700D01*
X174657045Y-72262208D01*
X174657043Y-72262211D01*
X174624849Y-72308189D01*
X174528877Y-72445251D01*
X174526554Y-72450233D01*
X174526551Y-72450238D01*
X174510319Y-72485049D01*
X174463402Y-72538334D01*
X174395125Y-72557795D01*
X174327165Y-72537253D01*
X174281929Y-72485049D01*
X174265814Y-72450489D01*
X174260331Y-72440993D01*
X174135372Y-72262533D01*
X174128316Y-72254125D01*
X173974275Y-72100084D01*
X173965867Y-72093028D01*
X173787407Y-71968069D01*
X173777911Y-71962586D01*
X173580453Y-71870510D01*
X173570161Y-71866764D01*
X173397897Y-71820606D01*
X173383801Y-71820942D01*
X173380400Y-71828884D01*
X173380400Y-74769967D01*
X172872400Y-74769967D01*
X172872400Y-71834033D01*
X172868427Y-71820502D01*
X172859878Y-71819273D01*
X172682639Y-71866764D01*
X172672347Y-71870510D01*
X172474889Y-71962586D01*
X172465393Y-71968069D01*
X172286933Y-72093028D01*
X172278525Y-72100084D01*
X172124484Y-72254125D01*
X172117428Y-72262533D01*
X171992469Y-72440993D01*
X171986986Y-72450489D01*
X171970871Y-72485049D01*
X171923954Y-72538334D01*
X171855677Y-72557795D01*
X171787717Y-72537253D01*
X171742481Y-72485049D01*
X171726249Y-72450238D01*
X171726246Y-72450233D01*
X171723923Y-72445251D01*
X171627951Y-72308189D01*
X171595757Y-72262211D01*
X171595755Y-72262208D01*
X171592598Y-72257700D01*
X171430700Y-72095802D01*
X171426192Y-72092645D01*
X171426189Y-72092643D01*
X171348011Y-72037902D01*
X171243149Y-71964477D01*
X171238167Y-71962154D01*
X171238162Y-71962151D01*
X171040625Y-71870039D01*
X171040624Y-71870039D01*
X171035643Y-71867716D01*
X171030335Y-71866294D01*
X171030333Y-71866293D01*
X170819802Y-71809881D01*
X170819800Y-71809881D01*
X170814487Y-71808457D01*
X170586400Y-71788502D01*
X170580925Y-71788981D01*
X170580924Y-71788981D01*
X170386005Y-71806034D01*
X170316401Y-71792045D01*
X170265408Y-71742645D01*
X170249218Y-71673519D01*
X170272971Y-71606614D01*
X170308367Y-71576015D01*
X170307455Y-71574688D01*
X170313105Y-71570805D01*
X170330897Y-71560901D01*
X170333151Y-71559568D01*
X170340105Y-71556515D01*
X170390802Y-71517613D01*
X170396132Y-71513741D01*
X170442520Y-71481861D01*
X170442525Y-71481856D01*
X170448781Y-71477557D01*
X170453830Y-71471890D01*
X170453837Y-71471884D01*
X170490244Y-71431021D01*
X170495225Y-71425745D01*
X170601565Y-71319405D01*
X170663877Y-71285379D01*
X170690660Y-71282500D01*
X175650088Y-71282500D01*
X175658658Y-71282792D01*
X175708776Y-71286209D01*
X175708780Y-71286209D01*
X175716352Y-71286725D01*
X175723829Y-71285420D01*
X175723830Y-71285420D01*
X175750308Y-71280799D01*
X175779303Y-71275738D01*
X175785821Y-71274777D01*
X175849242Y-71267102D01*
X175856343Y-71264419D01*
X175858952Y-71263778D01*
X175875262Y-71259315D01*
X175877798Y-71258550D01*
X175885284Y-71257243D01*
X175943800Y-71231556D01*
X175949904Y-71229065D01*
X175955375Y-71226998D01*
X176009656Y-71206487D01*
X176015919Y-71202183D01*
X176018285Y-71200946D01*
X176033097Y-71192701D01*
X176035351Y-71191368D01*
X176042305Y-71188315D01*
X176093002Y-71149413D01*
X176098332Y-71145541D01*
X176144720Y-71113661D01*
X176144725Y-71113656D01*
X176150981Y-71109357D01*
X176192436Y-71062829D01*
X176197416Y-71057554D01*
X176201988Y-71052982D01*
X176264300Y-71018956D01*
X176302063Y-71016556D01*
X176530000Y-71036498D01*
X176758087Y-71016543D01*
X176763400Y-71015119D01*
X176763402Y-71015119D01*
X176973933Y-70958707D01*
X176973935Y-70958706D01*
X176979243Y-70957284D01*
X176985235Y-70954490D01*
X177181762Y-70862849D01*
X177181767Y-70862846D01*
X177186749Y-70860523D01*
X177308077Y-70775568D01*
X177369789Y-70732357D01*
X177369792Y-70732355D01*
X177374300Y-70729198D01*
X177536198Y-70567300D01*
X177667523Y-70379749D01*
X177669846Y-70374767D01*
X177669849Y-70374762D01*
X177761961Y-70177225D01*
X177761961Y-70177224D01*
X177764284Y-70172243D01*
X177784976Y-70095022D01*
X177822119Y-69956402D01*
X177822119Y-69956400D01*
X177823543Y-69951087D01*
X177843019Y-69728475D01*
X182837483Y-69728475D01*
X182856472Y-69945519D01*
X182858375Y-69956312D01*
X182914764Y-70166761D01*
X182918510Y-70177053D01*
X183010586Y-70374511D01*
X183016069Y-70384006D01*
X183052509Y-70436048D01*
X183062988Y-70444424D01*
X183076434Y-70437356D01*
X183777978Y-69735812D01*
X183785592Y-69721868D01*
X183785461Y-69720035D01*
X183781210Y-69713420D01*
X183075713Y-69007923D01*
X183063938Y-69001493D01*
X183051923Y-69010789D01*
X183016069Y-69061994D01*
X183010586Y-69071489D01*
X182918510Y-69268947D01*
X182914764Y-69279239D01*
X182858375Y-69489688D01*
X182856472Y-69500481D01*
X182837483Y-69717525D01*
X182837483Y-69728475D01*
X177843019Y-69728475D01*
X177843498Y-69723000D01*
X177823543Y-69494913D01*
X177786981Y-69358461D01*
X177765707Y-69279067D01*
X177765706Y-69279065D01*
X177764284Y-69273757D01*
X177722839Y-69184877D01*
X177669849Y-69071238D01*
X177669846Y-69071233D01*
X177667523Y-69066251D01*
X177594098Y-68961389D01*
X177539357Y-68883211D01*
X177539355Y-68883208D01*
X177536198Y-68878700D01*
X177374300Y-68716802D01*
X177369792Y-68713645D01*
X177369789Y-68713643D01*
X177291611Y-68658902D01*
X177258886Y-68635988D01*
X183428576Y-68635988D01*
X183435644Y-68649434D01*
X184137188Y-69350978D01*
X184151132Y-69358592D01*
X184152965Y-69358461D01*
X184159580Y-69354210D01*
X184865077Y-68648713D01*
X184871507Y-68636938D01*
X184862211Y-68624923D01*
X184811006Y-68589069D01*
X184801511Y-68583586D01*
X184604053Y-68491510D01*
X184593761Y-68487764D01*
X184383312Y-68431375D01*
X184372519Y-68429472D01*
X184155475Y-68410483D01*
X184144525Y-68410483D01*
X183927481Y-68429472D01*
X183916688Y-68431375D01*
X183706239Y-68487764D01*
X183695947Y-68491510D01*
X183498489Y-68583586D01*
X183488994Y-68589069D01*
X183436952Y-68625509D01*
X183428576Y-68635988D01*
X177258886Y-68635988D01*
X177186749Y-68585477D01*
X177181768Y-68583154D01*
X177181757Y-68583148D01*
X177124689Y-68556537D01*
X177071405Y-68509620D01*
X177051944Y-68441343D01*
X177072486Y-68373383D01*
X177124691Y-68328148D01*
X177309758Y-68241851D01*
X177309764Y-68241847D01*
X177314749Y-68239523D01*
X177488019Y-68118198D01*
X177497789Y-68111357D01*
X177497792Y-68111355D01*
X177502300Y-68108198D01*
X177664198Y-67946300D01*
X177678623Y-67925700D01*
X177785364Y-67773257D01*
X177795523Y-67758749D01*
X177797846Y-67753767D01*
X177797849Y-67753762D01*
X177813805Y-67719543D01*
X177860722Y-67666258D01*
X177928999Y-67646797D01*
X177996959Y-67667339D01*
X178042195Y-67719543D01*
X178058151Y-67753762D01*
X178058154Y-67753767D01*
X178060477Y-67758749D01*
X178070636Y-67773257D01*
X178177378Y-67925700D01*
X178191802Y-67946300D01*
X178353700Y-68108198D01*
X178358208Y-68111355D01*
X178358211Y-68111357D01*
X178367981Y-68118198D01*
X178541251Y-68239523D01*
X178546233Y-68241846D01*
X178546238Y-68241849D01*
X178731309Y-68328148D01*
X178748757Y-68336284D01*
X178754065Y-68337706D01*
X178754067Y-68337707D01*
X178964598Y-68394119D01*
X178964600Y-68394119D01*
X178969913Y-68395543D01*
X179198000Y-68415498D01*
X179426087Y-68395543D01*
X179431400Y-68394119D01*
X179431402Y-68394119D01*
X179641933Y-68337707D01*
X179641935Y-68337706D01*
X179647243Y-68336284D01*
X179664691Y-68328148D01*
X179849762Y-68241849D01*
X179849767Y-68241846D01*
X179854749Y-68239523D01*
X180028019Y-68118198D01*
X180037789Y-68111357D01*
X180037792Y-68111355D01*
X180042300Y-68108198D01*
X180204198Y-67946300D01*
X180218623Y-67925700D01*
X180325364Y-67773257D01*
X180335523Y-67758749D01*
X180337846Y-67753767D01*
X180337849Y-67753762D01*
X180429961Y-67556225D01*
X180429961Y-67556224D01*
X180432284Y-67551243D01*
X180465321Y-67427950D01*
X180490119Y-67335402D01*
X180490119Y-67335400D01*
X180491543Y-67330087D01*
X180511498Y-67102000D01*
X180491543Y-66873913D01*
X180480686Y-66833393D01*
X180433707Y-66658067D01*
X180433706Y-66658065D01*
X180432284Y-66652757D01*
X180418488Y-66623170D01*
X180337621Y-66449750D01*
X180326960Y-66379558D01*
X180355940Y-66314745D01*
X180415360Y-66275889D01*
X180451816Y-66270500D01*
X181249134Y-66270500D01*
X181317255Y-66290502D01*
G37*
%TD.AperFunction*%
%TA.AperFunction,Conductor*%
G36*
X212828461Y-66260502D02*
G01*
X212849435Y-66277405D01*
X213143807Y-66571777D01*
X213177833Y-66634089D01*
X213172768Y-66704904D01*
X213148350Y-66745179D01*
X213071628Y-66830388D01*
X212976141Y-66995776D01*
X212917126Y-67177404D01*
X212916436Y-67183969D01*
X212912218Y-67224102D01*
X212885205Y-67289759D01*
X212876003Y-67300027D01*
X209293435Y-70882595D01*
X209231123Y-70916621D01*
X209204340Y-70919500D01*
X201638149Y-70919500D01*
X201570028Y-70899498D01*
X201523535Y-70845842D01*
X201521845Y-70835546D01*
X201501356Y-70796566D01*
X200799812Y-70095022D01*
X200785868Y-70087408D01*
X200784035Y-70087539D01*
X200777420Y-70091790D01*
X200071923Y-70797287D01*
X200051468Y-70834746D01*
X200047303Y-70853889D01*
X199997099Y-70904090D01*
X199936718Y-70919500D01*
X194125188Y-70919500D01*
X194057067Y-70899498D01*
X194010574Y-70845842D01*
X194000470Y-70775568D01*
X194029964Y-70710988D01*
X194036093Y-70704405D01*
X194173198Y-70567300D01*
X194304523Y-70379749D01*
X194306846Y-70374767D01*
X194306849Y-70374762D01*
X194398961Y-70177225D01*
X194398961Y-70177224D01*
X194401284Y-70172243D01*
X194421976Y-70095022D01*
X194459119Y-69956402D01*
X194459119Y-69956400D01*
X194460543Y-69951087D01*
X194480019Y-69728475D01*
X199474483Y-69728475D01*
X199493472Y-69945519D01*
X199495375Y-69956312D01*
X199551764Y-70166761D01*
X199555510Y-70177053D01*
X199647586Y-70374511D01*
X199653069Y-70384006D01*
X199689509Y-70436048D01*
X199699988Y-70444424D01*
X199713434Y-70437356D01*
X200414978Y-69735812D01*
X200421356Y-69724132D01*
X201151408Y-69724132D01*
X201151539Y-69725965D01*
X201155790Y-69732580D01*
X201861287Y-70438077D01*
X201873062Y-70444507D01*
X201885077Y-70435211D01*
X201920931Y-70384006D01*
X201926414Y-70374511D01*
X202018490Y-70177053D01*
X202022236Y-70166761D01*
X202078625Y-69956312D01*
X202080528Y-69945519D01*
X202099517Y-69728475D01*
X202099517Y-69717525D01*
X202080528Y-69500481D01*
X202078625Y-69489688D01*
X202022236Y-69279239D01*
X202018490Y-69268947D01*
X201926414Y-69071489D01*
X201920931Y-69061994D01*
X201884491Y-69009952D01*
X201874012Y-69001576D01*
X201860566Y-69008644D01*
X201159022Y-69710188D01*
X201151408Y-69724132D01*
X200421356Y-69724132D01*
X200422592Y-69721868D01*
X200422461Y-69720035D01*
X200418210Y-69713420D01*
X199712713Y-69007923D01*
X199700938Y-69001493D01*
X199688923Y-69010789D01*
X199653069Y-69061994D01*
X199647586Y-69071489D01*
X199555510Y-69268947D01*
X199551764Y-69279239D01*
X199495375Y-69489688D01*
X199493472Y-69500481D01*
X199474483Y-69717525D01*
X199474483Y-69728475D01*
X194480019Y-69728475D01*
X194480498Y-69723000D01*
X194460543Y-69494913D01*
X194423981Y-69358461D01*
X194402707Y-69279067D01*
X194402706Y-69279065D01*
X194401284Y-69273757D01*
X194359839Y-69184877D01*
X194306849Y-69071238D01*
X194306846Y-69071233D01*
X194304523Y-69066251D01*
X194231098Y-68961389D01*
X194176357Y-68883211D01*
X194176355Y-68883208D01*
X194173198Y-68878700D01*
X194011300Y-68716802D01*
X194006792Y-68713645D01*
X194006789Y-68713643D01*
X193928611Y-68658902D01*
X193895886Y-68635988D01*
X200065576Y-68635988D01*
X200072644Y-68649434D01*
X200774188Y-69350978D01*
X200788132Y-69358592D01*
X200789965Y-69358461D01*
X200796580Y-69354210D01*
X201502077Y-68648713D01*
X201508507Y-68636938D01*
X201499211Y-68624923D01*
X201448006Y-68589069D01*
X201438511Y-68583586D01*
X201241053Y-68491510D01*
X201230761Y-68487764D01*
X201020312Y-68431375D01*
X201009519Y-68429472D01*
X200792475Y-68410483D01*
X200781525Y-68410483D01*
X200564481Y-68429472D01*
X200553688Y-68431375D01*
X200343239Y-68487764D01*
X200332947Y-68491510D01*
X200135489Y-68583586D01*
X200125994Y-68589069D01*
X200073952Y-68625509D01*
X200065576Y-68635988D01*
X193895886Y-68635988D01*
X193823749Y-68585477D01*
X193818761Y-68583151D01*
X193818758Y-68583149D01*
X193711413Y-68533094D01*
X193658127Y-68486177D01*
X193638666Y-68417900D01*
X193659208Y-68349940D01*
X193711412Y-68304704D01*
X193715562Y-68302769D01*
X193829749Y-68249523D01*
X193950169Y-68165204D01*
X194012789Y-68121357D01*
X194012792Y-68121355D01*
X194017300Y-68118198D01*
X194179198Y-67956300D01*
X194183472Y-67950197D01*
X194260281Y-67840502D01*
X194310523Y-67768749D01*
X194312846Y-67763767D01*
X194312849Y-67763762D01*
X194328805Y-67729543D01*
X194375722Y-67676258D01*
X194443999Y-67656797D01*
X194511959Y-67677339D01*
X194557195Y-67729543D01*
X194573151Y-67763762D01*
X194573154Y-67763767D01*
X194575477Y-67768749D01*
X194625719Y-67840502D01*
X194702529Y-67950197D01*
X194706802Y-67956300D01*
X194868700Y-68118198D01*
X194873208Y-68121355D01*
X194873211Y-68121357D01*
X194935831Y-68165204D01*
X195056251Y-68249523D01*
X195061233Y-68251846D01*
X195061238Y-68251849D01*
X195245363Y-68337707D01*
X195263757Y-68346284D01*
X195269065Y-68347706D01*
X195269067Y-68347707D01*
X195479598Y-68404119D01*
X195479600Y-68404119D01*
X195484913Y-68405543D01*
X195713000Y-68425498D01*
X195941087Y-68405543D01*
X195946400Y-68404119D01*
X195946402Y-68404119D01*
X196156933Y-68347707D01*
X196156935Y-68347706D01*
X196162243Y-68346284D01*
X196180637Y-68337707D01*
X196364762Y-68251849D01*
X196364767Y-68251846D01*
X196369749Y-68249523D01*
X196490169Y-68165204D01*
X196552789Y-68121357D01*
X196552792Y-68121355D01*
X196557300Y-68118198D01*
X196719198Y-67956300D01*
X196723472Y-67950197D01*
X196800281Y-67840502D01*
X196850523Y-67768749D01*
X196852846Y-67763767D01*
X196852849Y-67763762D01*
X196944961Y-67566225D01*
X196944961Y-67566224D01*
X196947284Y-67561243D01*
X196951387Y-67545933D01*
X197005119Y-67345402D01*
X197005119Y-67345400D01*
X197006543Y-67340087D01*
X197026498Y-67112000D01*
X197006543Y-66883913D01*
X197005119Y-66878598D01*
X196948707Y-66668067D01*
X196948706Y-66668065D01*
X196947284Y-66662757D01*
X196930086Y-66625876D01*
X196852846Y-66460232D01*
X196852844Y-66460229D01*
X196850523Y-66455251D01*
X196851304Y-66454887D01*
X196835685Y-66390505D01*
X196858905Y-66323413D01*
X196914713Y-66279526D01*
X196961542Y-66270500D01*
X197770978Y-66270500D01*
X197839099Y-66290502D01*
X197885592Y-66344158D01*
X197895696Y-66414432D01*
X197885173Y-66449749D01*
X197802441Y-66627170D01*
X197800116Y-66632157D01*
X197798694Y-66637465D01*
X197798693Y-66637467D01*
X197742281Y-66847998D01*
X197740857Y-66853313D01*
X197720902Y-67081400D01*
X197740857Y-67309487D01*
X197800116Y-67530643D01*
X197802439Y-67535624D01*
X197802439Y-67535625D01*
X197894551Y-67733162D01*
X197894554Y-67733167D01*
X197896877Y-67738149D01*
X197921460Y-67773257D01*
X198010417Y-67900300D01*
X198028202Y-67925700D01*
X198190100Y-68087598D01*
X198194608Y-68090755D01*
X198194611Y-68090757D01*
X198272789Y-68145498D01*
X198377651Y-68218923D01*
X198382633Y-68221246D01*
X198382638Y-68221249D01*
X198561610Y-68304704D01*
X198585157Y-68315684D01*
X198590465Y-68317106D01*
X198590467Y-68317107D01*
X198800998Y-68373519D01*
X198801000Y-68373519D01*
X198806313Y-68374943D01*
X199034400Y-68394898D01*
X199262487Y-68374943D01*
X199267800Y-68373519D01*
X199267802Y-68373519D01*
X199478333Y-68317107D01*
X199478335Y-68317106D01*
X199483643Y-68315684D01*
X199507190Y-68304704D01*
X199686162Y-68221249D01*
X199686167Y-68221246D01*
X199691149Y-68218923D01*
X199796011Y-68145498D01*
X199874189Y-68090757D01*
X199874192Y-68090755D01*
X199878700Y-68087598D01*
X200040598Y-67925700D01*
X200058384Y-67900300D01*
X200147340Y-67773257D01*
X200171923Y-67738149D01*
X200174246Y-67733167D01*
X200174249Y-67733162D01*
X200266361Y-67535625D01*
X200266361Y-67535624D01*
X200268684Y-67530643D01*
X200327943Y-67309487D01*
X200347898Y-67081400D01*
X200327943Y-66853313D01*
X200326519Y-66847998D01*
X200270107Y-66637467D01*
X200270106Y-66637465D01*
X200268684Y-66632157D01*
X200266359Y-66627170D01*
X200183627Y-66449749D01*
X200172966Y-66379558D01*
X200201946Y-66314745D01*
X200261366Y-66275889D01*
X200297822Y-66270500D01*
X202300515Y-66270500D01*
X202368636Y-66290502D01*
X202385070Y-66303084D01*
X202449776Y-66361654D01*
X202453492Y-66364161D01*
X202453494Y-66364162D01*
X202566817Y-66440599D01*
X202566822Y-66440602D01*
X202570536Y-66443107D01*
X202574573Y-66445063D01*
X202574575Y-66445064D01*
X202605882Y-66460232D01*
X202699428Y-66505554D01*
X202838188Y-66549838D01*
X202979426Y-66573600D01*
X203058373Y-66580682D01*
X203060795Y-66580712D01*
X203060802Y-66580712D01*
X203064116Y-66580752D01*
X203070715Y-66580833D01*
X203145035Y-66575995D01*
X203153221Y-66575729D01*
X203497519Y-66575729D01*
X203508778Y-66576233D01*
X203558373Y-66580682D01*
X203560795Y-66580712D01*
X203560802Y-66580712D01*
X203564116Y-66580752D01*
X203570715Y-66580833D01*
X203607007Y-66578471D01*
X203647408Y-66575841D01*
X203647418Y-66575840D01*
X203649829Y-66575683D01*
X203667202Y-66573195D01*
X203787161Y-66556016D01*
X203787167Y-66556015D01*
X203791606Y-66555379D01*
X203795911Y-66554120D01*
X203795916Y-66554119D01*
X203927108Y-66515755D01*
X203931410Y-66514497D01*
X204061789Y-66455217D01*
X204065560Y-66452805D01*
X204065568Y-66452801D01*
X204180721Y-66379157D01*
X204180722Y-66379156D01*
X204184497Y-66376742D01*
X204292998Y-66283252D01*
X204295948Y-66279870D01*
X204298699Y-66277136D01*
X204361114Y-66243299D01*
X204387525Y-66240500D01*
X212760340Y-66240500D01*
X212828461Y-66260502D01*
G37*
%TD.AperFunction*%
%TD*%
M02*
