%TF.GenerationSoftware,KiCad,Pcbnew,(6.0.7)*%
%TF.CreationDate,2023-01-06T17:08:48+01:00*%
%TF.ProjectId,s0 interface,73302069-6e74-4657-9266-6163652e6b69,rev?*%
%TF.SameCoordinates,Original*%
%TF.FileFunction,Copper,L1,Top*%
%TF.FilePolarity,Positive*%
%FSLAX46Y46*%
G04 Gerber Fmt 4.6, Leading zero omitted, Abs format (unit mm)*
G04 Created by KiCad (PCBNEW (6.0.7)) date 2023-01-06 17:08:48*
%MOMM*%
%LPD*%
G01*
G04 APERTURE LIST*
%TA.AperFunction,ComponentPad*%
%ADD10R,1.520000X1.520000*%
%TD*%
%TA.AperFunction,ComponentPad*%
%ADD11C,1.520000*%
%TD*%
%TA.AperFunction,ComponentPad*%
%ADD12R,2.600000X2.600000*%
%TD*%
%TA.AperFunction,ComponentPad*%
%ADD13C,2.600000*%
%TD*%
%TA.AperFunction,ComponentPad*%
%ADD14O,1.600000X1.600000*%
%TD*%
%TA.AperFunction,ComponentPad*%
%ADD15C,1.600000*%
%TD*%
%TA.AperFunction,ComponentPad*%
%ADD16R,1.600000X1.600000*%
%TD*%
%TA.AperFunction,ComponentPad*%
%ADD17C,1.524000*%
%TD*%
%TA.AperFunction,ComponentPad*%
%ADD18R,2.000000X2.000000*%
%TD*%
%TA.AperFunction,ComponentPad*%
%ADD19O,2.000000X1.600000*%
%TD*%
%TA.AperFunction,ViaPad*%
%ADD20C,0.800000*%
%TD*%
%TA.AperFunction,Conductor*%
%ADD21C,0.400000*%
%TD*%
G04 APERTURE END LIST*
D10*
%TO.P,P1,1*%
%TO.N,unconnected-(P1-Pad1)*%
X206225000Y-81280000D03*
D11*
%TO.P,P1,2*%
%TO.N,+3.3V*%
X208765000Y-80010000D03*
%TO.P,P1,3*%
%TO.N,GND*%
X206225000Y-78740000D03*
%TO.P,P1,4*%
%TO.N,unconnected-(P1-Pad4)*%
X208765000Y-77470000D03*
%TO.P,P1,5*%
%TO.N,Net-(IC1-Pad15)*%
X206225000Y-76200000D03*
%TO.P,P1,6*%
%TO.N,unconnected-(P1-Pad6)*%
X208765000Y-74930000D03*
%TD*%
D12*
%TO.P,S0-4,1,Pin_1*%
%TO.N,Net-(JP4-Pad2)*%
X220477000Y-50627000D03*
D13*
%TO.P,S0-4,2,Pin_2*%
%TO.N,Net-(R8-Pad2)*%
X215397000Y-50627000D03*
%TO.P,S0-4,3,Pin_3*%
%TO.N,GND*%
X210317000Y-50627000D03*
%TD*%
D14*
%TO.P,R8,2*%
%TO.N,Net-(R8-Pad2)*%
X219705000Y-59563000D03*
D15*
%TO.P,R8,1*%
%TO.N,Net-(IC7-Pad1)*%
X219705000Y-67183000D03*
%TD*%
D14*
%TO.P,R4,2*%
%TO.N,Net-(IC1-Pad16)*%
X210688000Y-67183000D03*
D15*
%TO.P,R4,1*%
%TO.N,GND*%
X210688000Y-59563000D03*
%TD*%
D16*
%TO.P,IC7,1*%
%TO.N,Net-(IC7-Pad1)*%
X216408000Y-59573000D03*
D14*
%TO.P,IC7,2*%
%TO.N,GND*%
X213868000Y-59573000D03*
%TO.P,IC7,3*%
%TO.N,Net-(IC1-Pad16)*%
X213868000Y-67193000D03*
%TO.P,IC7,4*%
%TO.N,+3.3V*%
X216408000Y-67193000D03*
%TD*%
%TO.P,IC6,4*%
%TO.N,+3.3V*%
X166629000Y-67114500D03*
%TO.P,IC6,3*%
%TO.N,Net-(IC1-Pad6)*%
X164089000Y-67114500D03*
%TO.P,IC6,2*%
%TO.N,GND*%
X164089000Y-59494500D03*
D16*
%TO.P,IC6,1*%
%TO.N,Net-(IC6-Pad1)*%
X166629000Y-59494500D03*
%TD*%
D13*
%TO.P,S0-3,3,Pin_3*%
%TO.N,GND*%
X193903600Y-50673000D03*
%TO.P,S0-3,2,Pin_2*%
%TO.N,Net-(R7-Pad2)*%
X198983600Y-50673000D03*
D12*
%TO.P,S0-3,1,Pin_1*%
%TO.N,Net-(JP3-Pad2)*%
X204063600Y-50673000D03*
%TD*%
D13*
%TO.P,S0-2,3,Pin_3*%
%TO.N,GND*%
X177393600Y-50673000D03*
%TO.P,S0-2,2,Pin_2*%
%TO.N,Net-(R6-Pad2)*%
X182473600Y-50673000D03*
D12*
%TO.P,S0-2,1,Pin_1*%
%TO.N,Net-(JP2-Pad2)*%
X187553600Y-50673000D03*
%TD*%
D17*
%TO.P,IC2,1,Pin_1*%
%TO.N,+3.3V*%
X184055000Y-83725000D03*
%TO.P,IC2,2,Pin_2*%
%TO.N,GND*%
X186595000Y-83725000D03*
%TO.P,IC2,3,Pin_3*%
%TO.N,unconnected-(IC2-Pad3)*%
X189135000Y-83725000D03*
%TO.P,IC2,4,Pin_4*%
%TO.N,Net-(IC1-Pad14)*%
X191675000Y-83725000D03*
%TO.P,IC2,5,Pin_5*%
%TO.N,Net-(IC1-Pad13)*%
X194215000Y-83725000D03*
%TO.P,IC2,6,Pin_6*%
%TO.N,unconnected-(IC2-Pad6)*%
X196755000Y-83725000D03*
%TO.P,IC2,7,Pin_7*%
%TO.N,unconnected-(IC2-Pad7)*%
X199295000Y-83725000D03*
%TO.P,IC2,8,Pin_8*%
%TO.N,unconnected-(IC2-Pad8)*%
X201835000Y-83725000D03*
%TD*%
D14*
%TO.P,R5,2*%
%TO.N,Net-(R5-Pad2)*%
X169799000Y-59436000D03*
D15*
%TO.P,R5,1*%
%TO.N,Net-(IC6-Pad1)*%
X169799000Y-67056000D03*
%TD*%
%TO.P,R7,1*%
%TO.N,Net-(IC4-Pad1)*%
X203225400Y-67096400D03*
D14*
%TO.P,R7,2*%
%TO.N,Net-(R7-Pad2)*%
X203225400Y-59476400D03*
%TD*%
D16*
%TO.P,IC5,1*%
%TO.N,Net-(IC5-Pad1)*%
X183393000Y-59509500D03*
D14*
%TO.P,IC5,2*%
%TO.N,GND*%
X180853000Y-59509500D03*
%TO.P,IC5,3*%
%TO.N,Net-(IC1-Pad5)*%
X180853000Y-67129500D03*
%TO.P,IC5,4*%
%TO.N,+3.3V*%
X183393000Y-67129500D03*
%TD*%
D17*
%TO.P,DC1,4,Pin_4*%
%TO.N,VCC*%
X186595000Y-93123000D03*
%TO.P,DC1,3,Pin_3*%
%TO.N,GND*%
X186595000Y-100235000D03*
%TO.P,DC1,2,Pin_2*%
%TO.N,+5V*%
X218091000Y-93631000D03*
%TO.P,DC1,1,Pin_1*%
%TO.N,GND*%
X218091000Y-99727000D03*
%TD*%
D16*
%TO.P,IC4,1*%
%TO.N,Net-(IC4-Pad1)*%
X200055400Y-59558000D03*
D14*
%TO.P,IC4,2*%
%TO.N,GND*%
X197515400Y-59558000D03*
%TO.P,IC4,3*%
%TO.N,Net-(IC1-Pad4)*%
X197515400Y-67178000D03*
%TO.P,IC4,4*%
%TO.N,+3.3V*%
X200055400Y-67178000D03*
%TD*%
D15*
%TO.P,R6,1*%
%TO.N,Net-(IC5-Pad1)*%
X186563000Y-67119500D03*
D14*
%TO.P,R6,2*%
%TO.N,Net-(R6-Pad2)*%
X186563000Y-59499500D03*
%TD*%
%TO.P,R1,2*%
%TO.N,Net-(IC1-Pad6)*%
X160655000Y-67007500D03*
D15*
%TO.P,R1,1*%
%TO.N,GND*%
X160655000Y-59387500D03*
%TD*%
%TO.P,R3,1*%
%TO.N,GND*%
X194056000Y-59451000D03*
D14*
%TO.P,R3,2*%
%TO.N,Net-(IC1-Pad4)*%
X194056000Y-67071000D03*
%TD*%
D15*
%TO.P,R2,1*%
%TO.N,GND*%
X177419000Y-59372500D03*
D14*
%TO.P,R2,2*%
%TO.N,Net-(IC1-Pad5)*%
X177419000Y-66992500D03*
%TD*%
D18*
%TO.P,IC1,1,~{RST}*%
%TO.N,unconnected-(IC1-Pad1)*%
X157099000Y-76962000D03*
D19*
%TO.P,IC1,2,A0*%
%TO.N,unconnected-(IC1-Pad2)*%
X157099000Y-79502000D03*
%TO.P,IC1,3,D0*%
%TO.N,unconnected-(IC1-Pad3)*%
X157099000Y-82042000D03*
%TO.P,IC1,4,SCK/D5*%
%TO.N,Net-(IC1-Pad4)*%
X157099000Y-84582000D03*
%TO.P,IC1,5,MISO/D6*%
%TO.N,Net-(IC1-Pad5)*%
X157099000Y-87122000D03*
%TO.P,IC1,6,MOSI/D7*%
%TO.N,Net-(IC1-Pad6)*%
X157099000Y-89662000D03*
%TO.P,IC1,7,CS/D8*%
%TO.N,unconnected-(IC1-Pad7)*%
X157099000Y-92202000D03*
%TO.P,IC1,8,3V3*%
%TO.N,+3.3V*%
X157099000Y-94742000D03*
%TO.P,IC1,9,5V*%
%TO.N,+5V*%
X179959000Y-94742000D03*
%TO.P,IC1,10,GND*%
%TO.N,GND*%
X179959000Y-92202000D03*
%TO.P,IC1,11,D4*%
%TO.N,unconnected-(IC1-Pad11)*%
X179959000Y-89662000D03*
%TO.P,IC1,12,D3*%
%TO.N,unconnected-(IC1-Pad12)*%
X179959000Y-87122000D03*
%TO.P,IC1,13,SDA/D2*%
%TO.N,Net-(IC1-Pad13)*%
X179959000Y-84582000D03*
%TO.P,IC1,14,SCL/D1*%
%TO.N,Net-(IC1-Pad14)*%
X179959000Y-82042000D03*
%TO.P,IC1,15,RX*%
%TO.N,Net-(IC1-Pad15)*%
X179959000Y-79502000D03*
%TO.P,IC1,16,TX*%
%TO.N,Net-(IC1-Pad16)*%
X179959000Y-76962000D03*
%TD*%
D13*
%TO.P,S0-1,3,Pin_3*%
%TO.N,GND*%
X160756600Y-50673000D03*
%TO.P,S0-1,2,Pin_2*%
%TO.N,Net-(R5-Pad2)*%
X165836600Y-50673000D03*
D12*
%TO.P,S0-1,1,Pin_1*%
%TO.N,Net-(JP1-Pad2)*%
X170916600Y-50673000D03*
%TD*%
D20*
%TO.N,GND*%
X213868000Y-64008000D03*
X197485000Y-64008000D03*
X180848000Y-64135000D03*
%TO.N,VCC*%
X222631000Y-67183000D03*
%TO.N,+5V*%
X225171000Y-62865000D03*
%TO.N,Net-(IC1-Pad5)*%
X171323000Y-87122000D03*
%TO.N,Net-(IC1-Pad4)*%
X173736000Y-84582000D03*
%TO.N,Net-(JP4-Pad2)*%
X220345000Y-63959500D03*
%TO.N,Net-(JP3-Pad2)*%
X203405500Y-64086500D03*
%TO.N,Net-(JP2-Pad2)*%
X186768500Y-64086500D03*
%TO.N,Net-(JP1-Pad2)*%
X170180000Y-64008000D03*
%TD*%
D21*
%TO.N,GND*%
X213868000Y-59573000D02*
X213868000Y-64008000D01*
X197515400Y-63977600D02*
X197485000Y-64008000D01*
X197515400Y-59558000D02*
X197515400Y-63977600D01*
X180853000Y-64130000D02*
X180848000Y-64135000D01*
X180853000Y-59509500D02*
X180853000Y-64130000D01*
%TO.N,+5V*%
X184404000Y-97155000D02*
X214567000Y-97155000D01*
X214567000Y-97155000D02*
X218091000Y-93631000D01*
X181991000Y-94742000D02*
X184404000Y-97155000D01*
X179959000Y-94742000D02*
X181991000Y-94742000D01*
%TO.N,VCC*%
X222631000Y-83439000D02*
X222631000Y-67183000D01*
X212947000Y-93123000D02*
X222631000Y-83439000D01*
X202787000Y-93123000D02*
X212947000Y-93123000D01*
X186595000Y-93123000D02*
X202787000Y-93123000D01*
%TO.N,Net-(R8-Pad2)*%
X215397000Y-55255000D02*
X219705000Y-59563000D01*
X215397000Y-50627000D02*
X215397000Y-55255000D01*
%TO.N,+5V*%
X225171000Y-86551000D02*
X225171000Y-62865000D01*
X224917000Y-86805000D02*
X225171000Y-86551000D01*
X218091000Y-93631000D02*
X224727000Y-86995000D01*
X224727000Y-86995000D02*
X224917000Y-86805000D01*
%TO.N,+3.3V*%
X221361000Y-72146000D02*
X216408000Y-67193000D01*
X221361000Y-77597000D02*
X221361000Y-72146000D01*
X218948000Y-80010000D02*
X221361000Y-77597000D01*
X208765000Y-80010000D02*
X218948000Y-80010000D01*
%TO.N,Net-(IC1-Pad16)*%
X203200000Y-76962000D02*
X179959000Y-76962000D01*
X210688000Y-69474000D02*
X203200000Y-76962000D01*
X210688000Y-67183000D02*
X210688000Y-69474000D01*
X210698000Y-67193000D02*
X210688000Y-67183000D01*
X213868000Y-67193000D02*
X210698000Y-67193000D01*
%TO.N,+3.3V*%
X216408000Y-67193000D02*
X215001000Y-65786000D01*
X213868000Y-65786000D02*
X207391000Y-65786000D01*
X215001000Y-65786000D02*
X213868000Y-65786000D01*
%TO.N,Net-(IC7-Pad1)*%
X216408000Y-63886000D02*
X219705000Y-67183000D01*
X216408000Y-59573000D02*
X216408000Y-63886000D01*
%TO.N,Net-(IC1-Pad5)*%
X171323000Y-76454000D02*
X171323000Y-87122000D01*
X172212000Y-75565000D02*
X171323000Y-76454000D01*
X177419000Y-70358000D02*
X172212000Y-75565000D01*
X177419000Y-69850000D02*
X177419000Y-70358000D01*
X177419000Y-69596000D02*
X177419000Y-69850000D01*
X177419000Y-66992500D02*
X177419000Y-69596000D01*
%TO.N,Net-(IC1-Pad4)*%
X173736000Y-76708000D02*
X173736000Y-84582000D01*
X186451000Y-74676000D02*
X175768000Y-74676000D01*
X175768000Y-74676000D02*
X174752000Y-75692000D01*
X174752000Y-75692000D02*
X173736000Y-76708000D01*
X194056000Y-67071000D02*
X186451000Y-74676000D01*
X194163000Y-67178000D02*
X194056000Y-67071000D01*
X197515400Y-67178000D02*
X194163000Y-67178000D01*
%TO.N,Net-(IC1-Pad5)*%
X177556000Y-67129500D02*
X177419000Y-66992500D01*
X180853000Y-67129500D02*
X177556000Y-67129500D01*
%TO.N,Net-(IC1-Pad6)*%
X160762000Y-67114500D02*
X160655000Y-67007500D01*
X164089000Y-67114500D02*
X160762000Y-67114500D01*
X162306000Y-89662000D02*
X159258000Y-89662000D01*
X164089000Y-67114500D02*
X164089000Y-87879000D01*
X164089000Y-87879000D02*
X162306000Y-89662000D01*
X159258000Y-89662000D02*
X157099000Y-89662000D01*
%TO.N,+3.3V*%
X166629000Y-93086000D02*
X166629000Y-67114500D01*
X157099000Y-94742000D02*
X164973000Y-94742000D01*
X164973000Y-94742000D02*
X166629000Y-93086000D01*
X171577000Y-69469000D02*
X168983500Y-69469000D01*
X168983500Y-69469000D02*
X166629000Y-67114500D01*
X175641000Y-65405000D02*
X171577000Y-69469000D01*
X181668500Y-65405000D02*
X175641000Y-65405000D01*
X183393000Y-67129500D02*
X181668500Y-65405000D01*
X188595000Y-69215000D02*
X185478500Y-69215000D01*
X192151000Y-65659000D02*
X188595000Y-69215000D01*
X185478500Y-69215000D02*
X183393000Y-67129500D01*
X200055400Y-67178000D02*
X198536400Y-65659000D01*
X198536400Y-65659000D02*
X192151000Y-65659000D01*
X202346400Y-69469000D02*
X200055400Y-67178000D01*
X207391000Y-65786000D02*
X203708000Y-69469000D01*
X203708000Y-69469000D02*
X202346400Y-69469000D01*
%TO.N,Net-(JP4-Pad2)*%
X222201500Y-55450500D02*
X221033100Y-54282100D01*
X220296500Y-63959500D02*
X221115500Y-63140500D01*
X221115500Y-63140500D02*
X221115500Y-61108500D01*
X222201500Y-60022500D02*
X222201500Y-55450500D01*
X221033100Y-54282100D02*
X221033100Y-50624500D01*
X221115500Y-61108500D02*
X222201500Y-60022500D01*
%TO.N,Net-(JP3-Pad2)*%
X205310500Y-55577500D02*
X204142100Y-54409100D01*
X203405500Y-64086500D02*
X204224500Y-63267500D01*
X204224500Y-63267500D02*
X204224500Y-61235500D01*
X205310500Y-60149500D02*
X205310500Y-55577500D01*
X204142100Y-54409100D02*
X204142100Y-50751500D01*
X204224500Y-61235500D02*
X205310500Y-60149500D01*
%TO.N,Net-(JP2-Pad2)*%
X188673500Y-55577500D02*
X187505100Y-54409100D01*
X186768500Y-64086500D02*
X187587500Y-63267500D01*
X187587500Y-63267500D02*
X187587500Y-61235500D01*
X188673500Y-60149500D02*
X188673500Y-55577500D01*
X187505100Y-54409100D02*
X187505100Y-50751500D01*
X187587500Y-61235500D02*
X188673500Y-60149500D01*
%TO.N,Net-(JP1-Pad2)*%
X170916600Y-54330600D02*
X170916600Y-50673000D01*
X172085000Y-55499000D02*
X170916600Y-54330600D01*
X172085000Y-60071000D02*
X172085000Y-55499000D01*
X170999000Y-61157000D02*
X172085000Y-60071000D01*
X170999000Y-63189000D02*
X170999000Y-61157000D01*
X170180000Y-64008000D02*
X170999000Y-63189000D01*
%TO.N,Net-(R5-Pad2)*%
X165836600Y-55522100D02*
X169799000Y-59484500D01*
X165836600Y-50673000D02*
X165836600Y-55522100D01*
%TO.N,Net-(R6-Pad2)*%
X182473600Y-55410100D02*
X186563000Y-59499500D01*
X182473600Y-50673000D02*
X182473600Y-55410100D01*
%TO.N,Net-(R7-Pad2)*%
X198983600Y-55234600D02*
X203225400Y-59476400D01*
X198983600Y-50673000D02*
X198983600Y-55234600D01*
%TO.N,Net-(IC4-Pad1)*%
X200055400Y-59558000D02*
X200055400Y-63926400D01*
X200055400Y-63926400D02*
X203225400Y-67096400D01*
%TO.N,Net-(IC5-Pad1)*%
X183393000Y-63949500D02*
X186563000Y-67119500D01*
X183393000Y-59509500D02*
X183393000Y-63949500D01*
%TO.N,Net-(IC6-Pad1)*%
X166629000Y-63934500D02*
X169799000Y-67104500D01*
X166629000Y-59494500D02*
X166629000Y-63934500D01*
%TO.N,Net-(IC1-Pad13)*%
X194214000Y-86900000D02*
X193516000Y-87598000D01*
X194215000Y-86900000D02*
X194214000Y-86900000D01*
X193516000Y-87598000D02*
X182975000Y-87598000D01*
X194215000Y-83725000D02*
X194215000Y-86900000D01*
%TO.N,Net-(IC1-Pad14)*%
X191262000Y-86360000D02*
X191675000Y-85947000D01*
X183388000Y-86360000D02*
X191262000Y-86360000D01*
X180848000Y-82042000D02*
X182118000Y-83312000D01*
X182118000Y-85090000D02*
X183388000Y-86360000D01*
X179959000Y-82042000D02*
X180848000Y-82042000D01*
X182118000Y-83312000D02*
X182118000Y-85090000D01*
X191675000Y-85947000D02*
X191675000Y-83725000D01*
%TO.N,Net-(IC1-Pad13)*%
X182975000Y-87598000D02*
X179959000Y-84582000D01*
%TO.N,+3.3V*%
X207645000Y-84074000D02*
X208765000Y-82954000D01*
X205486000Y-84074000D02*
X207645000Y-84074000D01*
X186246000Y-81534000D02*
X202946000Y-81534000D01*
X184055000Y-83725000D02*
X186246000Y-81534000D01*
X202946000Y-81534000D02*
X205486000Y-84074000D01*
X208765000Y-82954000D02*
X208765000Y-80010000D01*
%TO.N,Net-(IC1-Pad15)*%
X202923000Y-79502000D02*
X179959000Y-79502000D01*
X206225000Y-76200000D02*
X202923000Y-79502000D01*
%TD*%
M02*
