%TF.GenerationSoftware,KiCad,Pcbnew,(6.0.7)*%
%TF.CreationDate,2023-01-06T17:08:48+01:00*%
%TF.ProjectId,s0 interface,73302069-6e74-4657-9266-6163652e6b69,rev?*%
%TF.SameCoordinates,Original*%
%TF.FileFunction,Soldermask,Bot*%
%TF.FilePolarity,Negative*%
%FSLAX46Y46*%
G04 Gerber Fmt 4.6, Leading zero omitted, Abs format (unit mm)*
G04 Created by KiCad (PCBNEW (6.0.7)) date 2023-01-06 17:08:48*
%MOMM*%
%LPD*%
G01*
G04 APERTURE LIST*
G04 Aperture macros list*
%AMFreePoly0*
4,1,22,0.550000,-0.750000,0.000000,-0.750000,0.000000,-0.745033,-0.079941,-0.743568,-0.215256,-0.701293,-0.333266,-0.622738,-0.424486,-0.514219,-0.481581,-0.384460,-0.499164,-0.250000,-0.500000,-0.250000,-0.500000,0.250000,-0.499164,0.250000,-0.499963,0.256109,-0.478152,0.396186,-0.417904,0.524511,-0.324060,0.630769,-0.204165,0.706417,-0.067858,0.745374,0.000000,0.744959,0.000000,0.750000,
0.550000,0.750000,0.550000,-0.750000,0.550000,-0.750000,$1*%
%AMFreePoly1*
4,1,20,0.000000,0.744959,0.073905,0.744508,0.209726,0.703889,0.328688,0.626782,0.421226,0.519385,0.479903,0.390333,0.500000,0.250000,0.500000,-0.250000,0.499851,-0.262216,0.476331,-0.402017,0.414519,-0.529596,0.319384,-0.634700,0.198574,-0.708877,0.061801,-0.746166,0.000000,-0.745033,0.000000,-0.750000,-0.550000,-0.750000,-0.550000,0.750000,0.000000,0.750000,0.000000,0.744959,
0.000000,0.744959,$1*%
G04 Aperture macros list end*
%ADD10C,3.250000*%
%ADD11R,1.520000X1.520000*%
%ADD12C,1.520000*%
%ADD13R,2.600000X2.600000*%
%ADD14C,2.600000*%
%ADD15O,1.600000X1.600000*%
%ADD16C,1.600000*%
%ADD17FreePoly0,270.000000*%
%ADD18R,1.500000X1.000000*%
%ADD19FreePoly1,270.000000*%
%ADD20R,1.600000X1.600000*%
%ADD21C,4.300000*%
%ADD22C,1.524000*%
%ADD23R,2.000000X2.000000*%
%ADD24O,2.000000X1.600000*%
G04 APERTURE END LIST*
D10*
%TO.C,P1*%
X215115000Y-83190000D03*
X215115000Y-73030000D03*
D11*
X206225000Y-81280000D03*
D12*
X208765000Y-80010000D03*
X206225000Y-78740000D03*
X208765000Y-77470000D03*
X206225000Y-76200000D03*
X208765000Y-74930000D03*
%TD*%
D13*
%TO.C,S0-4*%
X220477000Y-50627000D03*
D14*
X215397000Y-50627000D03*
X210317000Y-50627000D03*
%TD*%
D15*
%TO.C,R8*%
X219705000Y-59563000D03*
D16*
X219705000Y-67183000D03*
%TD*%
D15*
%TO.C,R4*%
X210688000Y-67183000D03*
D16*
X210688000Y-59563000D03*
%TD*%
D17*
%TO.C,JP4*%
X222626000Y-62835000D03*
D18*
X222626000Y-64135000D03*
D19*
X222626000Y-65435000D03*
%TD*%
D20*
%TO.C,IC7*%
X216408000Y-59573000D03*
D15*
X213868000Y-59573000D03*
X213868000Y-67193000D03*
X216408000Y-67193000D03*
%TD*%
%TO.C,IC6*%
X166629000Y-67114500D03*
X164089000Y-67114500D03*
X164089000Y-59494500D03*
D20*
X166629000Y-59494500D03*
%TD*%
D21*
%TO.C,REF\u002A\u002A*%
X191008000Y-40513000D03*
%TD*%
D14*
%TO.C,S0-3*%
X193903600Y-50673000D03*
X198983600Y-50673000D03*
D13*
X204063600Y-50673000D03*
%TD*%
D14*
%TO.C,S0-2*%
X177393600Y-50673000D03*
X182473600Y-50673000D03*
D13*
X187553600Y-50673000D03*
%TD*%
D22*
%TO.C,IC2*%
X184055000Y-83725000D03*
X186595000Y-83725000D03*
X189135000Y-83725000D03*
X191675000Y-83725000D03*
X194215000Y-83725000D03*
X196755000Y-83725000D03*
X199295000Y-83725000D03*
X201835000Y-83725000D03*
%TD*%
D15*
%TO.C,R5*%
X169799000Y-59436000D03*
D16*
X169799000Y-67056000D03*
%TD*%
%TO.C,R7*%
X203225400Y-67096400D03*
D15*
X203225400Y-59476400D03*
%TD*%
D20*
%TO.C,IC5*%
X183393000Y-59509500D03*
D15*
X180853000Y-59509500D03*
X180853000Y-67129500D03*
X183393000Y-67129500D03*
%TD*%
D22*
%TO.C,DC1*%
X186595000Y-93123000D03*
X186595000Y-100235000D03*
X218091000Y-93631000D03*
X218091000Y-99727000D03*
%TD*%
D20*
%TO.C,IC4*%
X200055400Y-59558000D03*
D15*
X197515400Y-59558000D03*
X197515400Y-67178000D03*
X200055400Y-67178000D03*
%TD*%
D16*
%TO.C,R6*%
X186563000Y-67119500D03*
D15*
X186563000Y-59499500D03*
%TD*%
%TO.C,R1*%
X160655000Y-67007500D03*
D16*
X160655000Y-59387500D03*
%TD*%
%TO.C,R3*%
X194056000Y-59451000D03*
D15*
X194056000Y-67071000D03*
%TD*%
D16*
%TO.C,R2*%
X177419000Y-59372500D03*
D15*
X177419000Y-66992500D03*
%TD*%
D23*
%TO.C,IC1*%
X157099000Y-76962000D03*
D24*
X157099000Y-79502000D03*
X157099000Y-82042000D03*
X157099000Y-84582000D03*
X157099000Y-87122000D03*
X157099000Y-89662000D03*
X157099000Y-92202000D03*
X157099000Y-94742000D03*
X179959000Y-94742000D03*
X179959000Y-92202000D03*
X179959000Y-89662000D03*
X179959000Y-87122000D03*
X179959000Y-84582000D03*
X179959000Y-82042000D03*
X179959000Y-79502000D03*
X179959000Y-76962000D03*
%TD*%
D21*
%TO.C,REF\u002A\u002A*%
X191008000Y-108585000D03*
%TD*%
D14*
%TO.C,S0-1*%
X160756600Y-50673000D03*
X165836600Y-50673000D03*
D13*
X170916600Y-50673000D03*
%TD*%
D17*
%TO.C,JP3*%
X206273400Y-62820000D03*
D18*
X206273400Y-64120000D03*
D19*
X206273400Y-65420000D03*
%TD*%
%TO.C,JP1*%
X172847000Y-65356500D03*
D18*
X172847000Y-64056500D03*
D17*
X172847000Y-62756500D03*
%TD*%
D19*
%TO.C,JP2*%
X189738000Y-65435000D03*
D18*
X189738000Y-64135000D03*
D17*
X189738000Y-62835000D03*
%TD*%
M02*
