%TF.GenerationSoftware,KiCad,Pcbnew,(6.0.7)*%
%TF.CreationDate,2023-01-06T17:08:48+01:00*%
%TF.ProjectId,s0 interface,73302069-6e74-4657-9266-6163652e6b69,rev?*%
%TF.SameCoordinates,Original*%
%TF.FileFunction,Legend,Top*%
%TF.FilePolarity,Positive*%
%FSLAX46Y46*%
G04 Gerber Fmt 4.6, Leading zero omitted, Abs format (unit mm)*
G04 Created by KiCad (PCBNEW (6.0.7)) date 2023-01-06 17:08:48*
%MOMM*%
%LPD*%
G01*
G04 APERTURE LIST*
%ADD10C,0.150000*%
%ADD11C,0.120000*%
%ADD12C,0.100000*%
G04 APERTURE END LIST*
D10*
X163418095Y-108354761D02*
X163560952Y-108402380D01*
X163799047Y-108402380D01*
X163894285Y-108354761D01*
X163941904Y-108307142D01*
X163989523Y-108211904D01*
X163989523Y-108116666D01*
X163941904Y-108021428D01*
X163894285Y-107973809D01*
X163799047Y-107926190D01*
X163608571Y-107878571D01*
X163513333Y-107830952D01*
X163465714Y-107783333D01*
X163418095Y-107688095D01*
X163418095Y-107592857D01*
X163465714Y-107497619D01*
X163513333Y-107450000D01*
X163608571Y-107402380D01*
X163846666Y-107402380D01*
X163989523Y-107450000D01*
X164608571Y-107402380D02*
X164799047Y-107402380D01*
X164894285Y-107450000D01*
X164989523Y-107545238D01*
X165037142Y-107735714D01*
X165037142Y-108069047D01*
X164989523Y-108259523D01*
X164894285Y-108354761D01*
X164799047Y-108402380D01*
X164608571Y-108402380D01*
X164513333Y-108354761D01*
X164418095Y-108259523D01*
X164370476Y-108069047D01*
X164370476Y-107735714D01*
X164418095Y-107545238D01*
X164513333Y-107450000D01*
X164608571Y-107402380D01*
X166180000Y-107354761D02*
X165322857Y-108640476D01*
X166513333Y-108402380D02*
X166513333Y-107402380D01*
X166894285Y-107402380D01*
X166989523Y-107450000D01*
X167037142Y-107497619D01*
X167084761Y-107592857D01*
X167084761Y-107735714D01*
X167037142Y-107830952D01*
X166989523Y-107878571D01*
X166894285Y-107926190D01*
X166513333Y-107926190D01*
X168037142Y-108402380D02*
X167465714Y-108402380D01*
X167751428Y-108402380D02*
X167751428Y-107402380D01*
X167656190Y-107545238D01*
X167560952Y-107640476D01*
X167465714Y-107688095D01*
X169227619Y-108402380D02*
X169227619Y-107402380D01*
X169227619Y-107783333D02*
X169322857Y-107735714D01*
X169513333Y-107735714D01*
X169608571Y-107783333D01*
X169656190Y-107830952D01*
X169703809Y-107926190D01*
X169703809Y-108211904D01*
X169656190Y-108307142D01*
X169608571Y-108354761D01*
X169513333Y-108402380D01*
X169322857Y-108402380D01*
X169227619Y-108354761D01*
X170275238Y-108402380D02*
X170180000Y-108354761D01*
X170132380Y-108307142D01*
X170084761Y-108211904D01*
X170084761Y-107926190D01*
X170132380Y-107830952D01*
X170180000Y-107783333D01*
X170275238Y-107735714D01*
X170418095Y-107735714D01*
X170513333Y-107783333D01*
X170560952Y-107830952D01*
X170608571Y-107926190D01*
X170608571Y-108211904D01*
X170560952Y-108307142D01*
X170513333Y-108354761D01*
X170418095Y-108402380D01*
X170275238Y-108402380D01*
X171465714Y-108402380D02*
X171465714Y-107878571D01*
X171418095Y-107783333D01*
X171322857Y-107735714D01*
X171132380Y-107735714D01*
X171037142Y-107783333D01*
X171465714Y-108354761D02*
X171370476Y-108402380D01*
X171132380Y-108402380D01*
X171037142Y-108354761D01*
X170989523Y-108259523D01*
X170989523Y-108164285D01*
X171037142Y-108069047D01*
X171132380Y-108021428D01*
X171370476Y-108021428D01*
X171465714Y-107973809D01*
X171941904Y-108402380D02*
X171941904Y-107735714D01*
X171941904Y-107926190D02*
X171989523Y-107830952D01*
X172037142Y-107783333D01*
X172132380Y-107735714D01*
X172227619Y-107735714D01*
X172989523Y-108402380D02*
X172989523Y-107402380D01*
X172989523Y-108354761D02*
X172894285Y-108402380D01*
X172703809Y-108402380D01*
X172608571Y-108354761D01*
X172560952Y-108307142D01*
X172513333Y-108211904D01*
X172513333Y-107926190D01*
X172560952Y-107830952D01*
X172608571Y-107783333D01*
X172703809Y-107735714D01*
X172894285Y-107735714D01*
X172989523Y-107783333D01*
X174132380Y-107735714D02*
X174370476Y-108402380D01*
X174608571Y-107735714D01*
X175513333Y-108402380D02*
X174941904Y-108402380D01*
X175227619Y-108402380D02*
X175227619Y-107402380D01*
X175132380Y-107545238D01*
X175037142Y-107640476D01*
X174941904Y-107688095D01*
X175941904Y-108307142D02*
X175989523Y-108354761D01*
X175941904Y-108402380D01*
X175894285Y-108354761D01*
X175941904Y-108307142D01*
X175941904Y-108402380D01*
X176608571Y-107402380D02*
X176703809Y-107402380D01*
X176799047Y-107450000D01*
X176846666Y-107497619D01*
X176894285Y-107592857D01*
X176941904Y-107783333D01*
X176941904Y-108021428D01*
X176894285Y-108211904D01*
X176846666Y-108307142D01*
X176799047Y-108354761D01*
X176703809Y-108402380D01*
X176608571Y-108402380D01*
X176513333Y-108354761D01*
X176465714Y-108307142D01*
X176418095Y-108211904D01*
X176370476Y-108021428D01*
X176370476Y-107783333D01*
X176418095Y-107592857D01*
X176465714Y-107497619D01*
X176513333Y-107450000D01*
X176608571Y-107402380D01*
X209956495Y-43315000D02*
X209861257Y-43267380D01*
X209718400Y-43267380D01*
X209575542Y-43315000D01*
X209480304Y-43410238D01*
X209432685Y-43505476D01*
X209385066Y-43695952D01*
X209385066Y-43838809D01*
X209432685Y-44029285D01*
X209480304Y-44124523D01*
X209575542Y-44219761D01*
X209718400Y-44267380D01*
X209813638Y-44267380D01*
X209956495Y-44219761D01*
X210004114Y-44172142D01*
X210004114Y-43838809D01*
X209813638Y-43838809D01*
X210432685Y-44267380D02*
X210432685Y-43267380D01*
X211004114Y-44267380D01*
X211004114Y-43267380D01*
X211480304Y-44267380D02*
X211480304Y-43267380D01*
X211718400Y-43267380D01*
X211861257Y-43315000D01*
X211956495Y-43410238D01*
X212004114Y-43505476D01*
X212051733Y-43695952D01*
X212051733Y-43838809D01*
X212004114Y-44029285D01*
X211956495Y-44124523D01*
X211861257Y-44219761D01*
X211718400Y-44267380D01*
X211480304Y-44267380D01*
X165037142Y-106687880D02*
X165037142Y-105687880D01*
X165275238Y-105687880D01*
X165418095Y-105735500D01*
X165513333Y-105830738D01*
X165560952Y-105925976D01*
X165608571Y-106116452D01*
X165608571Y-106259309D01*
X165560952Y-106449785D01*
X165513333Y-106545023D01*
X165418095Y-106640261D01*
X165275238Y-106687880D01*
X165037142Y-106687880D01*
X166418095Y-106640261D02*
X166322857Y-106687880D01*
X166132380Y-106687880D01*
X166037142Y-106640261D01*
X165989523Y-106545023D01*
X165989523Y-106164071D01*
X166037142Y-106068833D01*
X166132380Y-106021214D01*
X166322857Y-106021214D01*
X166418095Y-106068833D01*
X166465714Y-106164071D01*
X166465714Y-106259309D01*
X165989523Y-106354547D01*
X166846666Y-106640261D02*
X166941904Y-106687880D01*
X167132380Y-106687880D01*
X167227619Y-106640261D01*
X167275238Y-106545023D01*
X167275238Y-106497404D01*
X167227619Y-106402166D01*
X167132380Y-106354547D01*
X166989523Y-106354547D01*
X166894285Y-106306928D01*
X166846666Y-106211690D01*
X166846666Y-106164071D01*
X166894285Y-106068833D01*
X166989523Y-106021214D01*
X167132380Y-106021214D01*
X167227619Y-106068833D01*
X167703809Y-106687880D02*
X167703809Y-106021214D01*
X167703809Y-105687880D02*
X167656190Y-105735500D01*
X167703809Y-105783119D01*
X167751428Y-105735500D01*
X167703809Y-105687880D01*
X167703809Y-105783119D01*
X168608571Y-106021214D02*
X168608571Y-106830738D01*
X168560952Y-106925976D01*
X168513333Y-106973595D01*
X168418095Y-107021214D01*
X168275238Y-107021214D01*
X168180000Y-106973595D01*
X168608571Y-106640261D02*
X168513333Y-106687880D01*
X168322857Y-106687880D01*
X168227619Y-106640261D01*
X168180000Y-106592642D01*
X168132380Y-106497404D01*
X168132380Y-106211690D01*
X168180000Y-106116452D01*
X168227619Y-106068833D01*
X168322857Y-106021214D01*
X168513333Y-106021214D01*
X168608571Y-106068833D01*
X169084761Y-106021214D02*
X169084761Y-106687880D01*
X169084761Y-106116452D02*
X169132380Y-106068833D01*
X169227619Y-106021214D01*
X169370476Y-106021214D01*
X169465714Y-106068833D01*
X169513333Y-106164071D01*
X169513333Y-106687880D01*
X170751428Y-106687880D02*
X170751428Y-105687880D01*
X170751428Y-106068833D02*
X170846666Y-106021214D01*
X171037142Y-106021214D01*
X171132380Y-106068833D01*
X171180000Y-106116452D01*
X171227619Y-106211690D01*
X171227619Y-106497404D01*
X171180000Y-106592642D01*
X171132380Y-106640261D01*
X171037142Y-106687880D01*
X170846666Y-106687880D01*
X170751428Y-106640261D01*
X171560952Y-106021214D02*
X171799047Y-106687880D01*
X172037142Y-106021214D02*
X171799047Y-106687880D01*
X171703809Y-106925976D01*
X171656190Y-106973595D01*
X171560952Y-107021214D01*
X173132380Y-106402166D02*
X173608571Y-106402166D01*
X173037142Y-106687880D02*
X173370476Y-105687880D01*
X173703809Y-106687880D01*
X174322857Y-105687880D02*
X174322857Y-106402166D01*
X174275238Y-106545023D01*
X174180000Y-106640261D01*
X174037142Y-106687880D01*
X173941904Y-106687880D01*
X175322857Y-105735500D02*
X175227619Y-105687880D01*
X175084761Y-105687880D01*
X174941904Y-105735500D01*
X174846666Y-105830738D01*
X174799047Y-105925976D01*
X174751428Y-106116452D01*
X174751428Y-106259309D01*
X174799047Y-106449785D01*
X174846666Y-106545023D01*
X174941904Y-106640261D01*
X175084761Y-106687880D01*
X175180000Y-106687880D01*
X175322857Y-106640261D01*
X175370476Y-106592642D01*
X175370476Y-106259309D01*
X175180000Y-106259309D01*
X202958866Y-43267380D02*
X203292200Y-44267380D01*
X203625533Y-43267380D01*
X204530295Y-44172142D02*
X204482676Y-44219761D01*
X204339819Y-44267380D01*
X204244580Y-44267380D01*
X204101723Y-44219761D01*
X204006485Y-44124523D01*
X203958866Y-44029285D01*
X203911247Y-43838809D01*
X203911247Y-43695952D01*
X203958866Y-43505476D01*
X204006485Y-43410238D01*
X204101723Y-43315000D01*
X204244580Y-43267380D01*
X204339819Y-43267380D01*
X204482676Y-43315000D01*
X204530295Y-43362619D01*
X205530295Y-44172142D02*
X205482676Y-44219761D01*
X205339819Y-44267380D01*
X205244580Y-44267380D01*
X205101723Y-44219761D01*
X205006485Y-44124523D01*
X204958866Y-44029285D01*
X204911247Y-43838809D01*
X204911247Y-43695952D01*
X204958866Y-43505476D01*
X205006485Y-43410238D01*
X205101723Y-43315000D01*
X205244580Y-43267380D01*
X205339819Y-43267380D01*
X205482676Y-43315000D01*
X205530295Y-43362619D01*
X164671476Y-44219761D02*
X164814333Y-44267380D01*
X165052428Y-44267380D01*
X165147666Y-44219761D01*
X165195285Y-44172142D01*
X165242904Y-44076904D01*
X165242904Y-43981666D01*
X165195285Y-43886428D01*
X165147666Y-43838809D01*
X165052428Y-43791190D01*
X164861952Y-43743571D01*
X164766714Y-43695952D01*
X164719095Y-43648333D01*
X164671476Y-43553095D01*
X164671476Y-43457857D01*
X164719095Y-43362619D01*
X164766714Y-43315000D01*
X164861952Y-43267380D01*
X165100047Y-43267380D01*
X165242904Y-43315000D01*
X165861952Y-43267380D02*
X166052428Y-43267380D01*
X166147666Y-43315000D01*
X166242904Y-43410238D01*
X166290523Y-43600714D01*
X166290523Y-43934047D01*
X166242904Y-44124523D01*
X166147666Y-44219761D01*
X166052428Y-44267380D01*
X165861952Y-44267380D01*
X165766714Y-44219761D01*
X165671476Y-44124523D01*
X165623857Y-43934047D01*
X165623857Y-43600714D01*
X165671476Y-43410238D01*
X165766714Y-43315000D01*
X165861952Y-43267380D01*
X220281666Y-43267380D02*
X220615000Y-44267380D01*
X220948333Y-43267380D01*
X221853095Y-44172142D02*
X221805476Y-44219761D01*
X221662619Y-44267380D01*
X221567380Y-44267380D01*
X221424523Y-44219761D01*
X221329285Y-44124523D01*
X221281666Y-44029285D01*
X221234047Y-43838809D01*
X221234047Y-43695952D01*
X221281666Y-43505476D01*
X221329285Y-43410238D01*
X221424523Y-43315000D01*
X221567380Y-43267380D01*
X221662619Y-43267380D01*
X221805476Y-43315000D01*
X221853095Y-43362619D01*
X222853095Y-44172142D02*
X222805476Y-44219761D01*
X222662619Y-44267380D01*
X222567380Y-44267380D01*
X222424523Y-44219761D01*
X222329285Y-44124523D01*
X222281666Y-44029285D01*
X222234047Y-43838809D01*
X222234047Y-43695952D01*
X222281666Y-43505476D01*
X222329285Y-43410238D01*
X222424523Y-43315000D01*
X222567380Y-43267380D01*
X222662619Y-43267380D01*
X222805476Y-43315000D01*
X222853095Y-43362619D01*
X159283495Y-43315000D02*
X159188257Y-43267380D01*
X159045400Y-43267380D01*
X158902542Y-43315000D01*
X158807304Y-43410238D01*
X158759685Y-43505476D01*
X158712066Y-43695952D01*
X158712066Y-43838809D01*
X158759685Y-44029285D01*
X158807304Y-44124523D01*
X158902542Y-44219761D01*
X159045400Y-44267380D01*
X159140638Y-44267380D01*
X159283495Y-44219761D01*
X159331114Y-44172142D01*
X159331114Y-43838809D01*
X159140638Y-43838809D01*
X159759685Y-44267380D02*
X159759685Y-43267380D01*
X160331114Y-44267380D01*
X160331114Y-43267380D01*
X160807304Y-44267380D02*
X160807304Y-43267380D01*
X161045400Y-43267380D01*
X161188257Y-43315000D01*
X161283495Y-43410238D01*
X161331114Y-43505476D01*
X161378733Y-43695952D01*
X161378733Y-43838809D01*
X161331114Y-44029285D01*
X161283495Y-44124523D01*
X161188257Y-44219761D01*
X161045400Y-44267380D01*
X160807304Y-44267380D01*
X169405466Y-43267380D02*
X169738800Y-44267380D01*
X170072133Y-43267380D01*
X170976895Y-44172142D02*
X170929276Y-44219761D01*
X170786419Y-44267380D01*
X170691180Y-44267380D01*
X170548323Y-44219761D01*
X170453085Y-44124523D01*
X170405466Y-44029285D01*
X170357847Y-43838809D01*
X170357847Y-43695952D01*
X170405466Y-43505476D01*
X170453085Y-43410238D01*
X170548323Y-43315000D01*
X170691180Y-43267380D01*
X170786419Y-43267380D01*
X170929276Y-43315000D01*
X170976895Y-43362619D01*
X171976895Y-44172142D02*
X171929276Y-44219761D01*
X171786419Y-44267380D01*
X171691180Y-44267380D01*
X171548323Y-44219761D01*
X171453085Y-44124523D01*
X171405466Y-44029285D01*
X171357847Y-43838809D01*
X171357847Y-43695952D01*
X171405466Y-43505476D01*
X171453085Y-43410238D01*
X171548323Y-43315000D01*
X171691180Y-43267380D01*
X171786419Y-43267380D01*
X171929276Y-43315000D01*
X171976895Y-43362619D01*
X215344476Y-44219761D02*
X215487333Y-44267380D01*
X215725428Y-44267380D01*
X215820666Y-44219761D01*
X215868285Y-44172142D01*
X215915904Y-44076904D01*
X215915904Y-43981666D01*
X215868285Y-43886428D01*
X215820666Y-43838809D01*
X215725428Y-43791190D01*
X215534952Y-43743571D01*
X215439714Y-43695952D01*
X215392095Y-43648333D01*
X215344476Y-43553095D01*
X215344476Y-43457857D01*
X215392095Y-43362619D01*
X215439714Y-43315000D01*
X215534952Y-43267380D01*
X215773047Y-43267380D01*
X215915904Y-43315000D01*
X216534952Y-43267380D02*
X216725428Y-43267380D01*
X216820666Y-43315000D01*
X216915904Y-43410238D01*
X216963523Y-43600714D01*
X216963523Y-43934047D01*
X216915904Y-44124523D01*
X216820666Y-44219761D01*
X216725428Y-44267380D01*
X216534952Y-44267380D01*
X216439714Y-44219761D01*
X216344476Y-44124523D01*
X216296857Y-43934047D01*
X216296857Y-43600714D01*
X216344476Y-43410238D01*
X216439714Y-43315000D01*
X216534952Y-43267380D01*
X192633695Y-43315000D02*
X192538457Y-43267380D01*
X192395600Y-43267380D01*
X192252742Y-43315000D01*
X192157504Y-43410238D01*
X192109885Y-43505476D01*
X192062266Y-43695952D01*
X192062266Y-43838809D01*
X192109885Y-44029285D01*
X192157504Y-44124523D01*
X192252742Y-44219761D01*
X192395600Y-44267380D01*
X192490838Y-44267380D01*
X192633695Y-44219761D01*
X192681314Y-44172142D01*
X192681314Y-43838809D01*
X192490838Y-43838809D01*
X193109885Y-44267380D02*
X193109885Y-43267380D01*
X193681314Y-44267380D01*
X193681314Y-43267380D01*
X194157504Y-44267380D02*
X194157504Y-43267380D01*
X194395600Y-43267380D01*
X194538457Y-43315000D01*
X194633695Y-43410238D01*
X194681314Y-43505476D01*
X194728933Y-43695952D01*
X194728933Y-43838809D01*
X194681314Y-44029285D01*
X194633695Y-44124523D01*
X194538457Y-44219761D01*
X194395600Y-44267380D01*
X194157504Y-44267380D01*
X181410076Y-44219761D02*
X181552933Y-44267380D01*
X181791028Y-44267380D01*
X181886266Y-44219761D01*
X181933885Y-44172142D01*
X181981504Y-44076904D01*
X181981504Y-43981666D01*
X181933885Y-43886428D01*
X181886266Y-43838809D01*
X181791028Y-43791190D01*
X181600552Y-43743571D01*
X181505314Y-43695952D01*
X181457695Y-43648333D01*
X181410076Y-43553095D01*
X181410076Y-43457857D01*
X181457695Y-43362619D01*
X181505314Y-43315000D01*
X181600552Y-43267380D01*
X181838647Y-43267380D01*
X181981504Y-43315000D01*
X182600552Y-43267380D02*
X182791028Y-43267380D01*
X182886266Y-43315000D01*
X182981504Y-43410238D01*
X183029123Y-43600714D01*
X183029123Y-43934047D01*
X182981504Y-44124523D01*
X182886266Y-44219761D01*
X182791028Y-44267380D01*
X182600552Y-44267380D01*
X182505314Y-44219761D01*
X182410076Y-44124523D01*
X182362457Y-43934047D01*
X182362457Y-43600714D01*
X182410076Y-43410238D01*
X182505314Y-43315000D01*
X182600552Y-43267380D01*
X159394285Y-110116880D02*
X159394285Y-109116880D01*
X159822857Y-110116880D02*
X159822857Y-109593071D01*
X159775238Y-109497833D01*
X159680000Y-109450214D01*
X159537142Y-109450214D01*
X159441904Y-109497833D01*
X159394285Y-109545452D01*
X160156190Y-109450214D02*
X160537142Y-109450214D01*
X160299047Y-109116880D02*
X160299047Y-109974023D01*
X160346666Y-110069261D01*
X160441904Y-110116880D01*
X160537142Y-110116880D01*
X160727619Y-109450214D02*
X161108571Y-109450214D01*
X160870476Y-109116880D02*
X160870476Y-109974023D01*
X160918095Y-110069261D01*
X161013333Y-110116880D01*
X161108571Y-110116880D01*
X161441904Y-109450214D02*
X161441904Y-110450214D01*
X161441904Y-109497833D02*
X161537142Y-109450214D01*
X161727619Y-109450214D01*
X161822857Y-109497833D01*
X161870476Y-109545452D01*
X161918095Y-109640690D01*
X161918095Y-109926404D01*
X161870476Y-110021642D01*
X161822857Y-110069261D01*
X161727619Y-110116880D01*
X161537142Y-110116880D01*
X161441904Y-110069261D01*
X162299047Y-110069261D02*
X162394285Y-110116880D01*
X162584761Y-110116880D01*
X162680000Y-110069261D01*
X162727619Y-109974023D01*
X162727619Y-109926404D01*
X162680000Y-109831166D01*
X162584761Y-109783547D01*
X162441904Y-109783547D01*
X162346666Y-109735928D01*
X162299047Y-109640690D01*
X162299047Y-109593071D01*
X162346666Y-109497833D01*
X162441904Y-109450214D01*
X162584761Y-109450214D01*
X162680000Y-109497833D01*
X163156190Y-110021642D02*
X163203809Y-110069261D01*
X163156190Y-110116880D01*
X163108571Y-110069261D01*
X163156190Y-110021642D01*
X163156190Y-110116880D01*
X163156190Y-109497833D02*
X163203809Y-109545452D01*
X163156190Y-109593071D01*
X163108571Y-109545452D01*
X163156190Y-109497833D01*
X163156190Y-109593071D01*
X164346666Y-109069261D02*
X163489523Y-110354976D01*
X165394285Y-109069261D02*
X164537142Y-110354976D01*
X166156190Y-109450214D02*
X166156190Y-110259738D01*
X166108571Y-110354976D01*
X166060952Y-110402595D01*
X165965714Y-110450214D01*
X165822857Y-110450214D01*
X165727619Y-110402595D01*
X166156190Y-110069261D02*
X166060952Y-110116880D01*
X165870476Y-110116880D01*
X165775238Y-110069261D01*
X165727619Y-110021642D01*
X165680000Y-109926404D01*
X165680000Y-109640690D01*
X165727619Y-109545452D01*
X165775238Y-109497833D01*
X165870476Y-109450214D01*
X166060952Y-109450214D01*
X166156190Y-109497833D01*
X166632380Y-110116880D02*
X166632380Y-109450214D01*
X166632380Y-109116880D02*
X166584761Y-109164500D01*
X166632380Y-109212119D01*
X166680000Y-109164500D01*
X166632380Y-109116880D01*
X166632380Y-109212119D01*
X166965714Y-109450214D02*
X167346666Y-109450214D01*
X167108571Y-109116880D02*
X167108571Y-109974023D01*
X167156190Y-110069261D01*
X167251428Y-110116880D01*
X167346666Y-110116880D01*
X167680000Y-110116880D02*
X167680000Y-109116880D01*
X168108571Y-110116880D02*
X168108571Y-109593071D01*
X168060952Y-109497833D01*
X167965714Y-109450214D01*
X167822857Y-109450214D01*
X167727619Y-109497833D01*
X167680000Y-109545452D01*
X169013333Y-109450214D02*
X169013333Y-110116880D01*
X168584761Y-109450214D02*
X168584761Y-109974023D01*
X168632380Y-110069261D01*
X168727619Y-110116880D01*
X168870476Y-110116880D01*
X168965714Y-110069261D01*
X169013333Y-110021642D01*
X169489523Y-110116880D02*
X169489523Y-109116880D01*
X169489523Y-109497833D02*
X169584761Y-109450214D01*
X169775238Y-109450214D01*
X169870476Y-109497833D01*
X169918095Y-109545452D01*
X169965714Y-109640690D01*
X169965714Y-109926404D01*
X169918095Y-110021642D01*
X169870476Y-110069261D01*
X169775238Y-110116880D01*
X169584761Y-110116880D01*
X169489523Y-110069261D01*
X170394285Y-110021642D02*
X170441904Y-110069261D01*
X170394285Y-110116880D01*
X170346666Y-110069261D01*
X170394285Y-110021642D01*
X170394285Y-110116880D01*
X171299047Y-110069261D02*
X171203809Y-110116880D01*
X171013333Y-110116880D01*
X170918095Y-110069261D01*
X170870476Y-110021642D01*
X170822857Y-109926404D01*
X170822857Y-109640690D01*
X170870476Y-109545452D01*
X170918095Y-109497833D01*
X171013333Y-109450214D01*
X171203809Y-109450214D01*
X171299047Y-109497833D01*
X171870476Y-110116880D02*
X171775238Y-110069261D01*
X171727619Y-110021642D01*
X171680000Y-109926404D01*
X171680000Y-109640690D01*
X171727619Y-109545452D01*
X171775238Y-109497833D01*
X171870476Y-109450214D01*
X172013333Y-109450214D01*
X172108571Y-109497833D01*
X172156190Y-109545452D01*
X172203809Y-109640690D01*
X172203809Y-109926404D01*
X172156190Y-110021642D01*
X172108571Y-110069261D01*
X172013333Y-110116880D01*
X171870476Y-110116880D01*
X172632380Y-110116880D02*
X172632380Y-109450214D01*
X172632380Y-109545452D02*
X172680000Y-109497833D01*
X172775238Y-109450214D01*
X172918095Y-109450214D01*
X173013333Y-109497833D01*
X173060952Y-109593071D01*
X173060952Y-110116880D01*
X173060952Y-109593071D02*
X173108571Y-109497833D01*
X173203809Y-109450214D01*
X173346666Y-109450214D01*
X173441904Y-109497833D01*
X173489523Y-109593071D01*
X173489523Y-110116880D01*
X174680000Y-109069261D02*
X173822857Y-110354976D01*
X175441904Y-110116880D02*
X175441904Y-109593071D01*
X175394285Y-109497833D01*
X175299047Y-109450214D01*
X175108571Y-109450214D01*
X175013333Y-109497833D01*
X175441904Y-110069261D02*
X175346666Y-110116880D01*
X175108571Y-110116880D01*
X175013333Y-110069261D01*
X174965714Y-109974023D01*
X174965714Y-109878785D01*
X175013333Y-109783547D01*
X175108571Y-109735928D01*
X175346666Y-109735928D01*
X175441904Y-109688309D01*
X176346666Y-109450214D02*
X176346666Y-110259738D01*
X176299047Y-110354976D01*
X176251428Y-110402595D01*
X176156190Y-110450214D01*
X176013333Y-110450214D01*
X175918095Y-110402595D01*
X176346666Y-110069261D02*
X176251428Y-110116880D01*
X176060952Y-110116880D01*
X175965714Y-110069261D01*
X175918095Y-110021642D01*
X175870476Y-109926404D01*
X175870476Y-109640690D01*
X175918095Y-109545452D01*
X175965714Y-109497833D01*
X176060952Y-109450214D01*
X176251428Y-109450214D01*
X176346666Y-109497833D01*
X177203809Y-110069261D02*
X177108571Y-110116880D01*
X176918095Y-110116880D01*
X176822857Y-110069261D01*
X176775238Y-109974023D01*
X176775238Y-109593071D01*
X176822857Y-109497833D01*
X176918095Y-109450214D01*
X177108571Y-109450214D01*
X177203809Y-109497833D01*
X177251428Y-109593071D01*
X177251428Y-109688309D01*
X176775238Y-109783547D01*
X178108571Y-109450214D02*
X178108571Y-110116880D01*
X177680000Y-109450214D02*
X177680000Y-109974023D01*
X177727619Y-110069261D01*
X177822857Y-110116880D01*
X177965714Y-110116880D01*
X178060952Y-110069261D01*
X178108571Y-110021642D01*
X178584761Y-110116880D02*
X178584761Y-109450214D01*
X178584761Y-109640690D02*
X178632380Y-109545452D01*
X178680000Y-109497833D01*
X178775238Y-109450214D01*
X178870476Y-109450214D01*
X179060952Y-109450214D02*
X179441904Y-109450214D01*
X179203809Y-109116880D02*
X179203809Y-109974023D01*
X179251428Y-110069261D01*
X179346666Y-110116880D01*
X179441904Y-110116880D01*
X179727619Y-110069261D02*
X179822857Y-110116880D01*
X180013333Y-110116880D01*
X180108571Y-110069261D01*
X180156190Y-109974023D01*
X180156190Y-109926404D01*
X180108571Y-109831166D01*
X180013333Y-109783547D01*
X179870476Y-109783547D01*
X179775238Y-109735928D01*
X179727619Y-109640690D01*
X179727619Y-109593071D01*
X179775238Y-109497833D01*
X179870476Y-109450214D01*
X180013333Y-109450214D01*
X180108571Y-109497833D01*
X180965714Y-110069261D02*
X180870476Y-110116880D01*
X180680000Y-110116880D01*
X180584761Y-110069261D01*
X180537142Y-109974023D01*
X180537142Y-109593071D01*
X180584761Y-109497833D01*
X180680000Y-109450214D01*
X180870476Y-109450214D01*
X180965714Y-109497833D01*
X181013333Y-109593071D01*
X181013333Y-109688309D01*
X180537142Y-109783547D01*
X186347266Y-43267380D02*
X186680600Y-44267380D01*
X187013933Y-43267380D01*
X187918695Y-44172142D02*
X187871076Y-44219761D01*
X187728219Y-44267380D01*
X187632980Y-44267380D01*
X187490123Y-44219761D01*
X187394885Y-44124523D01*
X187347266Y-44029285D01*
X187299647Y-43838809D01*
X187299647Y-43695952D01*
X187347266Y-43505476D01*
X187394885Y-43410238D01*
X187490123Y-43315000D01*
X187632980Y-43267380D01*
X187728219Y-43267380D01*
X187871076Y-43315000D01*
X187918695Y-43362619D01*
X188918695Y-44172142D02*
X188871076Y-44219761D01*
X188728219Y-44267380D01*
X188632980Y-44267380D01*
X188490123Y-44219761D01*
X188394885Y-44124523D01*
X188347266Y-44029285D01*
X188299647Y-43838809D01*
X188299647Y-43695952D01*
X188347266Y-43505476D01*
X188394885Y-43410238D01*
X188490123Y-43315000D01*
X188632980Y-43267380D01*
X188728219Y-43267380D01*
X188871076Y-43315000D01*
X188918695Y-43362619D01*
X198021676Y-44219761D02*
X198164533Y-44267380D01*
X198402628Y-44267380D01*
X198497866Y-44219761D01*
X198545485Y-44172142D01*
X198593104Y-44076904D01*
X198593104Y-43981666D01*
X198545485Y-43886428D01*
X198497866Y-43838809D01*
X198402628Y-43791190D01*
X198212152Y-43743571D01*
X198116914Y-43695952D01*
X198069295Y-43648333D01*
X198021676Y-43553095D01*
X198021676Y-43457857D01*
X198069295Y-43362619D01*
X198116914Y-43315000D01*
X198212152Y-43267380D01*
X198450247Y-43267380D01*
X198593104Y-43315000D01*
X199212152Y-43267380D02*
X199402628Y-43267380D01*
X199497866Y-43315000D01*
X199593104Y-43410238D01*
X199640723Y-43600714D01*
X199640723Y-43934047D01*
X199593104Y-44124523D01*
X199497866Y-44219761D01*
X199402628Y-44267380D01*
X199212152Y-44267380D01*
X199116914Y-44219761D01*
X199021676Y-44124523D01*
X198974057Y-43934047D01*
X198974057Y-43600714D01*
X199021676Y-43410238D01*
X199116914Y-43315000D01*
X199212152Y-43267380D01*
X176022095Y-43315000D02*
X175926857Y-43267380D01*
X175784000Y-43267380D01*
X175641142Y-43315000D01*
X175545904Y-43410238D01*
X175498285Y-43505476D01*
X175450666Y-43695952D01*
X175450666Y-43838809D01*
X175498285Y-44029285D01*
X175545904Y-44124523D01*
X175641142Y-44219761D01*
X175784000Y-44267380D01*
X175879238Y-44267380D01*
X176022095Y-44219761D01*
X176069714Y-44172142D01*
X176069714Y-43838809D01*
X175879238Y-43838809D01*
X176498285Y-44267380D02*
X176498285Y-43267380D01*
X177069714Y-44267380D01*
X177069714Y-43267380D01*
X177545904Y-44267380D02*
X177545904Y-43267380D01*
X177784000Y-43267380D01*
X177926857Y-43315000D01*
X178022095Y-43410238D01*
X178069714Y-43505476D01*
X178117333Y-43695952D01*
X178117333Y-43838809D01*
X178069714Y-44029285D01*
X178022095Y-44124523D01*
X177926857Y-44219761D01*
X177784000Y-44267380D01*
X177545904Y-44267380D01*
%TO.C,P1*%
X225194904Y-78430380D02*
X225194904Y-77430380D01*
X225575857Y-77430380D01*
X225671095Y-77478000D01*
X225718714Y-77525619D01*
X225766333Y-77620857D01*
X225766333Y-77763714D01*
X225718714Y-77858952D01*
X225671095Y-77906571D01*
X225575857Y-77954190D01*
X225194904Y-77954190D01*
X226718714Y-78430380D02*
X226147285Y-78430380D01*
X226433000Y-78430380D02*
X226433000Y-77430380D01*
X226337761Y-77573238D01*
X226242523Y-77668476D01*
X226147285Y-77716095D01*
%TO.C,S0-4*%
X213534857Y-40028761D02*
X213677714Y-40076380D01*
X213915809Y-40076380D01*
X214011047Y-40028761D01*
X214058666Y-39981142D01*
X214106285Y-39885904D01*
X214106285Y-39790666D01*
X214058666Y-39695428D01*
X214011047Y-39647809D01*
X213915809Y-39600190D01*
X213725333Y-39552571D01*
X213630095Y-39504952D01*
X213582476Y-39457333D01*
X213534857Y-39362095D01*
X213534857Y-39266857D01*
X213582476Y-39171619D01*
X213630095Y-39124000D01*
X213725333Y-39076380D01*
X213963428Y-39076380D01*
X214106285Y-39124000D01*
X214725333Y-39076380D02*
X214820571Y-39076380D01*
X214915809Y-39124000D01*
X214963428Y-39171619D01*
X215011047Y-39266857D01*
X215058666Y-39457333D01*
X215058666Y-39695428D01*
X215011047Y-39885904D01*
X214963428Y-39981142D01*
X214915809Y-40028761D01*
X214820571Y-40076380D01*
X214725333Y-40076380D01*
X214630095Y-40028761D01*
X214582476Y-39981142D01*
X214534857Y-39885904D01*
X214487238Y-39695428D01*
X214487238Y-39457333D01*
X214534857Y-39266857D01*
X214582476Y-39171619D01*
X214630095Y-39124000D01*
X214725333Y-39076380D01*
X215487238Y-39695428D02*
X216249142Y-39695428D01*
X217153904Y-39409714D02*
X217153904Y-40076380D01*
X216915809Y-39028761D02*
X216677714Y-39743047D01*
X217296761Y-39743047D01*
%TO.C,R8*%
X219538333Y-57856380D02*
X219205000Y-57380190D01*
X218966904Y-57856380D02*
X218966904Y-56856380D01*
X219347857Y-56856380D01*
X219443095Y-56904000D01*
X219490714Y-56951619D01*
X219538333Y-57046857D01*
X219538333Y-57189714D01*
X219490714Y-57284952D01*
X219443095Y-57332571D01*
X219347857Y-57380190D01*
X218966904Y-57380190D01*
X220109761Y-57284952D02*
X220014523Y-57237333D01*
X219966904Y-57189714D01*
X219919285Y-57094476D01*
X219919285Y-57046857D01*
X219966904Y-56951619D01*
X220014523Y-56904000D01*
X220109761Y-56856380D01*
X220300238Y-56856380D01*
X220395476Y-56904000D01*
X220443095Y-56951619D01*
X220490714Y-57046857D01*
X220490714Y-57094476D01*
X220443095Y-57189714D01*
X220395476Y-57237333D01*
X220300238Y-57284952D01*
X220109761Y-57284952D01*
X220014523Y-57332571D01*
X219966904Y-57380190D01*
X219919285Y-57475428D01*
X219919285Y-57665904D01*
X219966904Y-57761142D01*
X220014523Y-57808761D01*
X220109761Y-57856380D01*
X220300238Y-57856380D01*
X220395476Y-57808761D01*
X220443095Y-57761142D01*
X220490714Y-57665904D01*
X220490714Y-57475428D01*
X220443095Y-57380190D01*
X220395476Y-57332571D01*
X220300238Y-57284952D01*
%TO.C,R4*%
X210521333Y-57983380D02*
X210188000Y-57507190D01*
X209949904Y-57983380D02*
X209949904Y-56983380D01*
X210330857Y-56983380D01*
X210426095Y-57031000D01*
X210473714Y-57078619D01*
X210521333Y-57173857D01*
X210521333Y-57316714D01*
X210473714Y-57411952D01*
X210426095Y-57459571D01*
X210330857Y-57507190D01*
X209949904Y-57507190D01*
X211378476Y-57316714D02*
X211378476Y-57983380D01*
X211140380Y-56935761D02*
X210902285Y-57650047D01*
X211521333Y-57650047D01*
%TO.C,IC7*%
X213775809Y-57983380D02*
X213775809Y-56983380D01*
X214823428Y-57888142D02*
X214775809Y-57935761D01*
X214632952Y-57983380D01*
X214537714Y-57983380D01*
X214394857Y-57935761D01*
X214299619Y-57840523D01*
X214252000Y-57745285D01*
X214204380Y-57554809D01*
X214204380Y-57411952D01*
X214252000Y-57221476D01*
X214299619Y-57126238D01*
X214394857Y-57031000D01*
X214537714Y-56983380D01*
X214632952Y-56983380D01*
X214775809Y-57031000D01*
X214823428Y-57078619D01*
X215156761Y-56983380D02*
X215823428Y-56983380D01*
X215394857Y-57983380D01*
%TO.C,IC6*%
X164381809Y-57995880D02*
X164381809Y-56995880D01*
X165429428Y-57900642D02*
X165381809Y-57948261D01*
X165238952Y-57995880D01*
X165143714Y-57995880D01*
X165000857Y-57948261D01*
X164905619Y-57853023D01*
X164858000Y-57757785D01*
X164810380Y-57567309D01*
X164810380Y-57424452D01*
X164858000Y-57233976D01*
X164905619Y-57138738D01*
X165000857Y-57043500D01*
X165143714Y-56995880D01*
X165238952Y-56995880D01*
X165381809Y-57043500D01*
X165429428Y-57091119D01*
X166286571Y-56995880D02*
X166096095Y-56995880D01*
X166000857Y-57043500D01*
X165953238Y-57091119D01*
X165858000Y-57233976D01*
X165810380Y-57424452D01*
X165810380Y-57805404D01*
X165858000Y-57900642D01*
X165905619Y-57948261D01*
X166000857Y-57995880D01*
X166191333Y-57995880D01*
X166286571Y-57948261D01*
X166334190Y-57900642D01*
X166381809Y-57805404D01*
X166381809Y-57567309D01*
X166334190Y-57472071D01*
X166286571Y-57424452D01*
X166191333Y-57376833D01*
X166000857Y-57376833D01*
X165905619Y-57424452D01*
X165858000Y-57472071D01*
X165810380Y-57567309D01*
%TO.C,S0-3*%
X197329657Y-40155761D02*
X197472514Y-40203380D01*
X197710609Y-40203380D01*
X197805847Y-40155761D01*
X197853466Y-40108142D01*
X197901085Y-40012904D01*
X197901085Y-39917666D01*
X197853466Y-39822428D01*
X197805847Y-39774809D01*
X197710609Y-39727190D01*
X197520133Y-39679571D01*
X197424895Y-39631952D01*
X197377276Y-39584333D01*
X197329657Y-39489095D01*
X197329657Y-39393857D01*
X197377276Y-39298619D01*
X197424895Y-39251000D01*
X197520133Y-39203380D01*
X197758228Y-39203380D01*
X197901085Y-39251000D01*
X198520133Y-39203380D02*
X198615371Y-39203380D01*
X198710609Y-39251000D01*
X198758228Y-39298619D01*
X198805847Y-39393857D01*
X198853466Y-39584333D01*
X198853466Y-39822428D01*
X198805847Y-40012904D01*
X198758228Y-40108142D01*
X198710609Y-40155761D01*
X198615371Y-40203380D01*
X198520133Y-40203380D01*
X198424895Y-40155761D01*
X198377276Y-40108142D01*
X198329657Y-40012904D01*
X198282038Y-39822428D01*
X198282038Y-39584333D01*
X198329657Y-39393857D01*
X198377276Y-39298619D01*
X198424895Y-39251000D01*
X198520133Y-39203380D01*
X199282038Y-39822428D02*
X200043942Y-39822428D01*
X200424895Y-39203380D02*
X201043942Y-39203380D01*
X200710609Y-39584333D01*
X200853466Y-39584333D01*
X200948704Y-39631952D01*
X200996323Y-39679571D01*
X201043942Y-39774809D01*
X201043942Y-40012904D01*
X200996323Y-40108142D01*
X200948704Y-40155761D01*
X200853466Y-40203380D01*
X200567752Y-40203380D01*
X200472514Y-40155761D01*
X200424895Y-40108142D01*
%TO.C,S0-2*%
X180438657Y-40155761D02*
X180581514Y-40203380D01*
X180819609Y-40203380D01*
X180914847Y-40155761D01*
X180962466Y-40108142D01*
X181010085Y-40012904D01*
X181010085Y-39917666D01*
X180962466Y-39822428D01*
X180914847Y-39774809D01*
X180819609Y-39727190D01*
X180629133Y-39679571D01*
X180533895Y-39631952D01*
X180486276Y-39584333D01*
X180438657Y-39489095D01*
X180438657Y-39393857D01*
X180486276Y-39298619D01*
X180533895Y-39251000D01*
X180629133Y-39203380D01*
X180867228Y-39203380D01*
X181010085Y-39251000D01*
X181629133Y-39203380D02*
X181724371Y-39203380D01*
X181819609Y-39251000D01*
X181867228Y-39298619D01*
X181914847Y-39393857D01*
X181962466Y-39584333D01*
X181962466Y-39822428D01*
X181914847Y-40012904D01*
X181867228Y-40108142D01*
X181819609Y-40155761D01*
X181724371Y-40203380D01*
X181629133Y-40203380D01*
X181533895Y-40155761D01*
X181486276Y-40108142D01*
X181438657Y-40012904D01*
X181391038Y-39822428D01*
X181391038Y-39584333D01*
X181438657Y-39393857D01*
X181486276Y-39298619D01*
X181533895Y-39251000D01*
X181629133Y-39203380D01*
X182391038Y-39822428D02*
X183152942Y-39822428D01*
X183581514Y-39298619D02*
X183629133Y-39251000D01*
X183724371Y-39203380D01*
X183962466Y-39203380D01*
X184057704Y-39251000D01*
X184105323Y-39298619D01*
X184152942Y-39393857D01*
X184152942Y-39489095D01*
X184105323Y-39631952D01*
X183533895Y-40203380D01*
X184152942Y-40203380D01*
%TO.C,IC2*%
X189015809Y-69159380D02*
X189015809Y-68159380D01*
X190063428Y-69064142D02*
X190015809Y-69111761D01*
X189872952Y-69159380D01*
X189777714Y-69159380D01*
X189634857Y-69111761D01*
X189539619Y-69016523D01*
X189492000Y-68921285D01*
X189444380Y-68730809D01*
X189444380Y-68587952D01*
X189492000Y-68397476D01*
X189539619Y-68302238D01*
X189634857Y-68207000D01*
X189777714Y-68159380D01*
X189872952Y-68159380D01*
X190015809Y-68207000D01*
X190063428Y-68254619D01*
X190444380Y-68254619D02*
X190492000Y-68207000D01*
X190587238Y-68159380D01*
X190825333Y-68159380D01*
X190920571Y-68207000D01*
X190968190Y-68254619D01*
X191015809Y-68349857D01*
X191015809Y-68445095D01*
X190968190Y-68587952D01*
X190396761Y-69159380D01*
X191015809Y-69159380D01*
%TO.C,R5*%
X169683133Y-57983380D02*
X169349800Y-57507190D01*
X169111704Y-57983380D02*
X169111704Y-56983380D01*
X169492657Y-56983380D01*
X169587895Y-57031000D01*
X169635514Y-57078619D01*
X169683133Y-57173857D01*
X169683133Y-57316714D01*
X169635514Y-57411952D01*
X169587895Y-57459571D01*
X169492657Y-57507190D01*
X169111704Y-57507190D01*
X170587895Y-56983380D02*
X170111704Y-56983380D01*
X170064085Y-57459571D01*
X170111704Y-57411952D01*
X170206942Y-57364333D01*
X170445038Y-57364333D01*
X170540276Y-57411952D01*
X170587895Y-57459571D01*
X170635514Y-57554809D01*
X170635514Y-57792904D01*
X170587895Y-57888142D01*
X170540276Y-57935761D01*
X170445038Y-57983380D01*
X170206942Y-57983380D01*
X170111704Y-57935761D01*
X170064085Y-57888142D01*
%TO.C,R7*%
X203033333Y-57998380D02*
X202700000Y-57522190D01*
X202461904Y-57998380D02*
X202461904Y-56998380D01*
X202842857Y-56998380D01*
X202938095Y-57046000D01*
X202985714Y-57093619D01*
X203033333Y-57188857D01*
X203033333Y-57331714D01*
X202985714Y-57426952D01*
X202938095Y-57474571D01*
X202842857Y-57522190D01*
X202461904Y-57522190D01*
X203366666Y-56998380D02*
X204033333Y-56998380D01*
X203604761Y-57998380D01*
%TO.C,IC5*%
X181018809Y-58010880D02*
X181018809Y-57010880D01*
X182066428Y-57915642D02*
X182018809Y-57963261D01*
X181875952Y-58010880D01*
X181780714Y-58010880D01*
X181637857Y-57963261D01*
X181542619Y-57868023D01*
X181495000Y-57772785D01*
X181447380Y-57582309D01*
X181447380Y-57439452D01*
X181495000Y-57248976D01*
X181542619Y-57153738D01*
X181637857Y-57058500D01*
X181780714Y-57010880D01*
X181875952Y-57010880D01*
X182018809Y-57058500D01*
X182066428Y-57106119D01*
X182971190Y-57010880D02*
X182495000Y-57010880D01*
X182447380Y-57487071D01*
X182495000Y-57439452D01*
X182590238Y-57391833D01*
X182828333Y-57391833D01*
X182923571Y-57439452D01*
X182971190Y-57487071D01*
X183018809Y-57582309D01*
X183018809Y-57820404D01*
X182971190Y-57915642D01*
X182923571Y-57963261D01*
X182828333Y-58010880D01*
X182590238Y-58010880D01*
X182495000Y-57963261D01*
X182447380Y-57915642D01*
%TO.C,DC1*%
X200564904Y-102052380D02*
X200564904Y-101052380D01*
X200803000Y-101052380D01*
X200945857Y-101100000D01*
X201041095Y-101195238D01*
X201088714Y-101290476D01*
X201136333Y-101480952D01*
X201136333Y-101623809D01*
X201088714Y-101814285D01*
X201041095Y-101909523D01*
X200945857Y-102004761D01*
X200803000Y-102052380D01*
X200564904Y-102052380D01*
X202136333Y-101957142D02*
X202088714Y-102004761D01*
X201945857Y-102052380D01*
X201850619Y-102052380D01*
X201707761Y-102004761D01*
X201612523Y-101909523D01*
X201564904Y-101814285D01*
X201517285Y-101623809D01*
X201517285Y-101480952D01*
X201564904Y-101290476D01*
X201612523Y-101195238D01*
X201707761Y-101100000D01*
X201850619Y-101052380D01*
X201945857Y-101052380D01*
X202088714Y-101100000D01*
X202136333Y-101147619D01*
X203088714Y-102052380D02*
X202517285Y-102052380D01*
X202803000Y-102052380D02*
X202803000Y-101052380D01*
X202707761Y-101195238D01*
X202612523Y-101290476D01*
X202517285Y-101338095D01*
%TO.C,IC4*%
X198057209Y-58049380D02*
X198057209Y-57049380D01*
X199104828Y-57954142D02*
X199057209Y-58001761D01*
X198914352Y-58049380D01*
X198819114Y-58049380D01*
X198676257Y-58001761D01*
X198581019Y-57906523D01*
X198533400Y-57811285D01*
X198485780Y-57620809D01*
X198485780Y-57477952D01*
X198533400Y-57287476D01*
X198581019Y-57192238D01*
X198676257Y-57097000D01*
X198819114Y-57049380D01*
X198914352Y-57049380D01*
X199057209Y-57097000D01*
X199104828Y-57144619D01*
X199961971Y-57382714D02*
X199961971Y-58049380D01*
X199723876Y-57001761D02*
X199485780Y-57716047D01*
X200104828Y-57716047D01*
%TO.C,R6*%
X186370933Y-58046880D02*
X186037600Y-57570690D01*
X185799504Y-58046880D02*
X185799504Y-57046880D01*
X186180457Y-57046880D01*
X186275695Y-57094500D01*
X186323314Y-57142119D01*
X186370933Y-57237357D01*
X186370933Y-57380214D01*
X186323314Y-57475452D01*
X186275695Y-57523071D01*
X186180457Y-57570690D01*
X185799504Y-57570690D01*
X187228076Y-57046880D02*
X187037600Y-57046880D01*
X186942361Y-57094500D01*
X186894742Y-57142119D01*
X186799504Y-57284976D01*
X186751885Y-57475452D01*
X186751885Y-57856404D01*
X186799504Y-57951642D01*
X186847123Y-57999261D01*
X186942361Y-58046880D01*
X187132838Y-58046880D01*
X187228076Y-57999261D01*
X187275695Y-57951642D01*
X187323314Y-57856404D01*
X187323314Y-57618309D01*
X187275695Y-57523071D01*
X187228076Y-57475452D01*
X187132838Y-57427833D01*
X186942361Y-57427833D01*
X186847123Y-57475452D01*
X186799504Y-57523071D01*
X186751885Y-57618309D01*
%TO.C,R1*%
X160361333Y-57934880D02*
X160028000Y-57458690D01*
X159789904Y-57934880D02*
X159789904Y-56934880D01*
X160170857Y-56934880D01*
X160266095Y-56982500D01*
X160313714Y-57030119D01*
X160361333Y-57125357D01*
X160361333Y-57268214D01*
X160313714Y-57363452D01*
X160266095Y-57411071D01*
X160170857Y-57458690D01*
X159789904Y-57458690D01*
X161313714Y-57934880D02*
X160742285Y-57934880D01*
X161028000Y-57934880D02*
X161028000Y-56934880D01*
X160932761Y-57077738D01*
X160837523Y-57172976D01*
X160742285Y-57220595D01*
%TO.C,R3*%
X193762333Y-57998380D02*
X193429000Y-57522190D01*
X193190904Y-57998380D02*
X193190904Y-56998380D01*
X193571857Y-56998380D01*
X193667095Y-57046000D01*
X193714714Y-57093619D01*
X193762333Y-57188857D01*
X193762333Y-57331714D01*
X193714714Y-57426952D01*
X193667095Y-57474571D01*
X193571857Y-57522190D01*
X193190904Y-57522190D01*
X194095666Y-56998380D02*
X194714714Y-56998380D01*
X194381380Y-57379333D01*
X194524238Y-57379333D01*
X194619476Y-57426952D01*
X194667095Y-57474571D01*
X194714714Y-57569809D01*
X194714714Y-57807904D01*
X194667095Y-57903142D01*
X194619476Y-57950761D01*
X194524238Y-57998380D01*
X194238523Y-57998380D01*
X194143285Y-57950761D01*
X194095666Y-57903142D01*
%TO.C,R2*%
X177125333Y-57919880D02*
X176792000Y-57443690D01*
X176553904Y-57919880D02*
X176553904Y-56919880D01*
X176934857Y-56919880D01*
X177030095Y-56967500D01*
X177077714Y-57015119D01*
X177125333Y-57110357D01*
X177125333Y-57253214D01*
X177077714Y-57348452D01*
X177030095Y-57396071D01*
X176934857Y-57443690D01*
X176553904Y-57443690D01*
X177506285Y-57015119D02*
X177553904Y-56967500D01*
X177649142Y-56919880D01*
X177887238Y-56919880D01*
X177982476Y-56967500D01*
X178030095Y-57015119D01*
X178077714Y-57110357D01*
X178077714Y-57205595D01*
X178030095Y-57348452D01*
X177458666Y-57919880D01*
X178077714Y-57919880D01*
%TO.C,IC1*%
X167933809Y-102052380D02*
X167933809Y-101052380D01*
X168981428Y-101957142D02*
X168933809Y-102004761D01*
X168790952Y-102052380D01*
X168695714Y-102052380D01*
X168552857Y-102004761D01*
X168457619Y-101909523D01*
X168410000Y-101814285D01*
X168362380Y-101623809D01*
X168362380Y-101480952D01*
X168410000Y-101290476D01*
X168457619Y-101195238D01*
X168552857Y-101100000D01*
X168695714Y-101052380D01*
X168790952Y-101052380D01*
X168933809Y-101100000D01*
X168981428Y-101147619D01*
X169933809Y-102052380D02*
X169362380Y-102052380D01*
X169648095Y-102052380D02*
X169648095Y-101052380D01*
X169552857Y-101195238D01*
X169457619Y-101290476D01*
X169362380Y-101338095D01*
%TO.C,S0-1*%
X163750857Y-40155761D02*
X163893714Y-40203380D01*
X164131809Y-40203380D01*
X164227047Y-40155761D01*
X164274666Y-40108142D01*
X164322285Y-40012904D01*
X164322285Y-39917666D01*
X164274666Y-39822428D01*
X164227047Y-39774809D01*
X164131809Y-39727190D01*
X163941333Y-39679571D01*
X163846095Y-39631952D01*
X163798476Y-39584333D01*
X163750857Y-39489095D01*
X163750857Y-39393857D01*
X163798476Y-39298619D01*
X163846095Y-39251000D01*
X163941333Y-39203380D01*
X164179428Y-39203380D01*
X164322285Y-39251000D01*
X164941333Y-39203380D02*
X165036571Y-39203380D01*
X165131809Y-39251000D01*
X165179428Y-39298619D01*
X165227047Y-39393857D01*
X165274666Y-39584333D01*
X165274666Y-39822428D01*
X165227047Y-40012904D01*
X165179428Y-40108142D01*
X165131809Y-40155761D01*
X165036571Y-40203380D01*
X164941333Y-40203380D01*
X164846095Y-40155761D01*
X164798476Y-40108142D01*
X164750857Y-40012904D01*
X164703238Y-39822428D01*
X164703238Y-39584333D01*
X164750857Y-39393857D01*
X164798476Y-39298619D01*
X164846095Y-39251000D01*
X164941333Y-39203380D01*
X165703238Y-39822428D02*
X166465142Y-39822428D01*
X167465142Y-40203380D02*
X166893714Y-40203380D01*
X167179428Y-40203380D02*
X167179428Y-39203380D01*
X167084190Y-39346238D01*
X166988952Y-39441476D01*
X166893714Y-39489095D01*
D11*
%TO.C,P1*%
X222995000Y-84710000D02*
X216215000Y-84710000D01*
D12*
X222985000Y-71510000D02*
X222995000Y-71510000D01*
D11*
X204995000Y-71510000D02*
X214015000Y-71510000D01*
D12*
X222875000Y-71510000D02*
X222995000Y-71510000D01*
D11*
X222995000Y-71510000D02*
X216215000Y-71510000D01*
X222995000Y-71510000D02*
X222995000Y-84710000D01*
X206995000Y-85180000D02*
X205465000Y-85180000D01*
D12*
X213945000Y-84710000D02*
X214015000Y-84710000D01*
D11*
X214015000Y-84710000D02*
X204995000Y-84710000D01*
X204995000Y-84710000D02*
X204995000Y-71510000D01*
%TO.C,S0-4*%
X216404000Y-49353000D02*
X216784000Y-48973000D01*
X223077000Y-45827000D02*
X207717000Y-45827000D01*
X223077000Y-45267000D02*
X207717000Y-45267000D01*
X216655000Y-49635000D02*
X217050000Y-49239000D01*
X223317000Y-45767000D02*
X223317000Y-45027000D01*
X221759000Y-49080000D02*
X221865000Y-48973000D01*
X211324000Y-49353000D02*
X211704000Y-48973000D01*
X211575000Y-49635000D02*
X211970000Y-49239000D01*
X223317000Y-45027000D02*
X222817000Y-45027000D01*
X214009000Y-52281000D02*
X214389000Y-51901000D01*
X223077000Y-48327000D02*
X207717000Y-48327000D01*
X218823000Y-52015000D02*
X218930000Y-51908000D01*
X223077000Y-54527000D02*
X207717000Y-54527000D01*
X219089000Y-52281000D02*
X219196000Y-52174000D01*
X208663000Y-52015000D02*
X209058000Y-51619000D01*
X208929000Y-52281000D02*
X209309000Y-51901000D01*
X207717000Y-56587000D02*
X207717000Y-45267000D01*
X223077000Y-56587000D02*
X207717000Y-56587000D01*
X223077000Y-56587000D02*
X223077000Y-45267000D01*
X213743000Y-52015000D02*
X214138000Y-51619000D01*
X222025000Y-49346000D02*
X222131000Y-49239000D01*
X212497000Y-50627000D02*
G75*
G03*
X212497000Y-50627000I-2180000J0D01*
G01*
X222657000Y-50627000D02*
G75*
G03*
X222657000Y-50627000I-2180000J0D01*
G01*
X217577000Y-50627000D02*
G75*
G03*
X217577000Y-50627000I-2180000J0D01*
G01*
%TO.C,R8*%
X218335000Y-60103000D02*
X218665000Y-60103000D01*
X218665000Y-66643000D02*
X218335000Y-66643000D01*
X220745000Y-66643000D02*
X221075000Y-66643000D01*
X221075000Y-66643000D02*
X221075000Y-60103000D01*
X218335000Y-66643000D02*
X218335000Y-60103000D01*
X221075000Y-60103000D02*
X220745000Y-60103000D01*
%TO.C,R4*%
X212058000Y-66643000D02*
X211728000Y-66643000D01*
X211728000Y-60103000D02*
X212058000Y-60103000D01*
X209648000Y-60103000D02*
X209318000Y-60103000D01*
X209318000Y-60103000D02*
X209318000Y-66643000D01*
X212058000Y-60103000D02*
X212058000Y-66643000D01*
X209318000Y-66643000D02*
X209648000Y-66643000D01*
%TO.C,IC7*%
X212538000Y-66033000D02*
X217738000Y-66033000D01*
X212538000Y-60733000D02*
X212538000Y-66033000D01*
X217738000Y-60733000D02*
X212538000Y-60733000D01*
X217738000Y-66033000D02*
X217738000Y-64383000D01*
X217738000Y-62383000D02*
X217738000Y-60733000D01*
X217738000Y-62383000D02*
G75*
G03*
X217738000Y-64383000I0J-1000000D01*
G01*
%TO.C,IC6*%
X167959000Y-62304500D02*
G75*
G03*
X167959000Y-64304500I0J-1000000D01*
G01*
X167959000Y-62304500D02*
X167959000Y-60654500D01*
X167959000Y-65954500D02*
X167959000Y-64304500D01*
X162759000Y-65954500D02*
X167959000Y-65954500D01*
X167959000Y-60654500D02*
X162759000Y-60654500D01*
X162759000Y-60654500D02*
X162759000Y-65954500D01*
%TO.C,S0-3*%
X206243600Y-50673000D02*
G75*
G03*
X206243600Y-50673000I-2180000J0D01*
G01*
X196083600Y-50673000D02*
G75*
G03*
X196083600Y-50673000I-2180000J0D01*
G01*
X201163600Y-50673000D02*
G75*
G03*
X201163600Y-50673000I-2180000J0D01*
G01*
X197329600Y-52061000D02*
X197724600Y-51665000D01*
X192249600Y-52061000D02*
X192644600Y-51665000D01*
X191303600Y-56633000D02*
X191303600Y-45313000D01*
X206903600Y-45813000D02*
X206903600Y-45073000D01*
X206663600Y-54573000D02*
X191303600Y-54573000D01*
X206663600Y-45313000D02*
X191303600Y-45313000D01*
X206663600Y-56633000D02*
X206663600Y-45313000D01*
X206903600Y-45073000D02*
X206403600Y-45073000D01*
X197595600Y-52327000D02*
X197975600Y-51947000D01*
X206663600Y-45873000D02*
X191303600Y-45873000D01*
X195161600Y-49681000D02*
X195556600Y-49285000D01*
X200241600Y-49681000D02*
X200636600Y-49285000D01*
X194910600Y-49399000D02*
X195290600Y-49019000D01*
X202675600Y-52327000D02*
X202782600Y-52220000D01*
X206663600Y-56633000D02*
X191303600Y-56633000D01*
X206663600Y-48373000D02*
X191303600Y-48373000D01*
X205345600Y-49126000D02*
X205451600Y-49019000D01*
X205611600Y-49392000D02*
X205717600Y-49285000D01*
X199990600Y-49399000D02*
X200370600Y-49019000D01*
X192515600Y-52327000D02*
X192895600Y-51947000D01*
X202409600Y-52061000D02*
X202516600Y-51954000D01*
%TO.C,S0-2*%
X189733600Y-50673000D02*
G75*
G03*
X189733600Y-50673000I-2180000J0D01*
G01*
X184653600Y-50673000D02*
G75*
G03*
X184653600Y-50673000I-2180000J0D01*
G01*
X179573600Y-50673000D02*
G75*
G03*
X179573600Y-50673000I-2180000J0D01*
G01*
X185899600Y-52061000D02*
X186006600Y-51954000D01*
X181085600Y-52327000D02*
X181465600Y-51947000D01*
X188835600Y-49126000D02*
X188941600Y-49019000D01*
X190153600Y-45873000D02*
X174793600Y-45873000D01*
X190153600Y-56633000D02*
X174793600Y-56633000D01*
X178651600Y-49681000D02*
X179046600Y-49285000D01*
X183480600Y-49399000D02*
X183860600Y-49019000D01*
X180819600Y-52061000D02*
X181214600Y-51665000D01*
X178400600Y-49399000D02*
X178780600Y-49019000D01*
X190153600Y-45313000D02*
X174793600Y-45313000D01*
X190393600Y-45813000D02*
X190393600Y-45073000D01*
X190153600Y-48373000D02*
X174793600Y-48373000D01*
X190153600Y-56633000D02*
X190153600Y-45313000D01*
X190153600Y-54573000D02*
X174793600Y-54573000D01*
X186165600Y-52327000D02*
X186272600Y-52220000D01*
X190393600Y-45073000D02*
X189893600Y-45073000D01*
X183731600Y-49681000D02*
X184126600Y-49285000D01*
X174793600Y-56633000D02*
X174793600Y-45313000D01*
X189101600Y-49392000D02*
X189207600Y-49285000D01*
X175739600Y-52061000D02*
X176134600Y-51665000D01*
X176005600Y-52327000D02*
X176385600Y-51947000D01*
%TO.C,IC2*%
X182785000Y-69755000D02*
X203105000Y-69755000D01*
X203105000Y-69755000D02*
X203105000Y-84995000D01*
X203105000Y-84995000D02*
X182785000Y-84995000D01*
X182785000Y-84995000D02*
X182785000Y-69755000D01*
%TO.C,R5*%
X168429000Y-59976000D02*
X168759000Y-59976000D01*
X170839000Y-66516000D02*
X171169000Y-66516000D01*
X168759000Y-66516000D02*
X168429000Y-66516000D01*
X168429000Y-66516000D02*
X168429000Y-59976000D01*
X171169000Y-59976000D02*
X170839000Y-59976000D01*
X171169000Y-66516000D02*
X171169000Y-59976000D01*
%TO.C,R7*%
X202185400Y-66556400D02*
X201855400Y-66556400D01*
X204595400Y-66556400D02*
X204595400Y-60016400D01*
X201855400Y-60016400D02*
X202185400Y-60016400D01*
X201855400Y-66556400D02*
X201855400Y-60016400D01*
X204595400Y-60016400D02*
X204265400Y-60016400D01*
X204265400Y-66556400D02*
X204595400Y-66556400D01*
%TO.C,IC5*%
X184723000Y-62319500D02*
X184723000Y-60669500D01*
X184723000Y-65969500D02*
X184723000Y-64319500D01*
X184723000Y-60669500D02*
X179523000Y-60669500D01*
X179523000Y-60669500D02*
X179523000Y-65969500D01*
X179523000Y-65969500D02*
X184723000Y-65969500D01*
X184723000Y-62319500D02*
G75*
G03*
X184723000Y-64319500I0J-1000000D01*
G01*
%TO.C,DC1*%
X219869000Y-103537000D02*
X183801000Y-103537000D01*
X183801000Y-103537000D02*
X183801000Y-89313000D01*
X183801000Y-89313000D02*
X219869000Y-89313000D01*
X219869000Y-89313000D02*
X219869000Y-103537000D01*
%TO.C,IC4*%
X201385400Y-66018000D02*
X201385400Y-64368000D01*
X201385400Y-62368000D02*
X201385400Y-60718000D01*
X201385400Y-60718000D02*
X196185400Y-60718000D01*
X196185400Y-66018000D02*
X201385400Y-66018000D01*
X196185400Y-60718000D02*
X196185400Y-66018000D01*
X201385400Y-62368000D02*
G75*
G03*
X201385400Y-64368000I0J-1000000D01*
G01*
%TO.C,R6*%
X185193000Y-60039500D02*
X185523000Y-60039500D01*
X185523000Y-66579500D02*
X185193000Y-66579500D01*
X187603000Y-66579500D02*
X187933000Y-66579500D01*
X187933000Y-66579500D02*
X187933000Y-60039500D01*
X187933000Y-60039500D02*
X187603000Y-60039500D01*
X185193000Y-66579500D02*
X185193000Y-60039500D01*
%TO.C,R1*%
X159285000Y-59927500D02*
X159285000Y-66467500D01*
X162025000Y-59927500D02*
X162025000Y-66467500D01*
X159285000Y-66467500D02*
X159615000Y-66467500D01*
X159615000Y-59927500D02*
X159285000Y-59927500D01*
X161695000Y-59927500D02*
X162025000Y-59927500D01*
X162025000Y-66467500D02*
X161695000Y-66467500D01*
%TO.C,R3*%
X192686000Y-66531000D02*
X193016000Y-66531000D01*
X195426000Y-59991000D02*
X195426000Y-66531000D01*
X193016000Y-59991000D02*
X192686000Y-59991000D01*
X195096000Y-59991000D02*
X195426000Y-59991000D01*
X192686000Y-59991000D02*
X192686000Y-66531000D01*
X195426000Y-66531000D02*
X195096000Y-66531000D01*
%TO.C,R2*%
X176379000Y-59912500D02*
X176049000Y-59912500D01*
X178789000Y-66452500D02*
X178459000Y-66452500D01*
X178789000Y-59912500D02*
X178789000Y-66452500D01*
X176049000Y-59912500D02*
X176049000Y-66452500D01*
X176049000Y-66452500D02*
X176379000Y-66452500D01*
X178459000Y-59912500D02*
X178789000Y-59912500D01*
%TO.C,IC1*%
X158139000Y-103082000D02*
X181459000Y-103082000D01*
X155599000Y-96182000D02*
X155599000Y-70752000D01*
X155599000Y-96182000D02*
X158139000Y-96182000D01*
X158139000Y-96182000D02*
X158139000Y-103082000D01*
X179339000Y-68622000D02*
X157729000Y-68622000D01*
X181459000Y-103082000D02*
X181459000Y-70752000D01*
X157729000Y-68622000D02*
G75*
G03*
X155599000Y-70752000I2J-2130002D01*
G01*
X181459000Y-70752000D02*
G75*
G03*
X179329000Y-68622000I-2130000J0D01*
G01*
G36*
X155194000Y-76962000D02*
G01*
X154559000Y-77597000D01*
X154559000Y-76327000D01*
X155194000Y-76962000D01*
G37*
D10*
X155194000Y-76962000D02*
X154559000Y-77597000D01*
X154559000Y-76327000D01*
X155194000Y-76962000D01*
D11*
%TO.C,S0-1*%
X162936600Y-50673000D02*
G75*
G03*
X162936600Y-50673000I-2180000J0D01*
G01*
X168016600Y-50673000D02*
G75*
G03*
X168016600Y-50673000I-2180000J0D01*
G01*
X173096600Y-50673000D02*
G75*
G03*
X173096600Y-50673000I-2180000J0D01*
G01*
X161763600Y-49399000D02*
X162143600Y-49019000D01*
X166843600Y-49399000D02*
X167223600Y-49019000D01*
X169262600Y-52061000D02*
X169369600Y-51954000D01*
X158156600Y-56633000D02*
X158156600Y-45313000D01*
X162014600Y-49681000D02*
X162409600Y-49285000D01*
X173516600Y-45873000D02*
X158156600Y-45873000D01*
X172464600Y-49392000D02*
X172570600Y-49285000D01*
X173516600Y-45313000D02*
X158156600Y-45313000D01*
X167094600Y-49681000D02*
X167489600Y-49285000D01*
X173516600Y-48373000D02*
X158156600Y-48373000D01*
X173756600Y-45813000D02*
X173756600Y-45073000D01*
X159368600Y-52327000D02*
X159748600Y-51947000D01*
X159102600Y-52061000D02*
X159497600Y-51665000D01*
X164448600Y-52327000D02*
X164828600Y-51947000D01*
X169528600Y-52327000D02*
X169635600Y-52220000D01*
X173756600Y-45073000D02*
X173256600Y-45073000D01*
X173516600Y-56633000D02*
X173516600Y-45313000D01*
X173516600Y-56633000D02*
X158156600Y-56633000D01*
X173516600Y-54573000D02*
X158156600Y-54573000D01*
X172198600Y-49126000D02*
X172304600Y-49019000D01*
X164182600Y-52061000D02*
X164577600Y-51665000D01*
%TD*%
M02*
