M48
; DRILL file {KiCad (6.0.7)} date Fri Jan  6 17:13:05 2023
; FORMAT={2:4/ absolute / inch / suppress leading zeros}
; #@! TF.CreationDate,2023-01-06T17:13:05+01:00
; #@! TF.GenerationSoftware,Kicad,Pcbnew,(6.0.7)
; #@! TF.FileFunction,Plated,1,2,PTH
FMAT,2
INCH,TZ
; #@! TA.AperFunction,Plated,PTH,ViaDrill
T1C0.0157
; #@! TA.AperFunction,Plated,PTH,ComponentDrill
T2C0.0299
; #@! TA.AperFunction,Plated,PTH,ComponentDrill
T3C0.0300
; #@! TA.AperFunction,Plated,PTH,ComponentDrill
T4C0.0315
; #@! TA.AperFunction,Plated,PTH,ComponentDrill
T5C0.0394
; #@! TA.AperFunction,Plated,PTH,ComponentDrill
T6C0.0512
%
G90
G05
T1
X67000Y-25200
X67450Y-34300
X68400Y-33300
X71200Y-25250
X73531Y-25231
X77750Y-25200
X80081Y-25231
X84200Y-25200
X86750Y-25181
X87650Y-26450
X88650Y-24750
T2
X81191Y-30000
X81191Y-31000
X81191Y-32000
X82191Y-29500
X82191Y-30500
X82191Y-31500
T3
X72463Y-32963
X73463Y-32963
X73463Y-36663
X73463Y-39463
X74463Y-32963
X75463Y-32963
X76463Y-32963
X77463Y-32963
X78463Y-32963
X79463Y-32963
X85863Y-36863
X85863Y-39263
T4
X63250Y-23381
X63250Y-26381
X64602Y-23423
X64602Y-26423
X65602Y-23423
X65602Y-26423
X66850Y-23400
X66850Y-26400
X69850Y-23375
X69850Y-26375
X71202Y-23429
X71202Y-26429
X72202Y-23429
X72202Y-26429
X73450Y-23425
X73450Y-26425
X76400Y-23406
X76400Y-26406
X77762Y-23448
X77762Y-26448
X78762Y-23448
X78762Y-26448
X80010Y-23416
X80010Y-26416
X82948Y-23450
X82948Y-26450
X84200Y-23454
X84200Y-26454
X85200Y-23454
X85200Y-26454
X86498Y-23450
X86498Y-26450
T5
X61850Y-30300
X61850Y-31300
X61850Y-32300
X61850Y-33300
X61850Y-34300
X61850Y-35300
X61850Y-36300
X61850Y-37300
X70850Y-30300
X70850Y-31300
X70850Y-32300
X70850Y-33300
X70850Y-34300
X70850Y-35300
X70850Y-36300
X70850Y-37300
T6
X63290Y-19950
X65290Y-19950
X67290Y-19950
X69840Y-19950
X71840Y-19950
X73840Y-19950
X76340Y-19950
X78340Y-19950
X80340Y-19950
X82802Y-19932
X84802Y-19932
X86802Y-19932
T0
M30
